<svg id="Layer_1" data-name="Layer 1" xmlns="http://www.w3.org/2000/svg" viewBox="0 0 18 18"><title>Status_icons</title>
    <defs>
        <style>.cls-running{fill:#FF8000;}</style>
    </defs>
    <path class="cls-running" d="M3.86,4.27,2.44,2.85A8.94,8.94,0,0,0,.06,8h2A6.94,6.94,0,0,1,3.86,4.27Z"/>
    <path class="cls-running" d="M8,2.08v-2A9,9,0,0,0,4,1.54L5.41,3A6.86,6.86,0,0,1,8,2.08Z"/>
    <path class="cls-running" d="M2.08,10h-2A8.93,8.93,0,0,0,2,14.61L3.4,13.18A7,7,0,0,1,2.08,10Z"/>
    <path class="cls-running" d="M4.82,14.6,3.39,16A8.93,8.93,0,0,0,8,17.94v-2A7,7,0,0,1,4.82,14.6Z"/>
    <path class="cls-running" d="M10,.06v2A7,7,0,0,1,15.92,8a6.29,6.29,0,0,1,0,2A7,7,0,0,1,10,15.92v2A9,9,0,0,0,10,.06Z"/>
    <circle class="cls-running" cx="9" cy="9" r="3"/>
</svg>