<svg xmlns="http://www.w3.org/2000/svg" xmlns:xlink="http://www.w3.org/1999/xlink" viewBox="740 0 77 96">
  <defs>
    <style>
      .cls-1 {
        clip-path: url(#clip-Add_Account_-_Approval);
      }

      .cls-2 {
        fill: #43ba8a;
      }

      .cls-3 {
        fill: #1d6d4b;
        opacity: 0.46;
      }

      .cls-4 {
        fill: #f9bda0;
      }

      .cls-5 {
        fill: #f2ab8f;
      }

      .cls-6 {
        fill: #333a4d;
      }

      .cls-7 {
        fill: #fff;
      }
    </style>
    <clipPath id="clip-Add_Account_-_Approval">
      <rect x="740" width="77" height="96"/>
    </clipPath>
  </defs>
  <g id="Add_Account_-_Approval" data-name="Add Account - Approval" class="cls-1">
    <rect class="cls-7" x="740" width="77" height="96"/>
    <g id="Group_876" data-name="Group 876" transform="translate(140 -1444)">
      <g id="Group_1024" data-name="Group 1024" transform="translate(600 1444)">
        <g id="Group_1023" data-name="Group 1023" transform="translate(0)">
          <ellipse id="Ellipse_53" data-name="Ellipse 53" class="cls-2" cx="28.953" cy="28.862" rx="28.953" ry="28.862" transform="translate(1.505 1.5)"/>
          <path id="Path_1459" data-name="Path 1459" class="cls-3" d="M53.014,54.03a9.075,9.075,0,0,0-7.977,9.152v10.54a2.664,2.664,0,0,1-.79,1.894h0a2.628,2.628,0,0,1-1.975.788A28.837,28.837,0,0,1,23.027,27.1a28.828,28.828,0,0,0,7.412,53.392,28.537,28.537,0,0,0,14.6-.413V80.1a28.945,28.945,0,0,0,17.7-14.534V62.807A8.838,8.838,0,0,0,53.014,54.03Z" transform="translate(-6.528 -22.018)"/>
          <path id="Path_1460" data-name="Path 1460" class="cls-4" d="M262.407,237.8V226a4.162,4.162,0,0,0-3.612-4.22,4.016,4.016,0,0,0-4.44,3.995v-1.388a4.162,4.162,0,0,0-3.612-4.22,4.016,4.016,0,0,0-4.44,3.995v-1.369a4.162,4.162,0,0,0-3.612-4.22,4.016,4.016,0,0,0-4.44,3.995V200.327a4.162,4.162,0,0,0-3.612-4.22,4.016,4.016,0,0,0-4.44,3.995V237.8a16.065,16.065,0,0,0,16.085,16.034h0A16.073,16.073,0,0,0,262.407,237.8Z" transform="translate(-186.893 -159.313)"/>
          <g id="Group_1022" data-name="Group 1022" transform="translate(43.344 36.773)">
            <path id="Path_1461" data-name="Path 1461" class="cls-5" d="M279.534,316.634a3.984,3.984,0,0,0-2.935-.788,4.422,4.422,0,0,0-3.5,4.257v1.313a2.4,2.4,0,0,0,2.408,2.4h0a2.4,2.4,0,0,0,2.408-2.4V319.8A4.037,4.037,0,0,1,279.534,316.634Z" transform="translate(-265.067 -293.358)"/>
            <path id="Path_1462" data-name="Path 1462" class="cls-5" d="M322.334,325.234a3.983,3.983,0,0,0-2.935-.788,4.422,4.422,0,0,0-3.5,4.257v1.313a2.4,2.4,0,0,0,2.408,2.4h0a2.4,2.4,0,0,0,2.408-2.4V328.4A3.956,3.956,0,0,1,322.334,325.234Z" transform="translate(-299.815 -300.345)"/>
            <path id="Path_1463" data-name="Path 1463" class="cls-5" d="M365.034,333.734a3.983,3.983,0,0,0-2.935-.788,4.422,4.422,0,0,0-3.5,4.257v1.313a2.4,2.4,0,0,0,2.408,2.4h0a2.4,2.4,0,0,0,2.408-2.4V336.9A4.093,4.093,0,0,1,365.034,333.734Z" transform="translate(-334.482 -307.251)"/>
            <path id="Path_1464" data-name="Path 1464" class="cls-5" d="M235.216,237.8V200.1a3.992,3.992,0,0,1,1.6-3.169,3.728,3.728,0,0,0-1.975-.825,4.016,4.016,0,0,0-4.44,3.995V237.8a16.065,16.065,0,0,0,16.085,16.034,14.552,14.552,0,0,0,2.408-.206A16.047,16.047,0,0,1,235.216,237.8Z" transform="translate(-230.4 -196.086)"/>
          </g>
          <path id="Path_1465" data-name="Path 1465" class="cls-6" d="M72.052,60.968a5.674,5.674,0,0,0-3.913,1.088A5.472,5.472,0,0,0,64,59.355a5.674,5.674,0,0,0-3.913,1.088,5.439,5.439,0,0,0-7.224-2.119V50.916A30.289,30.289,0,1,0,41.82,58.549V78.465a17.59,17.59,0,0,0,35.18,0v-11.8A5.668,5.668,0,0,0,72.052,60.968ZM30.458,57.724A27.376,27.376,0,1,1,52.882,46.153V41.014a5.7,5.7,0,0,0-4.967-5.72,5.518,5.518,0,0,0-6.1,5.476v14.5A27.033,27.033,0,0,1,30.458,57.724Zm43.551,20.76a14.58,14.58,0,0,1-29.16,0V40.789a2.527,2.527,0,0,1,2.521-2.513,1.246,1.246,0,0,1,.263.019,2.666,2.666,0,0,1,2.258,2.719V63.237a1.505,1.505,0,0,0,3.01,0,2.518,2.518,0,0,1,2.784-2.494,2.666,2.666,0,0,1,2.258,2.719v1.369a1.505,1.505,0,0,0,3.01,0,2.518,2.518,0,0,1,2.784-2.494,2.666,2.666,0,0,1,2.258,2.719v1.369a1.505,1.505,0,0,0,3.01,0,2.518,2.518,0,0,1,2.784-2.494,2.666,2.666,0,0,1,2.258,2.719V78.484Z"/>
          <path id="Path_1466" data-name="Path 1466" class="cls-7" d="M113.948,131.641a1.288,1.288,0,0,1-.884-.356L108,126.24a2.022,2.022,0,0,1,0-2.832,2,2,0,0,1,2.822,0l3.1,3.094,10.554-10.521a1.992,1.992,0,1,1,2.822,2.813l-12.473,12.471A1.2,1.2,0,0,1,113.948,131.641Z" transform="translate(-87.216 -93.758)"/>
        </g>
      </g>
    </g>
  </g>
</svg>
