<svg xmlns="http://www.w3.org/2000/svg" xmlns:xlink="http://www.w3.org/1999/xlink" viewBox="360 0 103 88">
  <defs>
    <style>
      .cls-1 {
        clip-path: url(#clip-Add_Account_-_LIVE);
      }

      .cls-2 {
        fill: #b2b7bf;
      }

      .cls-3 {
        fill: #f9bda0;
      }

      .cls-4 {
        fill: #f2ab8f;
      }

      .cls-5 {
        fill: #43ba8a;
      }

      .cls-6 {
        fill: #1d6d4b;
      }

      .cls-7 {
        fill: #36abd6;
      }

      .cls-8 {
        fill: #057771;
      }

      .cls-9 {
        fill: #1c7a93;
      }

      .cls-10 {
        fill: #333a4d;
      }

      .cls-11 {
        fill: #fff;
      }
    </style>
    <clipPath id="clip-Add_Account_-_LIVE">
      <rect x="360" width="103" height="88"/>
    </clipPath>
  </defs>
  <g id="Add_Account_-_LIVE" data-name="Add Account - LIVE" class="cls-1">
    <rect class="cls-11" x="360" width="103" height="88"/>
    <g id="Group_1" data-name="Group 1" transform="translate(360)">
      <g id="Group_865" data-name="Group 865" transform="translate(3.628 3.161)">
        <path id="Path_1248" data-name="Path 1248" class="cls-2" d="M371.944,159.166v2.986a1.307,1.307,0,0,1-1.2,1.319l-8.048.622V157.2l8.048.622A1.368,1.368,0,0,1,371.944,159.166Z" transform="translate(-275.96 -121.238)"/>
        <path id="Path_1249" data-name="Path 1249" class="cls-3" d="M297.731,46.471v5.674H284.9V19.1a6.456,6.456,0,0,1,1.869-4.529A6.414,6.414,0,0,1,297.707,19.1V46.471Z" transform="translate(-217.544 -12.7)"/>
        <path id="Path_1250" data-name="Path 1250" class="cls-4" d="M293.2,14.567a6.464,6.464,0,0,1,1.321-1.02A6.386,6.386,0,0,0,291.3,12.7a6.471,6.471,0,0,0-4.535,1.867A6.351,6.351,0,0,0,284.9,19.1V52.121h6.4V19.1A6.373,6.373,0,0,1,293.2,14.567Z" transform="translate(-217.544 -12.7)"/>
        <rect id="Rectangle_286" data-name="Rectangle 286" class="cls-3" width="40.961" height="12.195" transform="translate(38.603 45.269)"/>
        <path id="Path_1251" data-name="Path 1251" class="cls-5" d="M301.8,148.513v8.337a1.751,1.751,0,0,1-1.669,1.742l-5.88.274-13.953.6V145.9l19.833.871A1.717,1.717,0,0,1,301.8,148.513Z" transform="translate(-214.091 -112.751)"/>
        <path id="Path_1252" data-name="Path 1252" class="cls-3" d="M143.231,19.1l-.025,26.629L130.4,45.576V19.1a6.456,6.456,0,0,1,1.869-4.529A6.432,6.432,0,0,1,143.231,19.1Z" transform="translate(-101.539 -12.7)"/>
        <path id="Path_1253" data-name="Path 1253" class="cls-4" d="M136.728,45.576V19.1a6.423,6.423,0,0,1,3.189-5.55A6.386,6.386,0,0,0,136.7,12.7a6.471,6.471,0,0,0-4.535,1.867A6.351,6.351,0,0,0,130.3,19.1v26.48l12.806.149V45.65Z" transform="translate(-101.464 -12.7)"/>
        <path id="Path_1254" data-name="Path 1254" class="cls-5" d="M95.861,138,84.4,137.4l.523,16.251,10.539-.523.4-.025,13.953-1V142.95l.1-4.305Z" transform="translate(-67 -106.366)"/>
        <path id="Path_1255" data-name="Path 1255" class="cls-6" d="M95.462,146.658l-.822.05A9.555,9.555,0,0,1,84.6,137.5h-.2l.523,16.251,10.539-.548h.4l13.953-1v-6.52l-13.953,1Z" transform="translate(-67 -106.441)"/>
        <path id="Path_1256" data-name="Path 1256" class="cls-7" d="M34.582,128.453v14.111a3.307,3.307,0,0,1-1.445,2.738,11.824,11.824,0,1,1-6.627-21.6,11.756,11.756,0,0,1,6.6,2.016A3.3,3.3,0,0,1,34.582,128.453Z" transform="translate(-14.641 -96.076)"/>
        <g id="Group_863" data-name="Group 863" transform="translate(42.814 32.278)">
          <path id="Path_1257" data-name="Path 1257" class="cls-6" d="M300.133,165.417l-5.88.274-13.953.6v6.545l13.953-.6,5.88-.274a1.75,1.75,0,0,0,1.669-1.742V163.7A1.711,1.711,0,0,1,300.133,165.417Z" transform="translate(-256.904 -158.399)"/>
          <path id="Path_1258" data-name="Path 1258" class="cls-8" d="M186.4,146.705l.1-4.305h-.1Z" transform="translate(-186.4 -142.4)"/>
        </g>
        <path id="Path_1259" data-name="Path 1259" class="cls-9" d="M33.034,164.52A11.828,11.828,0,0,1,15.02,158a11.466,11.466,0,0,0-.448,3.733,11.886,11.886,0,0,0,11.013,11.348,11.749,11.749,0,0,0,7.45-2.016,3.277,3.277,0,0,0,1.445-2.738v-6.52A3.175,3.175,0,0,1,33.034,164.52Z" transform="translate(-14.562 -121.839)"/>
        <path id="Path_1260" data-name="Path 1260" class="cls-3" d="M188.228,132.626h0A6.44,6.44,0,0,1,181.8,126.2V111.721a6.44,6.44,0,0,1,6.428-6.421h0a6.44,6.44,0,0,1,6.428,6.421V126.2A6.424,6.424,0,0,1,188.228,132.626Z" transform="translate(-140.132 -82.255)"/>
        <path id="Path_1261" data-name="Path 1261" class="cls-4" d="M187.581,126.2V111.721a6.384,6.384,0,0,1,3.588-5.749,6.367,6.367,0,0,0-2.84-.672h0a6.44,6.44,0,0,0-6.428,6.421V126.2a6.44,6.44,0,0,0,6.428,6.421h0a6.367,6.367,0,0,0,2.84-.672A6.429,6.429,0,0,1,187.581,126.2Z" transform="translate(-140.207 -82.255)"/>
        <path id="Path_1262" data-name="Path 1262" class="cls-3" d="M239.728,132.626h0A6.44,6.44,0,0,1,233.3,126.2V111.721a6.44,6.44,0,0,1,6.428-6.421h0a6.44,6.44,0,0,1,6.428,6.421V126.2A6.424,6.424,0,0,1,239.728,132.626Z" transform="translate(-178.801 -82.255)"/>
        <path id="Path_1263" data-name="Path 1263" class="cls-4" d="M239.081,126.2V111.721a6.384,6.384,0,0,1,3.588-5.749,6.367,6.367,0,0,0-2.84-.672,6.44,6.44,0,0,0-6.428,6.421V126.2a6.44,6.44,0,0,0,6.428,6.421,6.367,6.367,0,0,0,2.84-.672A6.384,6.384,0,0,1,239.081,126.2Z" transform="translate(-178.876 -82.255)"/>
        <g id="Group_864" data-name="Group 864" transform="translate(29.459 37.106)">
          <rect id="Rectangle_287" data-name="Rectangle 287" class="cls-3" width="20.331" height="16.674" transform="translate(15.198 15.405)"/>
          <path id="Path_1264" data-name="Path 1264" class="cls-3" d="M170.5,172.029l-.349.523a9.817,9.817,0,0,1-.9,1.12,6.788,6.788,0,0,1-2.691,1.667v9.805h-9.792v3.385a.623.623,0,0,1-1.246,0v-3.459c0-4.43-1.769-7.715-5.133-9.507a13.194,13.194,0,0,0-5.805-1.468h-.05a.622.622,0,1,1,0-1.244H156.47a5.241,5.241,0,0,0,2.367-.548,5.68,5.68,0,0,0,1.495-1.07,5.445,5.445,0,0,0-2.641-9.158,6.561,6.561,0,0,0-1.171-.149L140.9,161.8a8.119,8.119,0,0,0-8.1,8.113V180.59a25.04,25.04,0,0,0,50.08,0v-9.183Z" transform="translate(-132.8 -161.8)"/>
        </g>
        <path id="Path_1265" data-name="Path 1265" class="cls-4" d="M140.6,180.79V170.113a8.13,8.13,0,0,1,7.176-8.063L141,162a8.119,8.119,0,0,0-8.1,8.113V180.79A25.046,25.046,0,0,0,161.8,205.5,25.051,25.051,0,0,1,140.6,180.79Z" transform="translate(-103.416 -124.844)"/>
      </g>
      <path id="Path_1266" data-name="Path 1266" class="cls-10" d="M86.631,34.792V26.529a1.954,1.954,0,0,0-1.844-1.991,1.929,1.929,0,0,0-1.968,1.916v8.163L73.4,34.195V8.511a4.782,4.782,0,0,1,4.36-4.8,4.532,4.532,0,0,1,2.018.3c.025,0,.025.025.05.025a4.726,4.726,0,0,1,2.99,4.38v8.561a1.954,1.954,0,0,0,1.844,1.991,1.929,1.929,0,0,0,1.968-1.916V8.412A8.508,8.508,0,0,0,86.083,5.4a9.909,9.909,0,0,0-3.737-3.982h0l-.374-.2h-.025A9.363,9.363,0,0,0,80.5.6l-.05-.025L79.928.423c-.025,0-.075-.025-.1-.025-.4-.1-.8-.174-1.171-.249-.05,0-.1-.025-.174-.025C78.334.1,78.184.1,78.01.075h-.15a1.647,1.647,0,0,0-.6-.075c-.274,0-.548.025-.822.025a8.545,8.545,0,0,0-6.877,8.362v16.7a8.527,8.527,0,0,0-11.336,1.742A8.574,8.574,0,0,0,51.6,23.667a8.467,8.467,0,0,0-4.709,1.419V8.412A8.55,8.55,0,0,0,40.562.174L40.188.1c-.05,0-.1-.025-.174-.025-.149-.025-.3-.025-.473-.05h-.149A5.425,5.425,0,0,0,38.768,0a9.8,9.8,0,0,0-2.94.448,11.353,11.353,0,0,0-1.794.747,3.751,3.751,0,0,0-.424.249,10.734,10.734,0,0,0-1.47,1.1,8.443,8.443,0,0,0-2.367,5.873V32.452l-6.079-.324a14.023,14.023,0,0,0-9.567-3.758A14.22,14.22,0,0,0,3.065,33.7,14.688,14.688,0,0,0,.473,39.1a1.4,1.4,0,0,0-.05.249,3.092,3.092,0,0,1-.1.4,1.248,1.248,0,0,0-.05.3v.05a1.679,1.679,0,0,0-.05.348c-.025.2-.075.423-.1.622,0,.075-.025.149-.025.224v.05c-.025.149-.025.3-.05.448a1.02,1.02,0,0,1-.025.274c0,.149-.025.324-.025.5v.274A14.133,14.133,0,0,0,14.127,56.667h.025a14.607,14.607,0,0,0,7.8-2.265l3.239-2.066,4.584-.224V59.6a28.333,28.333,0,0,0,9.891,21.5c.025.025.05.025.05.05a4.331,4.331,0,0,1,.374.324A28.635,28.635,0,0,0,56.608,87.95c.5.025,1,.05,1.52.05.274,0,.548,0,.872-.025h.174c.7-.025,1.42-.075,2.093-.149h.05a28.247,28.247,0,0,0,16.868-8.163A33.373,33.373,0,0,0,83.367,71.7a30.127,30.127,0,0,0,3.189-13.538v-5.1h.075V51.342l3.687-.174s3.463-.174,4.011-1.518h.025a1.6,1.6,0,0,0,.075-.5V47.932l5.556-.5a3.289,3.289,0,0,0,2.965-2.912H103V41.536a5,5,0,0,0-.523-2.215A3.243,3.243,0,0,0,100.01,37.8l-5.556-.5v-1.12a.846.846,0,0,0-.8-.846ZM20.58,50.545a10.3,10.3,0,1,1,0-16.077ZM60.121,32.2a4.709,4.709,0,0,1,9.418,0V47.21a4.719,4.719,0,0,1-4.709,4.7,4.4,4.4,0,0,1-2.043-.473A8.161,8.161,0,0,0,60.121,38.45V32.2Zm-13.255,0a4.709,4.709,0,0,1,9.418,0v5.55l-9.418-.075V32.2ZM33.636,8.412a4.726,4.726,0,0,1,2.99-4.38c.025,0,.025-.025.05-.025a4.725,4.725,0,0,1,6.378,4.4V33.124h0l-9.418-.473V8.412ZM29.8,48.231l-5.357.274V35.986l18.612.946v.7L40.836,37.6h-.1A10.932,10.932,0,0,0,29.8,48.231ZM82.794,59.554a24.591,24.591,0,0,1-49.183,0v-11A7.014,7.014,0,0,1,35.729,43.5a7.116,7.116,0,0,1,5.008-2.066h.05l16.021.124a4.355,4.355,0,0,1-.05,8.71H44.374a1.892,1.892,0,0,0-1.869,1.916,1.913,1.913,0,0,0,1.918,1.891h.1c.548,0,4.659.149,7.375,2.837,1.719,1.692,2.591,4.106,2.591,7.217v3.559a1.918,1.918,0,0,0,3.837,0V64.133c0-4.181-1.271-7.541-3.762-9.98a.344.344,0,0,0-.1-.075h2.292a8.162,8.162,0,0,0,2.492-.4,8.558,8.558,0,0,0,12.682-1.792l10.838-.5v8.163ZM90.567,47.21h0l-17.192.8V38l17.192.8Zm8.546-3.658-4.709.423V41.014l4.709.423Z" transform="translate(0)"/>
    </g>
  </g>
</svg>
