<svg xmlns="http://www.w3.org/2000/svg" xmlns:xlink="http://www.w3.org/1999/xlink" viewBox="1113 0 119 96">
  <defs>
    <style>
      .cls-1 {
        clip-path: url(#clip-Runing_account);
      }

      .cls-2 {
        fill: #f9bda0;
      }

      .cls-3 {
        fill: #f2ab8f;
      }

      .cls-4 {
        fill: #fff;
      }

      .cls-5 {
        fill: #cacaca;
      }

      .cls-6 {
        fill: #43ba8a;
      }

      .cls-7 {
        fill: #079b6d;
      }

      .cls-8 {
        fill: #333a4d;
      }
    </style>
    <clipPath id="clip-Runing_account">
      <rect x="1113" width="119" height="96"/>
    </clipPath>
  </defs>
  <g id="Runing_account" data-name="Runing account" class="cls-1">
    <rect class="cls-4" x="1113" width="119" height="96"/>
    <g id="Group_1042" data-name="Group 1042" transform="translate(978.001 -96)">
      <path id="Path_1585" data-name="Path 1585" class="cls-2" d="M122.29,58.211l2.324,3.944L103.185,74.241l-2.092-4.176L96.445,58.907,82.476,34.34a14.314,14.314,0,0,1-.442-13.362L88.542,8.219a.672.672,0,0,1,.7-.348l15.5,2.575a.684.684,0,0,1,.535.882l-5.671,16.8a2.459,2.459,0,0,0,.186,2.018L111.6,51.483l7,5.1Z" transform="translate(73.139 89.968)"/>
      <path id="Path_1586" data-name="Path 1586" class="cls-3" d="M105.974,59.278,92.006,34.711a14.314,14.314,0,0,1-.442-13.362L97.723,9.286,89.24,7.871a.655.655,0,0,0-.7.348L82.035,20.978a14.312,14.312,0,0,0,.442,13.362L96.445,58.907l4.648,11.158,2.092,4.176,7.3-4.129Z" transform="translate(73.139 89.968)"/>
      <path id="Path_1587" data-name="Path 1587" class="cls-4" d="M163.592,178.819l-3.719-1.624-7-5.1L148.9,164.9l-14.5,8.746,3.347,5.869,4.648,11.158,2.092,4.2,21.429-12.086Z" transform="translate(31.836 -30.64)"/>
      <path id="Path_1588" data-name="Path 1588" class="cls-5" d="M147.276,195.016,141.349,184.6l-6.949,4.176,3.347,5.869L142.4,205.8l2.092,4.2,7.321-4.129Z" transform="translate(31.836 -45.77)"/>
      <path id="Path_1589" data-name="Path 1589" class="cls-6" d="M113.335,225.164l10.412,17.329-21.824,14.754H66.2v-5.08a10.034,10.034,0,0,1,10.041-10.022H92.464L89.4,237.389a2.733,2.733,0,0,1,.744-3.735l2.231-1.531,1.418.58a3.015,3.015,0,0,0,2.673-.162l7.926-4.57a2.513,2.513,0,0,0,1.255-2.157V224a2.406,2.406,0,0,1,1.209-2.088l.953-.557a2.727,2.727,0,0,1,3.672.882Z" transform="translate(84.185 -73.714)"/>
      <path id="Path_1590" data-name="Path 1590" class="cls-7" d="M90.93,322.214a5.084,5.084,0,0,1-5.09-5.08h0a10,10,0,0,1,1.348-5.034H76.241A10.019,10.019,0,0,0,66.2,322.122v5.08h35.723l7.414-5.011-18.408.023Z" transform="translate(84.185 -143.693)"/>
      <g id="Group_1042-2" data-name="Group 1042" transform="translate(150.385 158.409)">
        <path id="Path_1591" data-name="Path 1591" class="cls-4" d="M79.564,312.1H76.241A10.019,10.019,0,0,0,66.2,322.122v5.08h9.2a4.152,4.152,0,0,0,4.16-4.153Z" transform="translate(-66.2 -302.102)"/>
        <path id="Path_1592" data-name="Path 1592" class="cls-4" d="M274.493,269h0a9.074,9.074,0,0,0-1.581,13.362l.93,1.114,6.6-4.593Z" transform="translate(-223.151 -269)"/>
      </g>
      <path id="Path_1593" data-name="Path 1593" class="cls-4" d="M120.214,310.533a3.508,3.508,0,0,1-.79,4.872L97.762,330.971a3.57,3.57,0,0,1-2.045.65H60.086a3.48,3.48,0,1,1,0-6.959H94.578l20.732-14.916A3.541,3.541,0,0,1,120.214,310.533Z" transform="translate(91.554 -141.383)"/>
      <path id="Path_1594" data-name="Path 1594" class="cls-8" d="M77.772,33.665a1.757,1.757,0,0,0,1.511.882,1.654,1.654,0,0,0,.86-.232,1.717,1.717,0,0,0,.651-2.366l-2.557-4.524a12.636,12.636,0,0,1-.4-11.738L84.559,2.51A1.746,1.746,0,0,0,81.444.932l-6.717,13.2a.023.023,0,0,1-.023.023,16.193,16.193,0,0,0,.488,14.986Z" transform="translate(78.889 96.025)"/>
      <path id="Path_1595" data-name="Path 1595" class="cls-8" d="M99.349,80.557a1.727,1.727,0,0,1-.023-2.459,1.741,1.741,0,0,0-2.487-2.436,5.251,5.251,0,0,0,.046,7.4,1.828,1.828,0,0,0,1.232.51,1.778,1.778,0,0,0,1.255-.51A1.8,1.8,0,0,0,99.349,80.557Z" transform="translate(61.82 38.299)"/>
      <path id="Path_1596" data-name="Path 1596" class="cls-8" d="M168.275,214.114a1.788,1.788,0,0,0,.837-.209,1.745,1.745,0,0,0,.674-2.366l-1.162-2.088a1.742,1.742,0,0,0-3.045,1.693l1.162,2.088A1.766,1.766,0,0,0,168.275,214.114Z" transform="translate(8.072 -64.173)"/>
      <path id="Path_1597" data-name="Path 1597" class="cls-8" d="M188.79,206.9a1.731,1.731,0,0,0,1.488.812,1.934,1.934,0,0,0,.93-.255,1.754,1.754,0,0,0,.558-2.413l-1.162-1.856a1.753,1.753,0,0,0-2.975,1.856Z" transform="translate(-8.818 -59.414)"/>
      <path id="Path_1598" data-name="Path 1598" class="cls-8" d="M62.15,60.9a4.462,4.462,0,0,0-4.021-2.065,1.414,1.414,0,0,0-.372-.371l-6.671-4.895-11.807-21.3,6.043-17.863a1.742,1.742,0,0,0-3.3-1.114l-5.88,17.4H32.516a1.74,1.74,0,1,0,0,3.48h3.858l7.042,12.736L32.028,54.1,28.82,48.463A1.738,1.738,0,0,0,25.8,50.18L33.05,62.939h0l4.184,10a4.439,4.439,0,0,0-.07,4.964l1.325,2.065H25.473A11.788,11.788,0,0,0,13.69,91.728v4.06a5.227,5.227,0,0,0-2.231,4.292,5.363,5.363,0,0,0,.3,1.74H1.743a1.74,1.74,0,1,0,0,3.48h91.3a1.74,1.74,0,1,0,0-3.48H58.826L77,88.735a5.19,5.19,0,0,0,2.115-3.41,5.1,5.1,0,0,0-.93-3.9,5.245,5.245,0,0,0-4.881-2.134L62.15,60.9m4.23,13.641,3.742,6.24L66.38,83.469l-.744-.974a5.876,5.876,0,0,1-1.139-4.57A6.089,6.089,0,0,1,66.38,74.538ZM36.188,61.524a1.377,1.377,0,0,0-.093-.186l-2.371-4.176L45.09,49.994,48.2,55.608a1.629,1.629,0,0,0,.488.557l5.857,4.292a4.169,4.169,0,0,0-1.441,3.155v1.809a.714.714,0,0,1-.372.65l-7.926,4.57a1.264,1.264,0,0,1-1.116.07l-1.418-.58a1.739,1.739,0,0,0-1.65.162l-.558.394ZM30.61,92.1l-.139-8.63h2.278v1.74a1.743,1.743,0,0,0,3.486,0v-1.74H38.4v1.74a1.743,1.743,0,0,0,3.486,0v-1.74h4.532a1.74,1.74,0,1,0,0-3.48H42.556L40,76.046a.944.944,0,0,1,.093-1.183,1.755,1.755,0,0,0,.325-.255l1.3-.882.535.232a4.793,4.793,0,0,0,4.207-.278l7.926-4.57A4.265,4.265,0,0,0,56.5,65.444V63.589a.683.683,0,0,1,.349-.58l.953-.557a1,1,0,0,1,1.325.325L64.5,71.546h0a9.371,9.371,0,0,0-1.673,13.107l.674.882L50.528,94.86H29.982a6.214,6.214,0,0,0,.628-2.714Zm-13.457-.371a8.3,8.3,0,0,1,8.3-8.282h1.534l.139,8.676A2.735,2.735,0,0,1,24.4,94.837H17.153Zm35.119,10.091H16.641a1.754,1.754,0,0,1-1.743-1.74,1.724,1.724,0,0,1,1.092-1.624.081.081,0,0,0,.046-.023,1.749,1.749,0,0,1,.6-.116H51.714l21.2-15.241a1.748,1.748,0,0,1,2.44.394,1.712,1.712,0,0,1,.3,1.3,1.738,1.738,0,0,1-.7,1.137L53.294,101.471A1.652,1.652,0,0,1,52.272,101.819Z" transform="translate(134.999 86.701)"/>
      <path id="Path_1599" data-name="Path 1599" class="cls-8" d="M443.4,398.8H426.643a1.74,1.74,0,1,0,0,3.48H443.4a1.74,1.74,0,1,0,0-3.48Z" transform="translate(-191.145 -210.28)"/>
      <path id="Path_1600" data-name="Path 1600" class="cls-8" d="M350.443,345.7a1.74,1.74,0,1,0,0,3.48H370.71a1.74,1.74,0,1,0,0-3.48Z" transform="translate(-132.655 -169.498)"/>
      <path id="Path_1601" data-name="Path 1601" class="cls-8" d="M472.765,345.7h-3.022a1.74,1.74,0,1,0,0,3.48h3.022a1.74,1.74,0,1,0,0-3.48Z" transform="translate(-224.228 -169.498)"/>
      <path id="Path_1602" data-name="Path 1602" class="cls-8" d="M331.443,259.98h10.715a1.74,1.74,0,1,0,0-3.48H331.443a1.74,1.74,0,1,0,0,3.48Z" transform="translate(-118.072 -99.98)"/>
      <path id="Path_1603" data-name="Path 1603" class="cls-8" d="M433.541,292.6h-14.9a1.74,1.74,0,1,0,0,3.48h14.9a1.74,1.74,0,1,0,0-3.48Z" transform="translate(-185.004 -128.08)"/>
      <path id="Path_1604" data-name="Path 1604" class="cls-8" d="M394.543,199.88H416.9a1.74,1.74,0,1,0,0-3.48H394.543a1.74,1.74,0,1,0,0,3.48Z" transform="translate(-166.506 -55.88)"/>
      <path id="Path_1605" data-name="Path 1605" class="cls-8" d="M292.343,199.88h5.811a1.74,1.74,0,1,0,0-3.48h-5.811a1.74,1.74,0,1,0,0,3.48Z" transform="translate(-88.059 -55.88)"/>
      <path id="Path_1606" data-name="Path 1606" class="cls-8" d="M29.843,214.88H38.7a1.74,1.74,0,1,0,0-3.48H29.843a1.74,1.74,0,1,0,0,3.48Z" transform="translate(113.43 -67.4)"/>
      <path id="Path_1607" data-name="Path 1607" class="cls-8" d="M66.1,264.24a1.739,1.739,0,0,0,1.743,1.74h7.926a1.74,1.74,0,1,0,0-3.48H67.843A1.754,1.754,0,0,0,66.1,264.24Z" transform="translate(84.262 -105.98)"/>
    </g>
  </g>
</svg>
