<svg xmlns="http://www.w3.org/2000/svg" xmlns:xlink="http://www.w3.org/1999/xlink" viewBox="917 0 96 96">
  <defs>
    <style>
      .cls-1 {
        clip-path: url(#clip-Testing_account);
      }

      .cls-2 {
        fill: #3aa2eb;
      }

      .cls-3 {
        fill: #ed6262;
      }

      .cls-4 {
        fill: #079b6d;
      }

      .cls-5 {
        fill: #cacaca;
      }

      .cls-6 {
        fill: #43ba8a;
      }

      .cls-7 {
        fill: none;
      }

      .cls-8 {
        fill: #333a4d;
      }

      .cls-9 {
        fill: #fff;
      }
    </style>
    <clipPath id="clip-Testing_account">
      <rect x="917" width="96" height="96"/>
    </clipPath>
  </defs>
  <g id="Testing_account" data-name="Testing account" class="cls-1">
    <rect class="cls-9" x="917" width="96" height="96"/>
    <g id="Group_1025" data-name="Group 1025" transform="translate(917)">
      <path id="Path_1556" data-name="Path 1556" class="cls-2" d="M424.726,357.39a5.151,5.151,0,0,0-3.155,3.155l-.271.774h4.2V357.1Z" transform="translate(-339.758 -287.984)"/>
      <path id="Path_1557" data-name="Path 1557" class="cls-3" d="M261.871,321.542a5.783,5.783,0,0,0,0,10.916l1.548.542V321Z" transform="translate(-208.065 -258.871)"/>
      <path id="Path_1558" data-name="Path 1558" class="cls-4" d="M51.548,305.461,50,304.9v12.019l1.548-.561a5.77,5.77,0,0,0,0-10.9Z" transform="translate(-40.323 -245.887)"/>
      <path id="Path_1559" data-name="Path 1559" class="cls-5" d="M99.355,184H8v6.194h92.9V184Z" transform="translate(-6.452 -148.387)"/>
      <path id="Path_1560" data-name="Path 1560" class="cls-5" d="M100.968,386H10v5.419h92.129V386Z" transform="translate(-8.065 -311.29)"/>
      <path id="Path_1561" data-name="Path 1561" class="cls-6" d="M57.1,410H42v7.355a8.9,8.9,0,1,0,17.806,0V410Z" transform="translate(-33.871 -330.645)"/>
      <path id="Path_1562" data-name="Path 1562" class="cls-6" d="M62.774,248.9a5.859,5.859,0,0,1-7.935-.077,12.682,12.682,0,0,0-3.194-2.148L50,245.9v10.8l.929.194a6.58,6.58,0,0,1,4.935,4.394,6.722,6.722,0,0,1,.329,2.071,6.588,6.588,0,0,1-5.265,6.445L50,270v2.265H64.71V247.216Z" transform="translate(-40.323 -198.306)"/>
      <path id="Path_1563" data-name="Path 1563" class="cls-3" d="M217.1,410H202v7.355a8.9,8.9,0,0,0,17.806,0V410Z" transform="translate(-162.903 -330.645)"/>
      <path id="Path_1564" data-name="Path 1564" class="cls-3" d="M220.91,283.513l-.058.058a5.1,5.1,0,0,1-3.465,1.49,5.271,5.271,0,0,1-3.465-1.49,12.6,12.6,0,0,0-3.794-2.4L208,280.3v20.071h12.445l-1.877-2.477a6.129,6.129,0,0,1-1.277-3.716,6.249,6.249,0,0,1,4.955-6.077l1.239-.252v-6.677Z" transform="translate(-167.742 -226.048)"/>
      <path id="Path_1565" data-name="Path 1565" class="cls-2" d="M383.89,235.419c-.019.019-.039.019-.058.039a4.574,4.574,0,0,0-1.335,1.529c-.155.252-.542.852-.7.89h-.039a3.209,3.209,0,0,1-1.045-.484,4.387,4.387,0,0,0-1.839-.735H378.7a5.028,5.028,0,0,0-1.761.445,3.413,3.413,0,0,1-1.045.31c-.039,0-.058,0-.077-.019-.174-.077-.426-.677-.581-1.006a4.445,4.445,0,0,0-1.064-1.684,4.257,4.257,0,0,0-1.8-.755l-.174-.039-1.2-.31v8.361l.774.155a6.776,6.776,0,0,1,0,13.277l-.774.155v6.581h8.11l.155-.774a6.746,6.746,0,0,1,5.284-5.284l.774-.155V234.587Z" transform="translate(-299.194 -188.387)"/>
      <path id="Path_1566" data-name="Path 1566" class="cls-2" d="M377.1,410H362v7.355a8.9,8.9,0,1,0,17.806,0V410Z" transform="translate(-291.936 -330.645)"/>
      <g id="Group_1041" data-name="Group 1041" transform="translate(5.032 22.065)">
        <path id="Path_1567" data-name="Path 1567" class="cls-5" d="M45.742,114H30.258a4.262,4.262,0,0,0-1.161,8.361v6.348H46.9v-6.348A4.262,4.262,0,0,0,45.742,114Z" transform="translate(-26 -114)"/>
        <path id="Path_1568" data-name="Path 1568" class="cls-5" d="M365.742,114H350.258a4.262,4.262,0,0,0-1.161,8.361v6.348H366.9v-6.348A4.262,4.262,0,0,0,365.742,114Z" transform="translate(-284.065 -114)"/>
        <path id="Path_1569" data-name="Path 1569" class="cls-5" d="M205.742,114H190.258a4.262,4.262,0,0,0-1.161,8.361v6.348H206.9v-6.348A4.262,4.262,0,0,0,205.742,114Z" transform="translate(-155.032 -114)"/>
      </g>
      <path id="Path_1570" data-name="Path 1570" class="cls-6" d="M63.29,5.1a4.046,4.046,0,0,0-.484.019L60.5,3.568A8.739,8.739,0,0,0,55.548,2a8.9,8.9,0,0,0-8.9,8.9,6.876,6.876,0,0,0,.058.89A7.35,7.35,0,0,0,49.355,26h6.194a7.309,7.309,0,0,0,6.1-3.271,8.353,8.353,0,0,0,1.645.174,8.9,8.9,0,0,0,0-17.806Z" transform="translate(-33.871 -1.613)"/>
      <path id="Path_1571" data-name="Path 1571" class="cls-2" d="M355.855,5.1a5.092,5.092,0,0,0-.639.039h-.077l-1.684.116A8.967,8.967,0,0,0,346.565,2a9.06,9.06,0,0,0-3.871.89L339.5,4.439l2.342,2.671a8.065,8.065,0,0,1-.31,10.994l-.7.716-.077.968v.019c0,.077-.019.213-.019.387A5.824,5.824,0,0,0,346.545,26a5.729,5.729,0,0,0,3.89-1.51A10.449,10.449,0,1,0,355.855,5.1Z" transform="translate(-273.79 -1.613)"/>
      <path id="Path_1572" data-name="Path 1572" class="cls-3" d="M199.919,2A10.429,10.429,0,0,0,192,5.619a10.467,10.467,0,0,0-3.871,2.3,8.855,8.855,0,0,0-16.1-1.355L171.1,8.232l1.258,1.432A6.659,6.659,0,0,1,173.984,14a6.786,6.786,0,0,1-.174,1.49l-.426,1.858,1.606,1.026a9.107,9.107,0,0,0,3.735,1.374A7.356,7.356,0,0,0,185.984,26c.252,0,.484-.019.735-.039L186.7,26h8.594a10.429,10.429,0,0,0,7.916-3.619A10.453,10.453,0,0,0,199.919,2Z" transform="translate(-137.984 -1.613)"/>
      <rect id="Rectangle_450" data-name="Rectangle 450" class="cls-7" width="12.387" height="29.419" transform="translate(26.323 43.355)"/>
      <rect id="Rectangle_451" data-name="Rectangle 451" class="cls-7" width="89.806" height="3.097" transform="translate(3.097 75.871)"/>
      <rect id="Rectangle_452" data-name="Rectangle 452" class="cls-7" width="89.806" height="3.097" transform="translate(3.097 37.161)"/>
      <rect id="Rectangle_453" data-name="Rectangle 453" class="cls-7" width="12.387" height="6.194" transform="translate(72.774 43.355)"/>
      <rect id="Rectangle_454" data-name="Rectangle 454" class="cls-7" width="12.387" height="29.419" transform="translate(57.29 43.355)"/>
      <path id="Path_1573" data-name="Path 1573" class="cls-2" d="M373.026,284.168,372,283.8v10.916l1.026-.368a5.389,5.389,0,0,0,0-10.181Z" transform="translate(-300 -228.871)"/>
      <rect id="Rectangle_455" data-name="Rectangle 455" class="cls-7" width="12.387" height="29.419" transform="translate(26.323 43.355)"/>
      <path id="Path_1574" data-name="Path 1574" class="cls-7" d="M376,428.645a6.194,6.194,0,1,0,12.387,0V424H376Z" transform="translate(-303.226 -341.935)"/>
      <rect id="Rectangle_456" data-name="Rectangle 456" class="cls-7" width="89.806" height="3.097" transform="translate(3.097 75.871)"/>
      <path id="Path_1575" data-name="Path 1575" class="cls-7" d="M267.1,338.21V329.5a4.61,4.61,0,0,0,0,8.71Z" transform="translate(-212.903 -265.726)"/>
      <path id="Path_1576" data-name="Path 1576" class="cls-7" d="M59.1,317.855A4.629,4.629,0,0,0,56,313.5v8.729A4.674,4.674,0,0,0,59.1,317.855Z" transform="translate(-45.161 -252.823)"/>
      <path id="Path_1577" data-name="Path 1577" class="cls-7" d="M222.194,248.774a7.763,7.763,0,0,1,6.194-7.587V224H216v29.419h7.781A7.651,7.651,0,0,1,222.194,248.774Z" transform="translate(-174.194 -180.645)"/>
      <path id="Path_1578" data-name="Path 1578" class="cls-7" d="M216,428.645a6.194,6.194,0,0,0,12.387,0V424H216Z" transform="translate(-174.194 -341.935)"/>
      <path id="Path_1579" data-name="Path 1579" class="cls-7" d="M56,428.645a6.194,6.194,0,0,0,12.387,0V424H56Z" transform="translate(-45.161 -341.935)"/>
      <path id="Path_1580" data-name="Path 1580" class="cls-7" d="M68.387,227.1V224H56v14.09a7.744,7.744,0,0,1,0,15.174v.155H68.387Z" transform="translate(-45.161 -180.645)"/>
      <path id="Path_1581" data-name="Path 1581" class="cls-7" d="M379.1,293.855A4.629,4.629,0,0,0,376,289.5v8.729A4.674,4.674,0,0,0,379.1,293.855Z" transform="translate(-303.226 -233.468)"/>
      <path id="Path_1582" data-name="Path 1582" class="cls-7" d="M388.387,247.381V224H376v9.445a7.744,7.744,0,0,1,0,15.174v4.8h6.348A7.8,7.8,0,0,1,388.387,247.381Z" transform="translate(-303.226 -180.645)"/>
      <rect id="Rectangle_457" data-name="Rectangle 457" class="cls-7" width="12.387" height="29.419" transform="translate(57.29 43.355)"/>
      <path id="Path_1583" data-name="Path 1583" class="cls-7" d="M428.306,364.306V361.5a4.633,4.633,0,0,0-2.806,2.806Z" transform="translate(-343.145 -291.532)"/>
      <path id="Path_1584" data-name="Path 1584" class="cls-8" d="M88.258,34.065V30.677a4.595,4.595,0,0,0,.7-8.381,10.835,10.835,0,0,0-6.89-19.2,11.609,11.609,0,0,0-2.168.232,9.242,9.242,0,0,0-12.31-1.723A10.793,10.793,0,0,0,53.806,3.677a11.033,11.033,0,0,0-3.445,1.974A9.3,9.3,0,0,0,33.968,4.3a9.324,9.324,0,0,0-4.548-1.2,5,5,0,0,0-.774.077A9.2,9.2,0,0,0,21.677,0a9.293,9.293,0,0,0-9.29,9.29c0,.213,0,.426.019.639a7.825,7.825,0,0,0-4.665,7.1,7.651,7.651,0,0,0,1.587,4.645H9.29a4.631,4.631,0,0,0-1.548,9v3.387H0v9.29H7.742V72.774H0v9.29H7.742V86.71a9.29,9.29,0,0,0,18.581,0V82.065H38.71V86.71a9.29,9.29,0,0,0,18.581,0V82.065H69.677V86.71a9.29,9.29,0,0,0,18.581,0V82.065H96v-9.29H88.258V43.355H96v-9.29ZM86.71,27.871H82.065v3.1h3.1v3.1H72.774v-3.1h6.194v-3.1H71.226a1.548,1.548,0,0,1,0-3.1H86.71a1.548,1.548,0,0,1,0,3.1ZM70.084,3.716a6.1,6.1,0,0,1,2.69-.619A6.212,6.212,0,0,1,78.968,9.29a6.13,6.13,0,0,1-1.239,3.716l2.477,1.858A9.194,9.194,0,0,0,82.065,9.29a9.481,9.481,0,0,0-.523-3.058,4.746,4.746,0,0,1,.523-.039,7.742,7.742,0,0,1,0,15.484,7.64,7.64,0,0,1-4.645-1.568l-1.239-.929-.929,1.239a3.087,3.087,0,0,1-5.574-1.839.658.658,0,0,1,.019-.194,10.785,10.785,0,0,0,.387-14.671ZM41.806,3.1a6.175,6.175,0,0,1,6.116,5.458,10.735,10.735,0,0,0-1.471,5.381h3.1A7.781,7.781,0,0,1,55.123,6.5l.465-.135.31-.387a7.749,7.749,0,0,1,13.781,4.858A7.781,7.781,0,0,1,64.1,18.271l-.465.135-.31.387a7.69,7.69,0,0,1-6.039,2.884H54.155a7.651,7.651,0,0,0,1.587-4.645h-3.1a4.645,4.645,0,0,1-9.29,0V15.484H41.806a6.069,6.069,0,0,1-3.348-1.006,9.36,9.36,0,0,0,.252-2.09,9.184,9.184,0,0,0-2.3-6.1A6.173,6.173,0,0,1,41.806,3.1ZM54.194,30.968v3.1H41.806v-3.1H48v-3.1H40.258a1.548,1.548,0,0,1,0-3.1H55.742a1.548,1.548,0,1,1,0,3.1H51.1v3.1Zm3.1-.29a4.629,4.629,0,0,0,3.1-4.355,4.759,4.759,0,0,0-.406-1.9A10.741,10.741,0,0,0,65.419,21.1a10.158,10.158,0,0,0,1.49-.639,5.98,5.98,0,0,0,1.355,2.323,4.607,4.607,0,0,0,1.432,7.9v3.387H57.31V30.677Zm-20.052-13.3a9.156,9.156,0,0,0,3.155,1.1,7.526,7.526,0,0,0,1.452,3.194H40.258a4.631,4.631,0,0,0-1.548,9v3.387H26.323V30.677a4.616,4.616,0,0,0,.91-8.284,7.577,7.577,0,0,0,.716-.852,7.706,7.706,0,0,0,1.471.135A9.274,9.274,0,0,0,37.239,17.381ZM14.477,12.5l1.51-.329-.348-1.529a5.71,5.71,0,0,1-.155-1.355,6.152,6.152,0,0,1,9.639-5.11,9.267,9.267,0,0,0-4.8,6.368l3.039.619a6.31,6.31,0,1,1,4.316,7.123l-1.258-.368-.581,1.161A4.6,4.6,0,0,1,21.7,21.677H15.484A4.642,4.642,0,0,1,14.477,12.5ZM9.29,24.774H24.774a1.548,1.548,0,1,1,0,3.1H20.129v3.1h3.1v3.1H10.839v-3.1h6.194v-3.1H9.29a1.548,1.548,0,1,1,0-3.1ZM23.226,86.71a6.194,6.194,0,0,1-12.387,0V82.065H23.226Zm30.968,0a6.194,6.194,0,0,1-12.387,0V82.065H54.194Zm30.968,0a6.194,6.194,0,0,1-12.387,0V82.065H85.161ZM92.9,75.871v3.1H3.1v-3.1ZM17.032,65.032a7.763,7.763,0,0,0-6.194-7.587V43.355H23.226V72.774H10.839v-.155A7.763,7.763,0,0,0,17.032,65.032Zm-6.194,4.355V60.658a4.624,4.624,0,0,1,0,8.729Zm15.484,3.387V43.355H38.71V72.774ZM48,68.129a7.651,7.651,0,0,0,1.587,4.645H41.806V43.355H54.194V60.542A7.763,7.763,0,0,0,48,68.129Zm6.194-4.355v8.71a4.61,4.61,0,0,1,0-8.71Zm3.1,9V43.355H69.677V72.774ZM78.968,60.387A7.763,7.763,0,0,0,72.774,52.8V43.355H85.161V66.735a7.773,7.773,0,0,0-6.039,6.039H72.774v-4.8A7.763,7.763,0,0,0,78.968,60.387Zm-6.194,4.355V56.013a4.624,4.624,0,0,1,0,8.729Zm12.387,5.226v2.806H82.355A4.586,4.586,0,0,1,85.161,69.968ZM92.9,40.258H3.1v-3.1H92.9v3.1Z"/>
    </g>
  </g>
</svg>
