<svg xmlns="http://www.w3.org/2000/svg" width="134.28" height="50" viewBox="0 0 134.28 50">
  <g id="Group_1136" data-name="Group 1136" transform="translate(-191.386 -470.986)">
    <path id="Path_1459" data-name="Path 1459" d="M393.13,491.22l-11.709,31.166h0a5.821,5.821,0,0,1-5.38-8.044l1.029-2.489-8.046-20.584a4.015,4.015,0,0,1,3.74-5.477h.009a4.016,4.016,0,0,1,3.8,2.707l4.556,13.216h.1l4.333-13.163a4.016,4.016,0,0,1,3.814-2.76h0A4.016,4.016,0,0,1,393.13,491.22Z" transform="translate(-67.724 -5.654)" fill="#fafafa"/>
    <path id="Path_1460" data-name="Path 1460" d="M211.974,475.23V481.7a14.217,14.217,0,1,0,0,25.418v1.508h0a8.209,8.209,0,0,0,8.21-8.209V475.23a4.1,4.1,0,0,0-4.105-4.1h0A4.1,4.1,0,0,0,211.974,475.23ZM205.6,500.59a6.181,6.181,0,1,1,6.181-6.181A6.188,6.188,0,0,1,205.6,500.59Z" transform="translate(0 -0.054)" fill="#fafafa"/>
    <rect id="Rectangle_477" data-name="Rectangle 477" width="8.209" height="28.228" rx="4.105" transform="translate(224.955 480.344)" fill="#fafafa"/>
    <path id="Path_1461" data-name="Path 1461" d="M278.6,485.792a14.216,14.216,0,0,0-8.092,25.9,5.459,5.459,0,0,0-4.848,5.3,5.668,5.668,0,0,0,5.34,5.8h11.288a2.076,2.076,0,0,1,2.029,2.115V526.6l1.655.035a5.454,5.454,0,1,0,.226-10.906H274.915a2.262,2.262,0,0,1-1.995-2.348v-.342a14.215,14.215,0,0,0,17.248-21.3,8.005,8.005,0,0,0,2.652-5.953Zm0,20.4a6.181,6.181,0,1,1,6.181-6.181A6.188,6.188,0,0,1,278.6,506.19Z" transform="translate(-27.875 -5.654)" fill="#fee100"/>
    <path id="Path_1462" data-name="Path 1462" d="M330.6,514.226a14.213,14.213,0,0,0,11.565-22.481,8.005,8.005,0,0,0,2.652-5.953H330.6a14.216,14.216,0,0,0-8.092,25.9,5.459,5.459,0,0,0-4.848,5.3,5.668,5.668,0,0,0,5.34,5.8h11.288a2.076,2.076,0,0,1,2.029,2.115V526.6l1.655.035a5.454,5.454,0,1,0,.226-10.906H326.915a2.262,2.262,0,0,1-1.995-2.348v-.342A14.162,14.162,0,0,0,330.6,514.226Zm0-20.4a6.181,6.181,0,1,1-6.181,6.181A6.188,6.188,0,0,1,330.6,493.828Z" transform="translate(-47.731 -5.654)" fill="#00adf2"/>
    <ellipse id="Ellipse_64" data-name="Ellipse 64" cx="4.105" cy="4.104" rx="4.105" ry="4.104" transform="translate(224.955 470.986)" fill="#06a149"/>
  </g>
</svg>
