<svg xmlns="http://www.w3.org/2000/svg" width="21.727" height="159.694" viewBox="0 0 21.727 159.694">
  <g id="Group_1559" data-name="Group 1559" transform="translate(-25.466 -17.972)">
    <path id="Path_1459" data-name="Path 1459" d="M387.142,489.887,378.309,513.4h0a4.392,4.392,0,0,1-4.059-6.069l.776-1.878-6.07-15.529a3.029,3.029,0,0,1,2.822-4.132h.007a3.03,3.03,0,0,1,2.867,2.042l3.437,9.97h.075l3.269-9.93a3.03,3.03,0,0,1,2.877-2.082h0a3.03,3.03,0,0,1,2.832,4.095Z" transform="translate(-341.773 -335.732)" fill="#fafafa"/>
    <path id="Path_1460" data-name="Path 1460" d="M206.918,474.223V479.1a10.726,10.726,0,1,0,0,19.176v1.138h0a6.193,6.193,0,0,0,6.194-6.194v-19a3.093,3.093,0,0,0-3.1-3.093h0a3.093,3.093,0,0,0-3.1,3.093Zm-4.809,19.132a4.663,4.663,0,1,1,4.663-4.663A4.663,4.663,0,0,1,202.109,493.355Z" transform="translate(-165.919 -453.158)" fill="#fafafa"/>
    <path id="Path_1461" data-name="Path 1461" d="M275.11,485.791a10.725,10.725,0,0,0-6.1,19.539,4.118,4.118,0,0,0-3.657,4,4.276,4.276,0,0,0,4.029,4.376h8.516a1.566,1.566,0,0,1,1.531,1.6v1.277l1.249.026a4.115,4.115,0,0,0,.17-8.228H272.33a1.706,1.706,0,0,1-1.505-1.771v-.258a10.724,10.724,0,0,0,13.012-16.069,6.039,6.039,0,0,0,2-4.491Zm0,15.39a4.663,4.663,0,1,1,4.663-4.663,4.663,4.663,0,0,1-4.663,4.663Z" transform="translate(-238.923 -404.646)" fill="#fee100"/>
    <path id="Path_1462" data-name="Path 1462" d="M327.11,507.243a10.723,10.723,0,0,0,8.725-16.96,6.039,6.039,0,0,0,2-4.491H327.11a10.725,10.725,0,0,0-6.1,19.539,4.118,4.118,0,0,0-3.657,4,4.276,4.276,0,0,0,4.029,4.376h8.516a1.566,1.566,0,0,1,1.531,1.6v1.277l1.249.026a4.115,4.115,0,1,0,.17-8.228H324.33a1.707,1.707,0,0,1-1.505-1.771v-.258A10.686,10.686,0,0,0,327.11,507.243Zm0-15.39a4.663,4.663,0,1,1-4.663,4.663,4.663,4.663,0,0,1,4.663-4.663Z" transform="translate(-290.923 -369.944)" fill="#00adf2"/>
    <g id="Group_1558" data-name="Group 1558" transform="translate(0 1)">
      <rect id="Rectangle_477" data-name="Rectangle 477" width="6.193" height="21.296" rx="3.097" transform="translate(33.765 55.65)" fill="#fafafa"/>
      <ellipse id="Ellipse_64" data-name="Ellipse 64" cx="3.097" cy="3.096" rx="3.097" ry="3.096" transform="translate(33.765 48.59)" fill="#06a149"/>
    </g>
  </g>
</svg>
