<svg id="Layer_1" data-name="Layer 1" xmlns="http://www.w3.org/2000/svg" viewBox="0 0 24 24"><defs><style>.cls-1{fill:#3e445c;}.cls-2{fill:#37b6e5;isolation:isolate;}</style></defs><title>Home</title><path class="cls-1" d="M20.66,23.62a1.14,1.14,0,0,0,.29-.83V9.07l1.11.83a1.25,1.25,0,0,0,.72.22,1.32,1.32,0,0,0,1-.48,1.31,1.31,0,0,0-.27-1.72L12.74.24A1.81,1.81,0,0,0,12,0H12a1.81,1.81,0,0,0-.71.24L.48,7.92A1.31,1.31,0,0,0,.21,9.64a1.32,1.32,0,0,0,1,.48,1.25,1.25,0,0,0,.72-.22l1.11-.83V22.79a1.14,1.14,0,0,0,.29.83,1.09,1.09,0,0,0,.79.38H19.87A1.09,1.09,0,0,0,20.66,23.62Z"/><path class="cls-2" d="M5.53,7.37V21.54H9.22V16.62a2.78,2.78,0,1,1,5.56,0v4.92h3.69V7.37L12,2.69Z"/></svg>/></svg>