<svg id="Layer_1" data-name="Layer 1" xmlns="http://www.w3.org/2000/svg" viewBox="0 0 16 16"><defs><style>.cls-1{fill:#3e445c;}</style></defs><title>search</title><g id="icon_search" data-name="icon search"><path id="icon_search-2" data-name="icon search-2" class="cls-1" d="M12.7,11.23a6.78,6.78,0,0,0,1.4-4.17A7,7,0,0,0,7.12,0h0A7.11,7.11,0,0,0,0,7.06a7.1,7.1,0,0,0,7.1,7.05,6.64,6.64,0,0,0,4.2-1.39l3,3a1,1,0,0,0,1.37,0l0,0a1,1,0,0,0,0-1.35l0,0ZM7.1,12A5,5,0,0,1,2,7.09v0a5.1,5.1,0,0,1,10.2,0,5,5,0,0,1-5.07,5h0Z"/></g></svg>