<svg viewBox="0 0 512 512" xmlns="http://www.w3.org/2000/svg" xmlns:xlink="http://www.w3.org/1999/xlink">
    <linearGradient id="a" gradientTransform="matrix(1 0 0 -1 0 -14446)" 
                       gradientUnits="userSpaceOnUse" x1="0" x2="512" y1="-14702" y2="-14702">
        <stop offset="0" stop-color="#00f1ff"/>
        <stop offset=".231" stop-color="#00d8ff"/>
        <stop offset=".5138" stop-color="#00c0ff"/>
        <stop offset=".7773" stop-color="#00b2ff"/>
        <stop offset="1" stop-color="#00adff"/>
    </linearGradient>
    <path d="m512 256c0 141.386719-114.613281 256-256 256s-256-114.613281-256-256 114.613281-256 256-256 256 114.613281 256 256zm0 0" fill="url(#a)"/>
    <g fill="#FEDE3B">
        <path d="m382.652344 105.785156h-253.304688c-22.523437 0-40.847656 18.324219-40.847656 40.847656v214.53125c0 29.652344 24.121094 53.773438 53.769531 53.773438h102.746094c8.285156 0 15-6.714844 15-15s-6.714844-15-15-15h-102.746094c-13.105469 0-23.769531-10.664062-23.769531-23.773438v-173.039062h275v57.375c0 8.28125 6.714844 15 15 15s15-6.71875 15-15v-98.867188c0-22.523437-18.324219-40.847656-40.847656-40.847656zm-52.339844 30c5.980469 0 10.847656 4.867188 10.847656 10.847656 0 5.980469-4.867187 10.847657-10.847656 10.847657s-10.847656-4.867188-10.847656-10.847657c0-5.980468 4.863281-10.847656 10.847656-10.847656zm62.542969 10.847656c0 5.980469-4.867188 10.847657-10.847657 10.847657-5.984374 0-10.851562-4.867188-10.851562-10.847657 0-5.980468 4.867188-10.847656 10.851562-10.847656 5.980469 0 10.847657 4.867188 10.847657 10.847656zm-274.355469 0c0-5.980468 4.867188-10.847656 10.847656-10.847656h161.589844c-.953125 3.457032-1.472656 7.089844-1.472656 10.847656 0 3.988282.585937 7.84375 1.65625 11.492188h-172.621094zm0 0"/>
        <path d="m395.058594 313.734375v-8.785156c0-22.164063-18.324219-40.191407-40.847656-40.191407-22.527344 0-40.851563 18.027344-40.851563 40.191407v8.789062c-16.125 2.835938-28.417969 16.933594-28.417969 33.859375v64.617188c0 8.285156 6.714844 15 15 15h108.558594c8.285156 0 15-6.714844 15-15v-64.617188c0-16.933594-12.304688-31.039062-28.441406-33.863281zm-40.847656-18.976563c5.980468 0 10.847656 4.570313 10.847656 10.191407v8.261719h-21.695313v-8.261719c0-5.621094 4.863281-10.191407 10.847657-10.191407zm39.289062 102.457032h-78.558594v-49.617188c0-2.417968 1.964844-4.386718 4.382813-4.386718h69.789062c2.417969 0 4.386719 1.96875 4.386719 4.386718zm0 0"/>
    </g>
</svg>