<svg id="Layer_1" data-name="Layer 1" xmlns="http://www.w3.org/2000/svg" viewBox="0 0 21 24"><defs><style>.cls-1{fill:#3e445c;}.cls-2{fill:#37b6e5;}</style></defs><title>Account Management</title><path class="cls-1" d="M18.67,5.71H16.33a5.83,5.83,0,0,0-11.66,0H2.33A2.3,2.3,0,0,0,0,8V21.71A2.32,2.32,0,0,0,2.33,24H18.67A2.32,2.32,0,0,0,21,21.71V8A2.32,2.32,0,0,0,18.67,5.71ZM10.49,2.28h0A3.45,3.45,0,0,1,14,5.7H7A3.45,3.45,0,0,1,10.49,2.28Z"/><rect class="cls-2" x="2.17" y="7.86" width="16.66" height="14" rx="2" ry="2"/><path class="cls-1" d="M10.5,12.55A3.5,3.5,0,0,1,7,9.05H4.67a5.77,5.77,0,0,0,5.83,5.71h0a5.77,5.77,0,0,0,5.83-5.71H14A3.5,3.5,0,0,1,10.5,12.55Z"/></svg>