<svg id="Layer_1" data-name="Layer 1" xmlns="http://www.w3.org/2000/svg" viewBox="0 0 16 16"><defs><style>.cls-1{fill:#37b6e5;}</style></defs><title>ACCOUNT HOVER</title><path id="ic_local_mall_24px" data-name="ic local mall 24px" class="cls-1" d="M13.44,3.81H11.89a3.89,3.89,0,0,0-7.78,0H2.56A1.53,1.53,0,0,0,1,5.33v9.14A1.56,1.56,0,0,0,2.56,16H13.44A1.56,1.56,0,0,0,15,14.47V5.33A1.54,1.54,0,0,0,13.44,3.81ZM8,1.52A2.31,2.31,0,0,1,10.33,3.8H5.67A2.3,2.3,0,0,1,8,1.52ZM8,9.14A3.85,3.85,0,0,1,4.11,5.33H5.67a2.33,2.33,0,0,0,4.66,0h1.56A3.85,3.85,0,0,1,8,9.14Z"/></svg>