<svg xmlns="http://www.w3.org/2000/svg" width="15.954" height="16.002" viewBox="0 0 15.954 16.002">
  <path id="Path_1769" data-name="Path 1769" d="M2.3,13.7A8.459,8.459,0,0,0,8,16a7.893,7.893,0,0,0,4.6-1.5,1.854,1.854,0,0,0,.7.2,1.367,1.367,0,0,0,1.4-1.4,1.445,1.445,0,0,0-.2-.7,8.055,8.055,0,0,0-.9-10.3A7.9,7.9,0,0,0,3.4,1.5,1.388,1.388,0,0,0,1.3,2.7a1.445,1.445,0,0,0,.2.7A8.042,8.042,0,0,0,2.3,13.7ZM8.5,1a7.4,7.4,0,0,1,4.2,1.7L11.3,4A5.025,5.025,0,0,0,8.5,2.8V1Zm0,2.8a4.69,4.69,0,0,1,2.2.9l-2,2a.1.1,0,0,1-.1-.1L8.5,3.8Zm0,5.5a1.591,1.591,0,0,0,.9-.9h2.9a4.254,4.254,0,0,1-3.7,3.8V9.3Zm0,3.8a5.225,5.225,0,0,0,4.7-4.7H15A5.782,5.782,0,0,1,13.8,12a1.385,1.385,0,0,0-1.9,1.3.9.9,0,0,0,.1.5A5.924,5.924,0,0,1,8.5,15ZM7.5,15A7.141,7.141,0,0,1,3,13,7.141,7.141,0,0,1,1,8.5H2.9a8.3,8.3,0,0,0,.6,2.1,1.388,1.388,0,0,0,.2,1.8,1.507,1.507,0,0,0,1.8.2,3.936,3.936,0,0,0,2.1.6L7.5,15Zm0-2.8A2.976,2.976,0,0,1,6,11.7a1.436,1.436,0,0,0-.3-1.4A1.817,1.817,0,0,0,4.3,10a2.976,2.976,0,0,1-.5-1.5H6.7a1.591,1.591,0,0,0,.9.9l-.1,2.8Zm0-5.5a1.085,1.085,0,0,0-.8.8H3.8A4.151,4.151,0,0,1,7.5,3.8ZM2.2,4a4.331,4.331,0,0,0,.5.1A1.367,1.367,0,0,0,4.1,2.7.9.9,0,0,0,4,2.2,5.707,5.707,0,0,1,7.5,1V2.9A5.128,5.128,0,0,0,2.8,7.5H1A5.707,5.707,0,0,1,2.2,4Z" transform="translate(0.002 0.002)" fill="#fff"/>
</svg>
