<svg id="Layer_1" data-name="Layer 1" xmlns="http://www.w3.org/2000/svg" viewBox="0 0 24 24"><defs><style>.cls-1{fill:#3e445c;}.cls-2{fill:#37b6e5;isolation:isolate;}</style></defs><title>HP Icon-01</title><path class="cls-1" d="M23.4,7.8,12.88.3A2,2,0,0,0,12,0a2.09,2.09,0,0,0-.9.3L.56,7.8a1.59,1.59,0,0,0-.3,2.1,1.59,1.59,0,0,0,2.1.3L3,9.75V22.5A1.43,1.43,0,0,0,4.29,24h15.2A1.41,1.41,0,0,0,21,22.67a.49.49,0,0,0,0-.17V9.75a2.1,2.1,0,0,0,1.5.75A1.41,1.41,0,0,0,24,9.17.49.49,0,0,0,24,9,1.84,1.84,0,0,0,23.4,7.8Z"/><path id="Path_1275" data-name="Path 1275" class="cls-2" d="M6,7.65V21H9V16.5a3,3,0,0,1,6,0V21h3V7.65L12,3.3Z"/></svg>