<svg id="Layer_1" data-name="Layer 1" xmlns="http://www.w3.org/2000/svg" viewBox="0 0 16 16">
    <defs>
        <style>
            .cls-1{fill:#37b6e5;}
        </style>
    </defs>
    <title>HP HOVER</title>
    <g id="icon_home" data-name="icon home">
        <path id="Path_357" data-name="Path 357" class="cls-1" d="M15.58,5.19l-7-5a1,1,0,0,0-1.16,0l-7,5A1,1,0,0,0,.19,6.58a1,1,0,0,0,1.39.23h0L2,6.51V15a1,1,0,0,0,1,1H13a1,1,0,0,0,1-1V6.51A1.73,1.73,0,0,0,15,7a1,1,0,0,0,.58-1.81ZM12,14H10V11a2,2,0,0,0-4,0v3H4V5.09L8,2.23l4,2.86Z"/>
    </g>
</svg>