<svg id="Layer_1" data-name="Layer 1" xmlns="http://www.w3.org/2000/svg" viewBox="0 0 16 16">
<defs>
    <style>.cls-1{fill:none;}.cls-2{fill:#9eb1c2;}</style>
</defs>
<title>IMPORT REG</title>
<rect class="cls-1" width="16" height="16"/>
<path id="ic_archive_24px" data-name="ic archive 24px" class="cls-2" d="M15.59,2,14.36.49a1.32,1.32,0,0,0-1-.49H2.67a1.32,1.32,0,0,0-1,.49L.41,2A1.75,1.75,0,0,0,0,3.11V14.22A1.78,1.78,0,0,0,1.78,16H14.22A1.78,1.78,0,0,0,16,14.22V3.11A1.75,1.75,0,0,0,15.59,2ZM8,12.89,3.11,8H6.22V6.22H9.78V8h3.11ZM1.88,1.78,2.6.89H13.27l.84.89Z"/></svg>