<svg id="Layer_1" data-name="Layer 1" xmlns="http://www.w3.org/2000/svg" viewBox="0 0 16 16"><defs><style>.cls-1{fill:none;}.cls-2{fill:#9eb1c2;}</style></defs><title>RURUNS REG</title><rect class="cls-1" width="16" height="16"/><path id="ic_alarm_on_24px" data-name="ic alarm on 24px" class="cls-2" d="M16,3.07,12.32,0l-1,1.22L15,4.28ZM4.7,1.22,3.68,0,0,3.06,1,4.27ZM8,1.7a7.15,7.15,0,1,0,7.2,7.15A7.15,7.15,0,0,0,8,1.7ZM8,14.41a5.56,5.56,0,1,1,5.6-5.56A5.56,5.56,0,0,1,8,14.41ZM6.83,10.07l-1.7-1.7-.85.85,2.54,2.52L11.62,7l-.84-.84Z"/></svg>