<svg id="Layer_1" data-name="Layer 1" xmlns="http://www.w3.org/2000/svg" viewBox="0 0 24 24"><defs><style>.cls-1{fill:none;}.cls-2{fill:#3e445c;}.cls-3{fill:#37b6e5;isolation:isolate;}</style></defs><title>Reruns</title><polygon class="cls-1" points="0.07 0 0 0 0 4.59 0.07 4.53 0.07 0"/><polygon class="cls-1" points="0 4.59 0 24 0.07 24 0.07 4.68 0 4.59"/><polygon class="cls-2" points="0.07 4.53 0 4.59 0.07 4.68 0.07 4.53"/><path class="cls-2" d="M12.23,3A10.5,10.5,0,1,0,22.8,13.5,10.5,10.5,0,0,0,12.23,3Z"/><path class="cls-3" d="M12.24,5.5a8,8,0,1,0,8.06,8A8,8,0,0,0,12.24,5.5Z"/><polygon class="cls-2" points="22.45 6.42 24 4.6 18.48 0 16.93 1.82 22.45 6.42"/><polygon class="cls-2" points="0.07 4.68 1.55 6.41 7.06 1.82 5.52 0 0.07 4.53 0.07 4.68"/><polygon class="cls-2" points="11.2 17.73 7.47 13.84 8.91 12.45 11.22 14.86 16.22 9.79 17.64 11.19 11.2 17.73"/></svg>