<svg id="Layer_1" data-name="Layer 1" xmlns="http://www.w3.org/2000/svg" viewBox="0 0 46.44 16.34">
    <defs>
        <style>.cls-1{fill:#37b6e5;}.cls-2{fill:#3a3a3a;}</style>
    </defs>
    <title>Reruns</title>
    <!-- <path class="cls-1" d="M7.05,7.62A2.34,2.34,0,0,1,4.67,5.33H3.11A3.85,3.85,0,0,0,7,9.14a3.85,3.85,0,0,0,3.89-3.81H9.33A2.33,2.33,0,0,1,7.05,7.62Z" transform="translate(32.44 0.34)"/>
    <path class="cls-2" d="M12.44,3.81H10.89a3.89,3.89,0,0,0-7.78,0H1.56A1.54,1.54,0,0,0,0,5.33v9.15A1.54,1.54,0,0,0,1.56,16H12.44A1.54,1.54,0,0,0,14,14.48V5.33A1.54,1.54,0,0,0,12.44,3.81ZM7,1.52H7A2.31,2.31,0,0,1,9.33,3.8H4.67A2.31,2.31,0,0,1,7,1.52ZM7,9.14A3.85,3.85,0,0,1,3.11,5.33H4.67a2.33,2.33,0,0,0,4.66,0h1.56A3.85,3.85,0,0,1,7,9.14Z" transform="translate(32.44 0.34)"/> -->

    <path class="cls-1" d="M-24.36,3A5.56,5.56,0,0,0-30,8.47a5.56,5.56,0,0,0,5.52,5.6h0a5.57,5.57,0,0,0,5.59-5.56A5.56,5.56,0,0,0-24.36,3Zm-1.26,8.45-2.54-2.53.85-.84,1.7,1.69,3.95-3.93.84.84Z" transform="translate(32.44 0.34)"/>
    <polygon class="cls-2" points="4.7 1.22 3.68 0 0 3.06 1.03 4.27 4.7 1.22"/><polygon class="cls-2" points="11.29 1.22 14.97 4.28 16 3.07 12.32 0 11.29 1.22"/><path class="cls-2" d="M-24.44,1.36a7.15,7.15,0,0,0-7.1,7.2,7.15,7.15,0,0,0,7.2,7.1,7.15,7.15,0,0,0,7.1-7.15A7.18,7.18,0,0,0-24.44,1.36Zm0,12.71h0A5.56,5.56,0,0,1-30,8.47,5.56,5.56,0,0,1-24.36,3a5.56,5.56,0,0,1,5.52,5.56A5.57,5.57,0,0,1-24.43,14.07Z" transform="translate(32.44 0.34)"/>
    <polygon class="cls-2" points="6.83 10.07 5.13 8.37 4.28 9.22 6.82 11.74 11.62 6.97 10.78 6.13 6.83 10.07"/>
</svg>