<svg id="Layer_1" data-name="Layer 1" xmlns="http://www.w3.org/2000/svg" viewBox="0 0 20 20">
<defs>
    <style>.cls-show-config{fill:#3E445C}</style>
</defs>
<path class="cls-show-config" d="M19.13,9l-1.87-.31-.09-.39a7,7,0,0,0-.62-1.64l-.18-.36,1.18-1.53a1,1,0,0,0-.09-1.36,1,1,0,0,0-1.3-.15l-1.59,1L14.24,4a7.49,7.49,0,0,0-2.46-1.1l-.39-.1L11,.84A1,1,0,0,0,9,.88l-.31,1.9-.39.09a7.73,7.73,0,0,0-2.06.85l-.35.22L4.3,2.87A1.06,1.06,0,0,0,2.94,3a1.05,1.05,0,0,0-.08,1.31L4,5.86l-.21.34a7.17,7.17,0,0,0-.85,2l-.1.4L.84,9a1,1,0,0,0,0,2.06l1.91.31.1.38a7.13,7.13,0,0,0,.65,1.71l.19.36L2.55,15.34a1.06,1.06,0,0,0,.09,1.37,1,1,0,0,0,1.3.15l1.62-1,.33.22a7.11,7.11,0,0,0,2.38,1.06l.39.09L9,19a1.14,1.14,0,0,0,.84,1L10,20h.11a1,1,0,0,0,.27-.06.91.91,0,0,0,.26-.13,1,1,0,0,0,.45-.68l.33-1.91.38-.09a7.44,7.44,0,0,0,2-.84l.35-.21,1.63,1.11a1,1,0,0,0,1.44-1.47l-1.13-1.58.21-.34a7,7,0,0,0,.85-2.06l.1-.38L19.16,11A1.06,1.06,0,0,0,20,9.92,1,1,0,0,0,19.13,9ZM13.3,13.23a4.63,4.63,0,0,1-4.5,1.19,4.59,4.59,0,0,1,1.25-9,4.82,4.82,0,0,1,1.25.16,4.58,4.58,0,0,1,2,7.65Z"/>
</svg>