<svg aria-hidden="true" style="position: absolute; width: 0; height: 0; overflow: hidden;" version="1.1" xmlns="http://www.w3.org/2000/svg" xmlns:xlink="http://www.w3.org/1999/xlink">
<defs>
<symbol id="reruns" viewBox="0 0 32 32">
<title>reruns</title>
<path d="M32 6.14l-7.36-6.14-2 2.42 7.36 6.14zM9.4 2.42l-2.040-2.42-7.36 6.12 2 2.42zM16 3.4c-7.855 0.057-14.2 6.437-14.2 14.3 0 7.898 6.402 14.3 14.3 14.3s14.3-6.402 14.3-14.3v-0c0-0 0-0 0-0 0-7.898-6.402-14.3-14.3-14.3-0.035 0-0.070 0-0.105 0l0.005-0zM16 28.82c-6.107-0.045-11.040-5.006-11.040-11.12 0-6.141 4.979-11.12 11.12-11.12s11.12 4.978 11.12 11.12v0c0 0 0 0 0 0 0 6.141-4.979 11.12-11.12 11.12-0.028 0-0.056-0-0.084-0l0.004 0zM13.66 20.14l-3.4-3.4-1.7 1.7 5.080 5.040 9.6-9.48-1.68-1.68z"></path>
</symbol>
<symbol id="home" viewBox="0 0 32 32">
<title>home</title>
<path d="M31.16 10.38l-14-10c-0.322-0.232-0.725-0.371-1.16-0.371s-0.838 0.139-1.166 0.375l0.006-0.004-14 10c-0.505 0.368-0.83 0.957-0.83 1.622 0 0.434 0.138 0.836 0.374 1.164l-0.004-0.006c0.368 0.505 0.957 0.83 1.622 0.83 0.434 0 0.836-0.138 1.164-0.374l-0.006 0.004 0.84-0.6v16.98c0 1.105 0.895 2 2 2v0h20c1.105 0 2-0.895 2-2v0-16.98c0.523 0.521 1.213 0.876 1.982 0.978l0.018 0.002c1.099-0.007 1.987-0.9 1.987-2 0-0.664-0.324-1.252-0.822-1.616l-0.006-0.004zM24 28h-4v-6c0-2.209-1.791-4-4-4s-4 1.791-4 4v0 6h-4v-17.82l8-5.72 8 5.72z"></path>
</symbol>
<symbol id="acnt-mngmt" viewBox="0 0 32 32">
<title>acnt-mngmt</title>
<path d="M26.88 7.62h-3.1c0-4.297-3.483-7.78-7.78-7.78s-7.78 3.483-7.78 7.78h-3.1c-0.018-0-0.039-0.001-0.060-0.001-1.683 0-3.049 1.359-3.060 3.040v18.281c0.034 1.697 1.417 3.060 3.119 3.060 0 0 0 0 0.001 0h21.76c0 0 0 0 0.001 0 1.702 0 3.086-1.363 3.119-3.057l0-0.003v-18.28c-0.022-1.684-1.393-3.040-3.080-3.040-0.014 0-0.028 0-0.042 0l0.002-0zM16 3.040c0.012-0 0.026-0 0.040-0 2.531 0 4.586 2.034 4.62 4.557l0 0.003h-9.32c0.022-2.523 2.073-4.56 4.6-4.56 0.021 0 0.042 0 0.063 0l-0.003-0zM16 18.28c-0.024 0-0.052 0-0.080 0-4.225 0-7.655-3.402-7.7-7.616l-0-0.004h3.12c0 2.574 2.086 4.66 4.66 4.66s4.66-2.086 4.66-4.66v0h3.12c-0.045 4.218-3.475 7.62-7.7 7.62-0.028 0-0.056-0-0.085-0l0.004 0z"></path>
</symbol>
<!-- <symbol id="import" viewBox="0 0 16 16">
<title>import</title>
 <path d="M15.59,2,14.36.49a1.32,1.32,0,0,0-1-.49H2.67a1.32,1.32,0,0,0-1,.49L.41,2A1.75,1.75,0,0,0,0,3.11V14.22A1.78,1.78,0,0,0,1.78,16H14.22A1.78,1.78,0,0,0,16,14.22V3.11A1.75,1.75,0,0,0,15.59,2ZM8,12.89,3.11,8H6.22V6.22H9.78V8h3.11ZM1.88,1.78,2.6.89H13.27l.84.89Z"/></svg>
</symbol> -->
<symbol id="admin" viewBox="0 0 1792 1792">
<title>admin</title>
<path d="M576 1344q0 26-19 45t-45 19-45-19-19-45 19-45 45-19 45 19 19 45zm1024 61q0 121-73 190t-194 69h-874q-121 0-194-69t-73-190q0-68 5.5-131t24-138 47.5-132.5 81-103 120-60.5q-22 52-22 120v203q-58 20-93 70t-35 111q0 80 56 136t136 56 136-56 56-136q0-61-35.5-111t-92.5-70v-203q0-62 25-93 132 104 295 104t295-104q25 31 25 93v64q-106 0-181 75t-75 181v89q-32 29-32 71 0 40 28 68t68 28 68-28 28-68q0-42-32-71v-89q0-52 38-90t90-38 90 38 38 90v89q-32 29-32 71 0 40 28 68t68 28 68-28 28-68q0-42-32-71v-89q0-68-34.5-127.5t-93.5-93.5q0-10 .5-42.5t0-48-2.5-41.5-7-47-13-40q68 15 120 60.5t81 103 47.5 132.5 24 138 5.5 131zm-320-893q0 159-112.5 271.5t-271.5 112.5-271.5-112.5-112.5-271.5 112.5-271.5 271.5-112.5 271.5 112.5 112.5 271.5z"></path>
</symbol>
<symbol id="add-account" viewBox="0 0 1792 1792">
<title>add-account</title>
<path d="M1408 960v-128q0-26-19-45t-45-19h-320v-320q0-26-19-45t-45-19h-128q-26 0-45 19t-19 45v320h-320q-26 0-45 19t-19 45v128q0 26 19 45t45 19h320v320q0 26 19 45t45 19h128q26 0 45-19t19-45v-320h320q26 0 45-19t19-45zm256-544v960q0 119-84.5 203.5t-203.5 84.5h-960q-119 0-203.5-84.5t-84.5-203.5v-960q0-119 84.5-203.5t203.5-84.5h960q119 0 203.5 84.5t84.5 203.5z"></path>
</symbol>
<symbol id="remove-account" viewBox="0 0 1792 1792">
<title>remove-account</title>
<path d="M1408 960v-128q0-26-19-45t-45-19h-896q-26 0-45 19t-19 45v128q0 26 19 45t45 19h896q26 0 45-19t19-45zm256-544v960q0 119-84.5 203.5t-203.5 84.5h-960q-119 0-203.5-84.5t-84.5-203.5v-960q0-119 84.5-203.5t203.5-84.5h960q119 0 203.5 84.5t84.5 203.5z"></path>
</symbol>
<symbol id="edit-account" viewBox="0 0 1792 1792">
    <title>edit-account</title>
    <!-- <path d="M192 1664h288v-288h-288v288zm352 0h320v-288h-320v288zm-352-352h288v-320h-288v320zm352 0h320v-320h-320v320zm-352-384h288v-288h-288v288zm736 736h320v-288h-320v288zm-384-736h320v-288h-320v288zm768 736h288v-288h-288v288zm-384-352h320v-320h-320v320zm-352-864v-288q0-13-9.5-22.5t-22.5-9.5h-64q-13 0-22.5 9.5t-9.5 22.5v288q0 13 9.5 22.5t22.5 9.5h64q13 0 22.5-9.5t9.5-22.5zm736 864h288v-320h-288v320zm-384-384h320v-288h-320v288zm384 0h288v-288h-288v288zm32-480v-288q0-13-9.5-22.5t-22.5-9.5h-64q-13 0-22.5 9.5t-9.5 22.5v288q0 13 9.5 22.5t22.5 9.5h64q13 0 22.5-9.5t9.5-22.5zm384-64v1280q0 52-38 90t-90 38h-1408q-52 0-90-38t-38-90v-1280q0-52 38-90t90-38h128v-96q0-66 47-113t113-47h64q66 0 113 47t47 113v96h384v-96q0-66 47-113t113-47h64q66 0 113 47t47 113v96h128q52 0 90 38t38 90z"></path> -->
    <path d="M888 1184l116-116-152-152-116 116v56h96v96h56zm440-720q-16-16-33 1l-350 350q-17 17-1 33t33-1l350-350q17-17 1-33zm80 594v190q0 119-84.5 203.5t-203.5 84.5h-832q-119 0-203.5-84.5t-84.5-203.5v-832q0-119 84.5-203.5t203.5-84.5h832q63 0 117 25 15 7 18 23 3 17-9 29l-49 49q-14 14-32 8-23-6-45-6h-832q-66 0-113 47t-47 113v832q0 66 47 113t113 47h832q66 0 113-47t47-113v-126q0-13 9-22l64-64q15-15 35-7t20 29zm-96-738l288 288-672 672h-288v-288zm444 132l-92 92-288-288 92-92q28-28 68-28t68 28l152 152q28 28 28 68t-28 68z"></path>
</symbol>
<symbol id="change-record-type" viewBox="0 0 16 16">
<title>change-record-type</title>
<path d="M15.515,6.975l-1.84-1.84c-.8-.8-.32-1.6.56-1.6a1.6,1.6,0,0,0,1.04-2.8,1.6,1.6,0,0,0-2.8,1.04c-.08.88-.88,1.28-1.68.56L8.955.495a1.4,1.4,0,0,0-2,0l-1.84,1.84c-.8.8-1.6.32-1.68-.56A1.6,1.6,0,0,0,.635.735a1.6,1.6,0,0,0,1.04,2.8c.88.08,1.36.88.56,1.68L.395,6.975a1.4,1.4,0,0,0,0,2l1.84,1.84c.8.8.32,1.6-.56,1.6a1.6,1.6,0,0,0-1.04,2.8,1.6,1.6,0,0,0,2.8-1.04.879.879,0,0,1,1.6-.56l1.84,1.84a1.4,1.4,0,0,0,2,0l1.84-1.84c.72-.8.24-1.6-.56-1.6a1.6,1.6,0,0,1-1.04-2.8,1.6,1.6,0,0,1,2.8,1.04.89.89,0,0,0,1.6.56l.48-.48,1.36-1.36h0a1.29,1.29,0,0,0,.16-2Zm0,0" transform="translate(0.005 -0.015)"/>
</symbol>
<symbol id="change-mapping" viewBox="0 0 16 16">
<title>change-mapping</title>
     <path d="M2.3,13.7A8.459,8.459,0,0,0,8,16a7.893,7.893,0,0,0,4.6-1.5,1.854,1.854,0,0,0,.7.2,1.367,1.367,0,0,0,1.4-1.4,1.445,1.445,0,0,0-.2-.7,8.055,8.055,0,0,0-.9-10.3A7.9,7.9,0,0,0,3.4,1.5,1.388,1.388,0,0,0,1.3,2.7a1.445,1.445,0,0,0,.2.7A8.042,8.042,0,0,0,2.3,13.7ZM8.5,1a7.4,7.4,0,0,1,4.2,1.7L11.3,4A5.025,5.025,0,0,0,8.5,2.8V1Zm0,2.8a4.69,4.69,0,0,1,2.2.9l-2,2a.1.1,0,0,1-.1-.1L8.5,3.8Zm0,5.5a1.591,1.591,0,0,0,.9-.9h2.9a4.254,4.254,0,0,1-3.7,3.8V9.3Zm0,3.8a5.225,5.225,0,0,0,4.7-4.7H15A5.782,5.782,0,0,1,13.8,12a1.385,1.385,0,0,0-1.9,1.3.9.9,0,0,0,.1.5A5.924,5.924,0,0,1,8.5,15ZM7.5,15A7.141,7.141,0,0,1,3,13,7.141,7.141,0,0,1,1,8.5H2.9a8.3,8.3,0,0,0,.6,2.1,1.388,1.388,0,0,0,.2,1.8,1.507,1.507,0,0,0,1.8.2,3.936,3.936,0,0,0,2.1.6L7.5,15Zm0-2.8A2.976,2.976,0,0,1,6,11.7a1.436,1.436,0,0,0-.3-1.4A1.817,1.817,0,0,0,4.3,10a2.976,2.976,0,0,1-.5-1.5H6.7a1.591,1.591,0,0,0,.9.9l-.1,2.8Zm0-5.5a1.085,1.085,0,0,0-.8.8H3.8A4.151,4.151,0,0,1,7.5,3.8ZM2.2,4a4.331,4.331,0,0,0,.5.1A1.367,1.367,0,0,0,4.1,2.7.9.9,0,0,0,4,2.2,5.707,5.707,0,0,1,7.5,1V2.9A5.128,5.128,0,0,0,2.8,7.5H1A5.707,5.707,0,0,1,2.2,4Z" transform="translate(0.002 0.002)"/>
</symbol>
<symbol id="setting" viewBox="0 0 1792 1792">
<title>setting</title>
<path d="M448 1472q0-26-19-45t-45-19-45 19-19 45 19 45 45 19 45-19 19-45zm644-420l-682 682q-37 37-90 37-52 0-91-37l-106-108q-38-36-38-90 0-53 38-91l681-681q39 98 114.5 173.5t173.5 114.5zm634-435q0 39-23 106-47 134-164.5 217.5t-258.5 83.5q-185 0-316.5-131.5t-131.5-316.5 131.5-316.5 316.5-131.5q58 0 121.5 16.5t107.5 46.5q16 11 16 28t-16 28l-293 169v224l193 107q5-3 79-48.5t135.5-81 70.5-35.5q15 0 23.5 10t8.5 25z"></path>
</symbol>
<symbol id="config" viewBox="0 0 1792 1792">
<title>config</title>
<path d="M813 1299l614-614q19-19 19-45t-19-45l-102-102q-19-19-45-19t-45 19l-467 467-211-211q-19-19-45-19t-45 19l-102 102q-19 19-19 45t19 45l358 358q19 19 45 19t45-19zm851-883v960q0 119-84.5 203.5t-203.5 84.5h-960q-119 0-203.5-84.5t-84.5-203.5v-960q0-119 84.5-203.5t203.5-84.5h960q119 0 203.5 84.5t84.5 203.5z"></path>
</symbol>
<symbol id="logs" viewBox="0 0 1792 1792">
<title>logs</title>
<path d="M1152 512v-472q22 14 36 28l408 408q14 14 28 36h-472zm-128 32q0 40 28 68t68 28h544v1056q0 40-28 68t-68 28h-1344q-40 0-68-28t-28-68v-1600q0-40 28-68t68-28h800v544z"></path>
</symbol>
<symbol id="import" viewBox="0 0 16 16">
<title>import</title>
 <path d="M15.59,2,14.36.49a1.32,1.32,0,0,0-1-.49H2.67a1.32,1.32,0,0,0-1,.49L.41,2A1.75,1.75,0,0,0,0,3.11V14.22A1.78,1.78,0,0,0,1.78,16H14.22A1.78,1.78,0,0,0,16,14.22V3.11A1.75,1.75,0,0,0,15.59,2ZM8,12.89,3.11,8H6.22V6.22H9.78V8h3.11ZM1.88,1.78,2.6.89H13.27l.84.89Z"/>
</symbol>
<symbol id="user-management" x="0px" y="0px" viewBox="0 0 1000 1000">
<title>user-management</title>
 <path d="M683.7,500c8.3,0,16.7,0.6,26.1,1.8l7.3,21.9l5,14.9l15,4.6c10.3,3.2,20.3,7.4,29.8,12.3l13.9,7.3l14-7l20.6-10.3c13.8,10.8,26.2,23.2,37.1,37l-10.3,20.6l-7,14l7.2,13.8c5,9.7,9.2,19.8,12.4,30l4.7,15l14.9,5l22,7.3c1.2,9.4,1.8,17.9,1.7,25.8v0.1v0.1c0,8.1-0.6,16.8-1.8,26.2l-22,7.3l-15,5.1l-4.6,15.1c-3.1,10.2-7.2,20.2-12.2,29.6l-7.4,13.9l7,14.1l10.3,20.7c-5.7,7.5-11.4,14-17.2,19.8l0,0l0,0c-5.8,5.8-12.2,11.5-19.7,17.2l-20.7-10.3l-14-7L767,873c-9.7,5-19.8,9.2-29.9,12.4l-15,4.7l-4.9,14.8l-7.3,22c-9.4,1.2-18,1.8-26.2,1.8c-8.1,0-16.7-0.6-26.2-1.8l-7.3-22l-4.9-15l-15.1-4.6c-10.2-3.2-20.2-7.2-29.6-12.2l-13.9-7.4l-14.1,7L552,883.1c-7.4-5.7-13.9-11.4-19.7-17.2c-5.9-5.9-11.6-12.4-17.2-19.8l10.3-20.6l7-14l-7.3-13.9c-5-9.6-9.2-19.6-12.3-29.7l-4.6-15.1l-14.9-5l-22-7.3c-1.2-9.4-1.8-18-1.8-26.2c0-8.1,0.6-16.8,1.8-26.2l21.9-7.3l14.9-5l4.6-15c3.2-10.3,7.4-20.3,12.3-29.8l7.3-13.9l-7-14l-10.3-20.7c10.8-13.8,23.2-26.2,37-37l20.6,10.3l14.1,7l13.9-7.3c9.4-4.9,19.4-9.1,29.8-12.3l15-4.7l5-14.9l7.3-22C667.1,500.6,675.6,500,683.7,500L683.7,500z M683.8,438.8c-13.9,0-27.8,1.3-43.7,3.8l-11.8,1.9l-14.9,44.7c-13.6,4.3-26.8,9.6-39.3,16.3l-42.1-21.1l-9.7,7c-23.8,17.2-44.5,38-61.8,61.7l-7,9.7l21.1,42.1c-6.6,12.5-12,25.7-16.3,39.3l-44.6,14.8l-1.9,11.8c-2.5,15.9-3.8,30.1-3.8,43.7c0,13.5,1.2,27.8,3.8,43.7l1.9,11.8l44.6,14.9c4.2,13.6,9.6,26.8,16.3,39.3L453.7,866l7,9.7c9.3,12.9,18.6,23.8,28.2,33.5c9.7,9.7,20.6,18.9,33.4,28.3l9.7,7l42.1-21c12.5,6.6,25.6,12.1,39.3,16.3l14.9,44.7l11.8,1.9c15.9,2.5,30.2,3.8,43.7,3.8s27.8-1.2,43.7-3.8l11.8-1.9l14.9-44.7c13.6-4.3,26.8-9.7,39.3-16.3l42.1,21l9.7-7c12.9-9.3,23.8-18.5,33.4-28.3c9.7-9.7,18.9-20.6,28.2-33.5l7-9.7l-21.1-42.1c6.6-12.5,12.1-25.7,16.3-39.3l44.6-14.9l1.9-11.8c2.5-15.9,3.8-30.1,3.8-43.7c0.1-13.5-1.1-27.7-3.7-43.6l-1.9-11.8l-44.6-14.9c-4.3-13.6-9.7-26.8-16.3-39.3l21.1-42.1l-7-9.7c-17.3-23.7-38.1-44.5-61.9-61.7l-9.7-7l-42.1,21c-12.5-6.6-25.6-12-39.3-16.3l-14.9-44.5l-11.7-1.8C711.6,440,697.7,438.8,683.8,438.8L683.8,438.8L683.8,438.8z"/><path d="M683.8,683.7c8.2,0,15.9,3.2,21.7,9c5.8,5.8,9,13.5,9,21.7c0,8.2-3.2,15.9-9,21.7s-13.5,9-21.7,9c-8.2,0-15.9-3.2-21.7-9c-5.8-5.8-9-13.5-9-21.7c0-8.2,3.2-15.9,9-21.7C667.9,686.9,675.6,683.7,683.8,683.7L683.8,683.7z M683.8,622.5c-50.7,0-91.9,41.2-91.9,91.9c0,50.7,41.1,91.9,91.9,91.9s91.9-41.2,91.9-91.9C775.6,663.6,734.5,622.5,683.8,622.5L683.8,622.5L683.8,622.5z"/><path d="M472.3,465.5c71.6-42.8,119.6-121,119.6-210.5c0-135.3-109.7-245-245-245s-245,109.7-245,245c0,89.5,48,167.8,119.6,210.5C114.9,513.4,40.6,620.5,40.6,745v214.4c0,16.9,13.7,30.6,30.6,30.6c16.9,0,30.6-13.7,30.6-30.6V745c0-135.3,109.7-245,245-245c46.5,0,89.9,12.9,126.9,35.4h96.4C542.7,506.1,509.4,482.2,472.3,465.5z M163.1,255c0-101.5,82.3-183.7,183.7-183.7c101.5,0,183.8,82.3,183.8,183.7c0,101.5-82.3,183.8-183.8,183.8C245.4,438.8,163.1,356.5,163.1,255z"/>
</symbol>
</defs>
</svg>


