<svg xmlns="http://www.w3.org/2000/svg" xmlns:xlink="http://www.w3.org/1999/xlink" viewBox="563 0 77 96">
  <defs>
    <style>
      .cls-1 {
        clip-path: url(#clip-Add_Account_-_Cancelation);
      }

      .cls-2 {
        fill: #ff5050;
      }

      .cls-3 {
        fill: #c84146;
      }

      .cls-4 {
        fill: #f9bda0;
      }

      .cls-5 {
        fill: #f2ab8f;
      }

      .cls-6 {
        fill: #333a4d;
      }

      .cls-7 {
        fill: #fff;
      }
    </style>
    <clipPath id="clip-Add_Account_-_Cancelation">
      <rect x="563" width="77" height="96"/>
    </clipPath>
  </defs>
  <g id="Add_Account_-_Cancelation" data-name="Add Account - Cancelation" class="cls-1">
    <rect class="cls-7" x="563" width="77" height="96"/>
    <g id="Group_866" data-name="Group 866" transform="translate(563)">
      <ellipse id="Ellipse_23" data-name="Ellipse 23" class="cls-2" cx="28.953" cy="28.862" rx="28.953" ry="28.862" transform="translate(1.505 1.5)"/>
      <path id="Path_1267" data-name="Path 1267" class="cls-3" d="M53.014,54.03a9.075,9.075,0,0,0-7.977,9.152v10.54a2.664,2.664,0,0,1-.79,1.894h0a2.628,2.628,0,0,1-1.975.788A28.837,28.837,0,0,1,23.027,27.1a28.828,28.828,0,0,0,7.412,53.392,28.537,28.537,0,0,0,14.6-.413V80.1a28.945,28.945,0,0,0,17.7-14.534V62.807A8.838,8.838,0,0,0,53.014,54.03Z" transform="translate(-6.528 -22.018)"/>
      <path id="Path_1268" data-name="Path 1268" class="cls-4" d="M262.407,237.8V226a4.162,4.162,0,0,0-3.612-4.22,4.016,4.016,0,0,0-4.44,3.995v-1.388a4.162,4.162,0,0,0-3.612-4.22,4.016,4.016,0,0,0-4.44,3.995v-1.369a4.162,4.162,0,0,0-3.612-4.22,4.016,4.016,0,0,0-4.44,3.995V200.327a4.162,4.162,0,0,0-3.612-4.22,4.016,4.016,0,0,0-4.44,3.995V237.8a16.065,16.065,0,0,0,16.085,16.034h0A16.073,16.073,0,0,0,262.407,237.8Z" transform="translate(-186.893 -159.313)"/>
      <g id="Group_875" data-name="Group 875" transform="translate(43.344 36.773)">
        <path id="Path_1269" data-name="Path 1269" class="cls-5" d="M279.534,316.634a3.984,3.984,0,0,0-2.935-.788,4.422,4.422,0,0,0-3.5,4.257v1.313a2.4,2.4,0,0,0,2.408,2.4h0a2.4,2.4,0,0,0,2.408-2.4V319.8A4.037,4.037,0,0,1,279.534,316.634Z" transform="translate(-265.067 -293.358)"/>
        <path id="Path_1270" data-name="Path 1270" class="cls-5" d="M322.334,325.234a3.984,3.984,0,0,0-2.935-.788,4.422,4.422,0,0,0-3.5,4.257v1.313a2.4,2.4,0,0,0,2.408,2.4h0a2.4,2.4,0,0,0,2.408-2.4V328.4A3.956,3.956,0,0,1,322.334,325.234Z" transform="translate(-299.815 -300.345)"/>
        <path id="Path_1271" data-name="Path 1271" class="cls-5" d="M365.034,333.734a3.984,3.984,0,0,0-2.935-.788,4.422,4.422,0,0,0-3.5,4.257v1.313a2.4,2.4,0,0,0,2.408,2.4h0a2.4,2.4,0,0,0,2.408-2.4V336.9A4.093,4.093,0,0,1,365.034,333.734Z" transform="translate(-334.482 -307.251)"/>
        <path id="Path_1272" data-name="Path 1272" class="cls-5" d="M235.216,237.8V200.1a3.992,3.992,0,0,1,1.6-3.169,3.727,3.727,0,0,0-1.975-.825,4.016,4.016,0,0,0-4.44,3.995V237.8a16.064,16.064,0,0,0,16.085,16.034,14.554,14.554,0,0,0,2.408-.206A16.047,16.047,0,0,1,235.216,237.8Z" transform="translate(-230.4 -196.086)"/>
      </g>
      <path id="Path_1273" data-name="Path 1273" class="cls-6" d="M72.052,60.968a5.674,5.674,0,0,0-3.913,1.088A5.472,5.472,0,0,0,64,59.355a5.674,5.674,0,0,0-3.913,1.088,5.439,5.439,0,0,0-7.224-2.119V50.916A30.288,30.288,0,1,0,41.82,58.549V78.465a17.59,17.59,0,0,0,35.18,0v-11.8A5.668,5.668,0,0,0,72.052,60.968ZM30.458,57.724A27.376,27.376,0,1,1,52.882,46.153V41.014a5.7,5.7,0,0,0-4.967-5.72,5.518,5.518,0,0,0-6.1,5.476v14.5A27.033,27.033,0,0,1,30.458,57.724Zm43.551,20.76a14.58,14.58,0,0,1-29.159,0V40.789a2.527,2.527,0,0,1,2.521-2.513,1.245,1.245,0,0,1,.263.019,2.666,2.666,0,0,1,2.258,2.719V63.237a1.505,1.505,0,0,0,3.01,0,2.518,2.518,0,0,1,2.784-2.494,2.666,2.666,0,0,1,2.258,2.719v1.369a1.505,1.505,0,0,0,3.01,0,2.518,2.518,0,0,1,2.784-2.494,2.665,2.665,0,0,1,2.257,2.719v1.369a1.505,1.505,0,0,0,3.01,0,2.518,2.518,0,0,1,2.784-2.494,2.665,2.665,0,0,1,2.258,2.719V78.484Z"/>
      <path id="Path_1274" data-name="Path 1274" class="cls-7" d="M131.431,128.792l4.515-4.5a1.852,1.852,0,0,0,0-2.607h0a1.866,1.866,0,0,0-2.615,0l-4.515,4.5-4.515-4.5a1.846,1.846,0,1,0-2.615,2.607l4.515,4.5-4.515,4.5A1.846,1.846,0,1,0,124.3,135.9l4.515-4.5,4.515,4.5a1.866,1.866,0,0,0,2.615,0h0a1.852,1.852,0,0,0,0-2.607Z" transform="translate(-98.359 -98.43)"/>
    </g>
  </g>
</svg>
