<svg xmlns="http://www.w3.org/2000/svg" xmlns:xlink="http://www.w3.org/1999/xlink" viewBox="1579 0 147 80">
  <defs>
    <style>
      .cls-1 {
        clip-path: url(#clip-Remove_Account);
      }

      .cls-2 {
        fill: #36abd6;
      }

      .cls-3 {
        fill: #2995b2;
      }

      .cls-4 {
        fill: #b2b7bf;
      }

      .cls-5 {
        fill: #f1f4fb;
      }

      .cls-6 {
        fill: #1c7a93;
      }

      .cls-7 {
        fill: #979da5;
      }

      .cls-8 {
        fill: #333a4d;
      }

      .cls-9 {
        fill: #fff;
      }
    </style>
    <clipPath id="clip-Remove_Account">
      <rect x="1579" width="147" height="80"/>
    </clipPath>
  </defs>
  <g id="Remove_Account" data-name="Remove Account" class="cls-1">
    <rect class="cls-9" x="1579" width="147" height="80"/>
    <g id="Group_1065" data-name="Group 1065" transform="translate(1579.098)">
      <path id="Path_1395" data-name="Path 1395" class="cls-2" d="M202.734,15.7H126.626a2.125,2.125,0,0,0-2.126,2.124V62.183h6.353a4.224,4.224,0,1,1,0,8.447H124.5v6.348a2.125,2.125,0,0,0,2.126,2.124h78.209V17.849A2.11,2.11,0,0,0,202.734,15.7Z" transform="translate(-93.8 -11.822)"/>
      <path id="Path_1396" data-name="Path 1396" class="cls-2" d="M474.861,144.8H449.5v29.565h33.815V153.247A8.447,8.447,0,0,0,474.861,144.8Z" transform="translate(-338.465 -109.036)"/>
      <path id="Path_1397" data-name="Path 1397" class="cls-3" d="M449.5,170.5h22.889a4.239,4.239,0,0,1,4.227,4.224v19.018H449.5Z" transform="translate(-338.465 -128.388)"/>
      <path id="Path_1398" data-name="Path 1398" class="cls-2" d="M466.407,42.2H449.5v8.447h23.26V48.523A6.343,6.343,0,0,0,466.407,42.2Z" transform="translate(-338.465 -31.777)"/>
      <path id="Path_1399" data-name="Path 1399" class="cls-4" d="M474.861,93.294,470.634,76.4H449.5V93.294Z" transform="translate(-338.465 -57.53)"/>
      <path id="Path_1400" data-name="Path 1400" class="cls-5" d="M552.1,179h8.454v8.447h-4.227a4.239,4.239,0,0,1-4.227-4.224Z" transform="translate(-415.704 -134.789)"/>
      <path id="Path_1401" data-name="Path 1401" class="cls-6" d="M464.306,204.7a16.943,16.943,0,0,0-14.806,8.719v6.051h31.565A16.881,16.881,0,0,0,464.306,204.7Z" transform="translate(-338.465 -154.141)"/>
      <ellipse id="Ellipse_32" data-name="Ellipse 32" class="cls-4" cx="10.579" cy="10.571" rx="10.579" ry="10.571" transform="translate(115.262 56.882)"/>
      <path id="Path_1402" data-name="Path 1402" class="cls-7" d="M457.954,82.748h14.263L470.634,76.4H449.5V93.294h6.353V84.847A2.1,2.1,0,0,1,457.954,82.748Z" transform="translate(-338.465 -57.53)"/>
      <path id="Path_1403" data-name="Path 1403" class="cls-6" d="M149.886,204.7a16.87,16.87,0,0,0-13.2,6.348H124.5v6.323a2.125,2.125,0,0,0,2.126,2.124h78.209v-8.447H163.061A16.783,16.783,0,0,0,149.886,204.7Z" transform="translate(-93.799 -154.141)"/>
      <ellipse id="Ellipse_33" data-name="Ellipse 33" class="cls-4" cx="10.579" cy="10.571" rx="10.579" ry="10.571" transform="translate(45.507 56.882)"/>
      <path id="Path_1404" data-name="Path 1404" class="cls-8" d="M88.91,0a4.107,4.107,0,0,0-4.1,4.1V40.012a1.977,1.977,0,0,0,3.955,0V4.1a.117.117,0,0,1,.124-.123h76.133a.117.117,0,0,1,.124.123V40.012a1.977,1.977,0,0,0,3.955,0V37.765H192.48a6.471,6.471,0,0,1,6.155,4.5H192.48a1.983,1.983,0,0,0-1.977,1.976v4.224a6.206,6.206,0,0,0,6.2,6.2h2.249v8.719h-5.191a12.556,12.556,0,0,0-23.73,0h-.964V48.459a1.977,1.977,0,0,0-3.955,0V63.378H124.035a12.556,12.556,0,0,0-23.73,0H88.91a.117.117,0,0,1-.124-.123V58.907h8.577a1.976,1.976,0,1,0,0-3.952H76.377a1.976,1.976,0,1,0,0,3.952h8.454v4.322a4.107,4.107,0,0,0,4.1,4.1h10.7v.124a12.557,12.557,0,0,0,25.114,0v-.124h44.666v.124a12.557,12.557,0,0,0,25.114,0v-.124h6.476a1.982,1.982,0,0,0,1.977-1.976V44.211a10.429,10.429,0,0,0-8.849-10.3l-3.288-13.09a1.984,1.984,0,0,0,1.557-1.927V16.771a8.331,8.331,0,0,0-8.33-8.324h-14.93V4.1A4.161,4.161,0,0,0,165.018,0ZM169.1,20.846h17.6l3.238,12.942H169.1Zm14.93-8.447a4.355,4.355,0,0,1,4.35,4.347v.123H169.1V12.4ZM112.17,76.023a8.571,8.571,0,1,1,8.577-8.571A8.578,8.578,0,0,1,112.17,76.023Zm69.755,0a8.571,8.571,0,1,1,8.577-8.571A8.578,8.578,0,0,1,181.925,76.023Zm14.782-25.341a2.257,2.257,0,0,1-2.249-2.248V46.187h4.5v4.5h-2.249Z" transform="translate(-56.083)"/>
      <path id="Path_1405" data-name="Path 1405" class="cls-8" d="M214.7,256.5a4.1,4.1,0,1,0,4.1,4.1A4.107,4.107,0,0,0,214.7,256.5Z" transform="translate(-158.617 -193.147)"/>
      <path id="Path_1406" data-name="Path 1406" class="cls-8" d="M496.9,256.5a4.1,4.1,0,1,0,4.1,4.1A4.107,4.107,0,0,0,496.9,256.5Z" transform="translate(-371.062 -193.147)"/>
      <path id="Path_1407" data-name="Path 1407" class="cls-8" d="M287.6,224.276a1.983,1.983,0,0,0,1.977,1.976h29.588a1.976,1.976,0,1,0,0-3.952H289.577A1.983,1.983,0,0,0,287.6,224.276Z" transform="translate(-216.584 -167.394)"/>
      <path id="Path_1408" data-name="Path 1408" class="cls-8" d="M101.477,192.152h25.361a1.976,1.976,0,1,0,0-3.952H101.477a1.976,1.976,0,1,0,0,3.952Z" transform="translate(-74.979 -141.717)"/>
      <path id="Path_1409" data-name="Path 1409" class="cls-4" d="M79.521,146,72.6,151.681l6.723,6.718,5.685-6.916Z" transform="translate(-54.728 -109.939)"/>
      <path id="Path_1410" data-name="Path 1410" class="cls-4" d="M76.093,149.7c-1.483.025-1.31.494-2.472,1.457-1.162.939-.84,1.334-2,2.272s-2.694.2-2.719,1.7a1.147,1.147,0,0,0,.84,1.186c.371.148.766.222,1.112.4a5.322,5.322,0,0,1,1.9,2.075q.63.963,1.335,1.852a2.913,2.913,0,0,0,.742.716c1.73,1.062,2.3-.667,3.115-1.655.939-1.161.569-1.457,1.508-2.618s2.3-.667,2.324-2.149c.025-1.284-1.335-.741-2.249-1.655s-.717-1.087-1.458-2.149C77.4,150.067,77.4,149.672,76.093,149.7Z" transform="translate(-51.943 -112.722)"/>
      <path id="Path_1411" data-name="Path 1411" class="cls-8" d="M14.04,164.656l2.941-2.519a1.84,1.84,0,1,0-2.4-2.791l-1.409,1.21-2.818,2.4a1.842,1.842,0,0,0-2.6-.2l-2.818,2.4a1.839,1.839,0,0,0-.2,2.593l-2.793,2.4L.544,171.325a1.84,1.84,0,1,0,2.4,2.791L5.883,171.6Z" transform="translate(0 -119.655)"/>
      <path id="Path_1412" data-name="Path 1412" class="cls-8" d="M61.872,129.065a1.855,1.855,0,0,0-2.472-.123L47.93,138.327a1.836,1.836,0,0,0-.148,2.717h0a1.855,1.855,0,0,0,2.472.123l10.184-8.324,5.487,5.483-11.543,14.2a1.926,1.926,0,0,0,.124,2.569h0a1.9,1.9,0,0,0,2.843-.148l10.975-13.757v-5.631Z" transform="translate(-35.645 -96.783)"/>
      <g id="Group_888" data-name="Group 888" transform="translate(6.739 49.804)">
        <path id="Path_1413" data-name="Path 1413" class="cls-9" d="M45.374,209.24a.309.309,0,0,1-.4-.074l-1.706-2.593a.308.308,0,0,1,.074-.4l2.6-1.7a.309.309,0,0,1,.4.074l1.706,2.593a.308.308,0,0,1-.074.4Z" transform="translate(-39.359 -203.743)"/>
        <path id="Path_1414" data-name="Path 1414" class="cls-4" d="M45.374,209.24a.309.309,0,0,1-.4-.074l-1.706-2.593a.308.308,0,0,1,.074-.4l2.6-1.7a.309.309,0,0,1,.4.074l1.706,2.593a.308.308,0,0,1-.074.4Z" transform="translate(-39.359 -203.743)"/>
        <path id="Path_1415" data-name="Path 1415" class="cls-9" d="M32.711,235.531a.279.279,0,0,1-.222-.321l.445-2.1a.279.279,0,0,1,.321-.222l3.362.692a.279.279,0,0,1,.222.321l-.445,2.1a.279.279,0,0,1-.321.222Z" transform="translate(-31.268 -225.169)"/>
        <path id="Path_1416" data-name="Path 1416" class="cls-4" d="M32.711,235.531a.279.279,0,0,1-.222-.321l.445-2.1a.279.279,0,0,1,.321-.222l3.362.692a.279.279,0,0,1,.222.321l-.445,2.1a.279.279,0,0,1-.321.222Z" transform="translate(-31.268 -225.169)"/>
        <path id="Path_1417" data-name="Path 1417" class="cls-8" d="M40.66,204.87l1.706,2.593a.985.985,0,0,0,1.36.272l2.6-1.7a.983.983,0,0,0,.272-1.358l-1.706-2.593a.985.985,0,0,0-1.36-.272l-2.6,1.7A1.031,1.031,0,0,0,40.66,204.87Zm3.312-1.655,1.236,1.9-1.9,1.235-1.236-1.9Z" transform="translate(-37.314 -201.646)"/>
        <path id="Path_1418" data-name="Path 1418" class="cls-8" d="M30.188,230.814l-.445,2.1a1,1,0,0,0,.148.741.974.974,0,0,0,.618.42l3.362.692a1,1,0,0,0,.742-.148.973.973,0,0,0,.42-.617l.445-2.1a1,1,0,0,0-.148-.741.974.974,0,0,0-.618-.42l-3.362-.692A.991.991,0,0,0,30.188,230.814ZM34,232.049l-.272,1.284-2.546-.519.272-1.284Z" transform="translate(-29.191 -223.021)"/>
        <path id="Path_1419" data-name="Path 1419" class="cls-8" d="M55.517,238.031a.763.763,0,0,0,.519-.1.688.688,0,0,0,.3-.445.646.646,0,0,0-.1-.519.689.689,0,0,0-.445-.3.763.763,0,0,0-.519.1.688.688,0,0,0-.3.445.686.686,0,0,0,.544.815Z" transform="translate(-48.191 -228.015)"/>
        <path id="Path_1420" data-name="Path 1420" class="cls-8" d="M28.389,219.741a.648.648,0,0,0-.519.1.688.688,0,0,0-.3.445.761.761,0,0,0,.1.519.689.689,0,0,0,.445.3.648.648,0,0,0,.519-.1.688.688,0,0,0,.3-.445.646.646,0,0,0-.1-.519A.755.755,0,0,0,28.389,219.741Z" transform="translate(-27.564 -215.257)"/>
        <path id="Path_1421" data-name="Path 1421" class="cls-8" d="M62.072,223.9a.689.689,0,0,0,.445.3.648.648,0,0,0,.519-.1.688.688,0,0,0,.3-.445.647.647,0,0,0-.1-.519.689.689,0,0,0-.445-.3.648.648,0,0,0-.519.1.688.688,0,0,0-.3.445A.761.761,0,0,0,62.072,223.9Z" transform="translate(-53.461 -217.591)"/>
      </g>
      <g id="Group_889" data-name="Group 889" transform="translate(64.614 10.843)">
        <path id="Path_1422" data-name="Path 1422" class="cls-8" d="M272.65,65.709c0,.889-.148,1.037-1.038,1.037h-3.634c-.89,0-1.038-.148-1.038-1.037V59.485c0-1.186,1.8-1.383,3.535-2,1.8-.642,3.535-1.655,3.535-4.322,0-2.3-1.434-3.532-4.128-3.532-3.09,0-5.735,1.655-6.229,1.655a.629.629,0,0,1-.544-.494l-1.31-3.408a1.063,1.063,0,0,1-.1-.543c0-1.284,5.932-2.939,9.269-2.939,6.031,0,9.764,3.878,9.764,9.312,0,6.422-5.141,8.126-8.083,9.114Zm-2.694,14a4.213,4.213,0,0,1-4.227-4.174,4.2,4.2,0,1,1,8.4,0A4.219,4.219,0,0,1,269.956,79.714Z" transform="translate(-261.7 -43.9)"/>
      </g>
    </g>
  </g>
</svg>
