<svg xmlns="http://www.w3.org/2000/svg" xmlns:xlink="http://www.w3.org/1999/xlink" viewBox="2073 0 147 80">
  <defs>
    <style>
      .cls-1 {
        clip-path: url(#clip-Remove_succseed);
      }

      .cls-2 {
        fill: #43ba8a;
      }

      .cls-3 {
        fill: #38a073;
      }

      .cls-4 {
        fill: #9eb1c2;
      }

      .cls-5 {
        fill: #f1f4fb;
      }

      .cls-6 {
        fill: #1d6d4b;
      }

      .cls-7 {
        fill: #90a1af;
      }

      .cls-8 {
        fill: #333a4d;
      }

      .cls-9 {
        fill: #fff;
      }
    </style>
    <clipPath id="clip-Remove_succseed">
      <rect x="2073" width="147" height="80"/>
    </clipPath>
  </defs>
  <g id="Remove_succseed" data-name="Remove succseed" class="cls-1">
    <rect class="cls-9" x="2073" width="147" height="80"/>
    <g id="Group_1068" data-name="Group 1068" transform="translate(2072 -1)">
      <g id="Group_1067" data-name="Group 1067" transform="translate(1.099 1)">
        <path id="Path_1337" data-name="Path 1337" class="cls-2" d="M202.575,15.7H126.621a2.121,2.121,0,0,0-2.121,2.121v44.3h6.34a4.218,4.218,0,1,1,0,8.436H124.5V76.9a2.121,2.121,0,0,0,2.121,2.121h78.05V17.846A2.106,2.106,0,0,0,202.575,15.7Z" transform="translate(-93.862 -11.827)"/>
        <path id="Path_1338" data-name="Path 1338" class="cls-2" d="M474.809,144.8H449.5v29.528h33.746V153.236A8.433,8.433,0,0,0,474.809,144.8Z" transform="translate(-338.691 -109.081)"/>
        <path id="Path_1339" data-name="Path 1339" class="cls-3" d="M449.5,170.5h22.843a4.232,4.232,0,0,1,4.218,4.218v18.994H449.5Z" transform="translate(-338.691 -128.441)"/>
        <path id="Path_1340" data-name="Path 1340" class="cls-2" d="M466.373,42.2H449.5v8.436h23.213V48.515A6.332,6.332,0,0,0,466.373,42.2Z" transform="translate(-338.691 -31.79)"/>
        <path id="Path_1341" data-name="Path 1341" class="cls-4" d="M474.809,93.273,470.591,76.4H449.5V93.273Z" transform="translate(-338.691 -57.554)"/>
        <path id="Path_1342" data-name="Path 1342" class="cls-5" d="M552.1,179h8.437v8.436h-4.218a4.232,4.232,0,0,1-4.218-4.218Z" transform="translate(-415.981 -134.844)"/>
        <path id="Path_1343" data-name="Path 1343" class="cls-6" d="M464.276,204.7a16.906,16.906,0,0,0-14.776,8.708v6.044H481A16.851,16.851,0,0,0,464.276,204.7Z" transform="translate(-338.691 -154.204)"/>
        <path id="Path_1344" data-name="Path 1344" class="cls-6" d="M559.3,226.3v9.423h4.416A16.874,16.874,0,0,0,559.3,226.3Z" transform="translate(-421.405 -170.476)"/>
        <circle id="Ellipse_28" data-name="Ellipse 28" class="cls-4" cx="10.558" cy="10.558" r="10.558" transform="translate(115.027 56.811)"/>
        <path id="Path_1345" data-name="Path 1345" class="cls-7" d="M457.936,82.74H472.17l-1.579-6.34H449.5V93.273h6.34V84.836A2.1,2.1,0,0,1,457.936,82.74Z" transform="translate(-338.691 -57.554)"/>
        <path id="Path_1346" data-name="Path 1346" class="cls-6" d="M149.834,204.7a16.83,16.83,0,0,0-13.173,6.34H124.5v6.315a2.121,2.121,0,0,0,2.121,2.121h78.05V211.04H162.982A16.744,16.744,0,0,0,149.834,204.7Z" transform="translate(-93.862 -154.204)"/>
        <circle id="Ellipse_29" data-name="Ellipse 29" class="cls-4" cx="10.558" cy="10.558" r="10.558" transform="translate(45.414 56.811)"/>
        <path id="Path_1347" data-name="Path 1347" class="cls-8" d="M88.88,0a4.1,4.1,0,0,0-4.095,4.095V39.962a1.973,1.973,0,1,0,3.947,0V4.095a.117.117,0,0,1,.123-.123h75.978a.117.117,0,0,1,.123.123V39.962a1.973,1.973,0,1,0,3.947,0V37.718H192.24a6.458,6.458,0,0,1,6.142,4.49H192.24a1.979,1.979,0,0,0-1.973,1.973V48.4a6.2,6.2,0,0,0,6.192,6.192H198.7V63.3h-5.18a12.528,12.528,0,0,0-23.681,0h-.962V48.4a1.973,1.973,0,0,0-3.947,0V63.3h-41a12.528,12.528,0,0,0-23.681,0H88.88a.117.117,0,0,1-.123-.123V58.833h8.56a1.973,1.973,0,0,0,0-3.947H76.373a1.973,1.973,0,0,0,0,3.947H84.81V63.15A4.1,4.1,0,0,0,88.9,67.245H99.586v.123a12.531,12.531,0,0,0,25.063,0v-.123h44.575v.123a12.531,12.531,0,1,0,25.063,0v-.123h6.463a1.979,1.979,0,0,0,1.973-1.973V44.156a10.413,10.413,0,0,0-8.831-10.287L190.611,20.8a1.981,1.981,0,0,0,1.554-1.924V16.75a8.317,8.317,0,0,0-8.313-8.313h-14.9V4.095A4.154,4.154,0,0,0,164.833,0ZM168.9,20.82h17.564L189.7,33.746H168.9Zm14.9-8.436a4.348,4.348,0,0,1,4.342,4.342v.123H168.9V12.383Zm-71.71,63.545a8.56,8.56,0,1,1,8.56-8.56A8.564,8.564,0,0,1,112.093,75.928Zm69.613,0a8.56,8.56,0,1,1,8.56-8.56A8.564,8.564,0,0,1,181.706,75.928Zm14.752-25.309a2.253,2.253,0,0,1-2.245-2.245V46.129h4.49v4.49h-2.245Z" transform="translate(-56.121)"/>
        <path id="Path_1348" data-name="Path 1348" class="cls-8" d="M214.695,256.5a4.095,4.095,0,1,0,4.095,4.095A4.1,4.1,0,0,0,214.695,256.5Z" transform="translate(-158.723 -193.226)"/>
        <path id="Path_1349" data-name="Path 1349" class="cls-8" d="M496.895,256.5a4.095,4.095,0,1,0,4.095,4.095A4.1,4.1,0,0,0,496.895,256.5Z" transform="translate(-371.31 -193.226)"/>
        <path id="Path_1350" data-name="Path 1350" class="cls-8" d="M287.6,224.273a1.979,1.979,0,0,0,1.973,1.973H319.1a1.973,1.973,0,0,0,0-3.947H289.573A1.979,1.979,0,0,0,287.6,224.273Z" transform="translate(-216.729 -167.463)"/>
        <path id="Path_1351" data-name="Path 1351" class="cls-8" d="M101.473,192.147h25.309a1.973,1.973,0,0,0,0-3.947H101.473a1.973,1.973,0,1,0,0,3.947Z" transform="translate(-75.029 -141.775)"/>
        <path id="Path_1352" data-name="Path 1352" class="cls-4" d="M79.507,146,72.6,151.674l6.71,6.71,5.674-6.907Z" transform="translate(-54.765 -109.985)"/>
        <path id="Path_1353" data-name="Path 1353" class="cls-4" d="M76.078,149.7c-1.48.025-1.307.493-2.467,1.455-1.159.937-.839,1.332-2,2.269s-2.689.2-2.713,1.7a1.145,1.145,0,0,0,.839,1.184c.37.148.765.222,1.11.395a5.314,5.314,0,0,1,1.9,2.072q.629.962,1.332,1.85a2.908,2.908,0,0,0,.74.715c1.727,1.061,2.294-.666,3.108-1.653.937-1.159.567-1.455,1.5-2.615s2.294-.666,2.319-2.146c.025-1.283-1.332-.74-2.245-1.653s-.715-1.085-1.455-2.146C77.386,150.067,77.386,149.672,76.078,149.7Z" transform="translate(-51.978 -112.769)"/>
        <path id="Path_1354" data-name="Path 1354" class="cls-8" d="M14.012,164.649l2.936-2.516a1.837,1.837,0,1,0-2.393-2.788l-1.406,1.209-2.812,2.393a1.837,1.837,0,0,0-2.59-.2l-2.812,2.393a1.837,1.837,0,0,0-.2,2.59l-2.787,2.393L.543,171.309A1.837,1.837,0,1,0,2.936,174.1l2.936-2.516Z" transform="translate(0 -119.704)"/>
        <path id="Path_1355" data-name="Path 1355" class="cls-8" d="M61.842,129.064a1.85,1.85,0,0,0-2.467-.123l-11.446,9.374a1.835,1.835,0,0,0-.148,2.714h0a1.85,1.85,0,0,0,2.467.123l10.163-8.313,5.476,5.476L54.367,152.5a1.925,1.925,0,0,0,.123,2.565h0a1.9,1.9,0,0,0,2.837-.148l10.953-13.74v-5.624Z" transform="translate(-35.669 -96.823)"/>
        <g id="Group_883" data-name="Group 883" transform="translate(6.726 49.742)">
          <path id="Path_1356" data-name="Path 1356" class="cls-9" d="M45.37,209.234a.308.308,0,0,1-.395-.074l-1.7-2.59a.308.308,0,0,1,.074-.395l2.59-1.7a.308.308,0,0,1,.395.074l1.7,2.59a.308.308,0,0,1-.074.395Z" transform="translate(-39.366 -203.744)"/>
          <path id="Path_1357" data-name="Path 1357" class="cls-4" d="M45.37,209.234a.308.308,0,0,1-.395-.074l-1.7-2.59a.308.308,0,0,1,.074-.395l2.59-1.7a.308.308,0,0,1,.395.074l1.7,2.59a.308.308,0,0,1-.074.395Z" transform="translate(-39.366 -203.744)"/>
          <path id="Path_1358" data-name="Path 1358" class="cls-9" d="M32.71,235.528a.279.279,0,0,1-.222-.321l.444-2.1a.279.279,0,0,1,.321-.222l3.355.691a.279.279,0,0,1,.222.321l-.444,2.1a.279.279,0,0,1-.321.222Z" transform="translate(-31.271 -225.179)"/>
          <path id="Path_1359" data-name="Path 1359" class="cls-4" d="M32.71,235.528a.279.279,0,0,1-.222-.321l.444-2.1a.279.279,0,0,1,.321-.222l3.355.691a.279.279,0,0,1,.222.321l-.444,2.1a.279.279,0,0,1-.321.222Z" transform="translate(-31.271 -225.179)"/>
          <path id="Path_1360" data-name="Path 1360" class="cls-8" d="M40.66,204.866l1.7,2.59a.982.982,0,0,0,1.357.271l2.59-1.7a.982.982,0,0,0,.271-1.357l-1.7-2.59a.982.982,0,0,0-1.357-.271l-2.59,1.7A1.03,1.03,0,0,0,40.66,204.866Zm3.306-1.653,1.233,1.9-1.9,1.233-1.233-1.9Z" transform="translate(-37.321 -201.646)"/>
          <path id="Path_1361" data-name="Path 1361" class="cls-8" d="M30.188,230.813l-.444,2.1a.994.994,0,0,0,.148.74.972.972,0,0,0,.617.419l3.355.691a.994.994,0,0,0,.74-.148.972.972,0,0,0,.419-.617l.444-2.1a.994.994,0,0,0-.148-.74.972.972,0,0,0-.617-.419l-3.355-.691A.989.989,0,0,0,30.188,230.813Zm3.8,1.233-.271,1.283-2.541-.518.271-1.283Z" transform="translate(-29.192 -223.029)"/>
          <path id="Path_1362" data-name="Path 1362" class="cls-8" d="M55.516,238.03a.761.761,0,0,0,.518-.1.688.688,0,0,0,.3-.444.646.646,0,0,0-.1-.518.688.688,0,0,0-.444-.3.761.761,0,0,0-.518.1.688.688,0,0,0-.3.444.686.686,0,0,0,.543.814Z" transform="translate(-48.205 -228.026)"/>
          <path id="Path_1363" data-name="Path 1363" class="cls-8" d="M28.387,219.741a.646.646,0,0,0-.518.1.688.688,0,0,0-.3.444.761.761,0,0,0,.1.518.688.688,0,0,0,.444.3.646.646,0,0,0,.518-.1.688.688,0,0,0,.3-.444.646.646,0,0,0-.1-.518A.754.754,0,0,0,28.387,219.741Z" transform="translate(-27.564 -215.263)"/>
          <path id="Path_1364" data-name="Path 1364" class="cls-8" d="M62.072,223.9a.688.688,0,0,0,.444.3.646.646,0,0,0,.518-.1.688.688,0,0,0,.3-.444.646.646,0,0,0-.1-.518.688.688,0,0,0-.444-.3.646.646,0,0,0-.518.1.688.688,0,0,0-.3.444A.761.761,0,0,0,62.072,223.9Z" transform="translate(-53.478 -217.598)"/>
        </g>
        <g id="Group_884" data-name="Group 884" transform="translate(58.519 14.554)">
          <path id="Path_1365" data-name="Path 1365" class="cls-8" d="M260.46,62.084l-12.63,12.63-2.861-2.862a4.362,4.362,0,0,0-6.167,0h0a4.362,4.362,0,0,0,0,6.167l6.636,6.636a3.38,3.38,0,0,0,4.761,0l16.4-16.4a4.362,4.362,0,0,0,0-6.167h0A4.333,4.333,0,0,0,260.46,62.084ZM263.544,59" transform="translate(-237.525 -59)"/>
        </g>
      </g>
    </g>
  </g>
</svg>
