<svg xmlns="http://www.w3.org/2000/svg" xmlns:xlink="http://www.w3.org/1999/xlink" viewBox="2508 0 98 96">
  <defs>
    <style>
      .cls-1 {
        clip-path: url(#clip-Rerun_account);
      }

      .cls-2 {
        fill: #ff5050;
      }

      .cls-3 {
        fill: #dcdcdc;
      }

      .cls-4 {
        fill: #333a4d;
      }

      .cls-12, .cls-5 {
        fill: #fff;
      }

      .cls-6 {
        fill: #3aa2eb;
      }

      .cls-7 {
        fill: #43ba8a;
      }

      .cls-8 {
        fill: #cacaca;
      }

      .cls-9 {
        fill: #ffd791;
      }

      .cls-10 {
        fill: #2c261e;
      }

      .cls-11 {
        fill: #ed6262;
      }

      .cls-12 {
        opacity: 0.1;
      }
    </style>
    <clipPath id="clip-Rerun_account">
      <rect x="2508" width="98" height="96"/>
    </clipPath>
  </defs>
  <g id="Rerun_account" data-name="Rerun account" class="cls-1">
    <rect class="cls-5" x="2508" width="98" height="96"/>
    <ellipse id="Ellipse_54" data-name="Ellipse 54" class="cls-2" cx="44.531" cy="44.67" rx="44.531" ry="44.67" transform="translate(2515.27 2.211)"/>
    <ellipse id="Ellipse_55" data-name="Ellipse 55" class="cls-3" cx="16.467" cy="16.518" rx="16.467" ry="16.518" transform="translate(2543.334 30.363)"/>
    <g id="Group_1045" data-name="Group 1045" transform="translate(2551.711 37.719)">
      <path id="Path_1609" data-name="Path 1609" class="cls-4" d="M245.08,203.238l-13.38-6.807a2.556,2.556,0,0,0-2.492.1A2.517,2.517,0,0,0,228,198.7V211.91a2.566,2.566,0,0,0,1.189,2.173,2.5,2.5,0,0,0,1.361.4,2.453,2.453,0,0,0,1.093-.25l13.38-6.4a2.552,2.552,0,0,0,1.457-2.269A2.518,2.518,0,0,0,245.08,203.238Z" transform="translate(-228 -196.152)"/>
      <path id="Path_1610" data-name="Path 1610" class="cls-2" d="M250.9,230.442l8.569-4.1L250.9,222Z" transform="translate(-246.51 -217.03)"/>
    </g>
    <path id="Path_1611" data-name="Path 1611" class="cls-4" d="M84.345,13.672A46.551,46.551,0,0,0,5.616,38.285a1.241,1.241,0,0,0-.173.154L.536,43.362a1.9,1.9,0,0,0,2.684,2.692l1.687-1.692v.865c-.019.481-.019.981-.019,1.461A46.544,46.544,0,1,0,84.345,13.672ZM51.412,89.358A42.633,42.633,0,0,1,8.894,46.708c0-.692.019-1.385.058-2.058l1.419,1.423a1.893,1.893,0,0,0,2.684,0,1.9,1.9,0,0,0,0-2.692l-3.585-3.6A42.525,42.525,0,1,1,51.412,89.358Z" transform="translate(2508.025)"/>
    <path id="Path_1612" data-name="Path 1612" class="cls-4" d="M138.77,81.2a31.267,31.267,0,1,0,31.17,31.267A31.256,31.256,0,0,0,138.77,81.2Zm0,58.5a27.229,27.229,0,1,1,27.144-27.229A27.212,27.212,0,0,1,138.77,139.7Z" transform="translate(2421.031 -65.586)"/>
    <g id="Group_1046" data-name="Group 1046" transform="translate(2518.26 6.1)">
      <path id="Path_1613" data-name="Path 1613" class="cls-5" d="M83.6,37.15A1.749,1.749,0,0,1,83.85,37c.23-.135.422-.25.5-.461A2.6,2.6,0,0,0,84.176,35c-.153-.4-.249-.385-.824-.327-.077,0-.153.019-.23.019a2.217,2.217,0,0,0-1.112.288,3.561,3.561,0,0,0-.575.615c-.058.077-.115.135-.173.212a17.769,17.769,0,0,0-1.3,1.731.145.145,0,0,1-.077.135.1.1,0,0,0-.038.077.184.184,0,0,1-.23.077,2.864,2.864,0,0,0-.345.173l-.038.019c-.326.154-.652.308-.958.423A38.136,38.136,0,0,0,74.5,40.169c-.383.192-.748.423-1.112.654-.134.077-.249.154-.383.231a.566.566,0,0,0,.192-.038c.192-.058.383-.115.556-.173a6.048,6.048,0,0,1,1.131-.308,7.063,7.063,0,0,1,.9-.038,4.384,4.384,0,0,0,1.016-.058c.134-.038.288-.077.422-.115a2.592,2.592,0,0,1,1.5-.135c.019,0,.038.019.077.019a4.8,4.8,0,0,1,1.629-1.25,2.174,2.174,0,0,1,.479-.115,2.117,2.117,0,0,0,.5-.135.85.85,0,0,0,.46-.4c.058-.077.115-.154.192-.25a2.478,2.478,0,0,0,.249-.346.19.19,0,0,1,.134-.135.3.3,0,0,1,.115-.154c.115-.1.249-.212.4-.077h.019a.59.59,0,0,1,.211.038.087.087,0,0,0,.1,0,.8.8,0,0,0,.23-.154A.191.191,0,0,1,83.6,37.15Z" transform="translate(-69.261 -34.078)"/>
      <path id="Path_1614" data-name="Path 1614" class="cls-5" d="M58.688,75.369c-.058-.154-.1-.308-.134-.442l-.058-.173a5.98,5.98,0,0,1-.134-2.731V72a3.346,3.346,0,0,1,.268-.9,2.492,2.492,0,0,0-.326.154,2.852,2.852,0,0,0-1.5,1.923.687.687,0,0,0,.173.654c.038.058.077.115.134.192A2.9,2.9,0,0,0,58.688,75.369Z" transform="translate(-56.157 -63.528)"/>
      <path id="Path_1615" data-name="Path 1615" class="cls-6" d="M70.964,70.948a2.962,2.962,0,0,0,.422.327l.019.019a3.9,3.9,0,0,1,.153-2.308,3.907,3.907,0,0,0,.211-.5c.077-.192.173-.385.249-.6a4.762,4.762,0,0,1,1.169-1.75,3.83,3.83,0,0,1,1.035-.558,3.054,3.054,0,0,0,.441-.192,3.8,3.8,0,0,1,1.169-.385.163.163,0,0,1,.1-.058q.4-.087.863-.231a3.51,3.51,0,0,1,3.01.019c.422.269.767.462,1.112.654.058.038.134.058.23.115a1.986,1.986,0,0,1,.882.577h0a.842.842,0,0,1-.057.711.735.735,0,0,0-.077.25,2.37,2.37,0,0,0,.038.519c.019.058.019.135.038.192.077.038.211.173.537.711.307.519.652,1,1.054,1.577A8.106,8.106,0,0,1,84.882,73.6c.46-.308.537-.827.633-1.423a5.449,5.449,0,0,1,.192-.9c.383-1.135-.288-2.307-.958-3.346a5.443,5.443,0,0,1-.728-2.269l-.038-.192a2.644,2.644,0,0,0-.824-1.577l-.077-.077a4.994,4.994,0,0,0-2.013-1.461,2.136,2.136,0,0,0-1.591.192l-.192.077a6.889,6.889,0,0,1-1.859.538,11.322,11.322,0,0,1-1.438.038c.46.135.92.25,1.4.365a.208.208,0,0,1-.1.4c-.728-.173-1.476-.385-2.185-.577-.518-.154-1.054-.288-1.591-.442a.222.222,0,0,1-.192-.038h0c-.019,0-.038-.019-.057-.019a2.3,2.3,0,0,0-1.284.135c-.134.038-.288.077-.441.115a4.544,4.544,0,0,1-1.131.077,5.833,5.833,0,0,0-.824.019,6.067,6.067,0,0,0-1.054.288c-.192.058-.364.135-.575.192a3.13,3.13,0,0,1-.479.077,1.922,1.922,0,0,0-.537.1c-.23.115-.364.827-.422,1.058v.019a5.419,5.419,0,0,0,.134,2.538c.019.058.038.115.058.192a2.1,2.1,0,0,0,.5,1.058c.211.154.441.077.824-.058a2.083,2.083,0,0,1,.594-.154v-.673a3.465,3.465,0,0,0-.038-.423,5.1,5.1,0,0,1-.038-.558,7.358,7.358,0,0,1,.173-1.135c.058-.288.115-.6.153-.9a.193.193,0,1,1,.383.038c-.038.327-.1.635-.153.942a7.281,7.281,0,0,0-.153,1.077,4.409,4.409,0,0,0,.038.481,3.745,3.745,0,0,1,.038.462v.269a1.206,1.206,0,0,0,.192.9c.422.5.882,1,1.361,1.481A2.886,2.886,0,0,0,70.964,70.948Z" transform="translate(-63.948 -56.397)"/>
      <path id="Path_1616" data-name="Path 1616" class="cls-7" d="M146.252,59.584a6.469,6.469,0,0,1-.652.154,5.78,5.78,0,0,1,1.783,1.423l.077.077a2.949,2.949,0,0,1,.92,1.788l.038.192a5.167,5.167,0,0,0,.671,2.115c.1.154.192.288.268.442a5.043,5.043,0,0,0,.748-2.807c0-.115.019-.212.019-.308a3.851,3.851,0,0,0-.92-2.731c-.019-.019-.038-.019-.038-.038a2.041,2.041,0,0,0-.211-.173C148.13,59.084,147.229,59.334,146.252,59.584Z" transform="translate(-127.944 -54.012)"/>
      <path id="Path_1617" data-name="Path 1617" class="cls-5" d="M129.881,78.054a2.3,2.3,0,0,1-.057-.635,2.329,2.329,0,0,1,.1-.346c.058-.135.115-.288.077-.365h0a2.662,2.662,0,0,0-.709-.4,1.55,1.55,0,0,1-.249-.115c-.364-.192-.709-.4-1.15-.673a2.239,2.239,0,0,0-1.61-.231.231.231,0,0,1,.1.1.176.176,0,0,1-.038.212.836.836,0,0,1-.134.115c.115.038.249.058.364.1a3.447,3.447,0,0,0,.364.1.115.115,0,0,1,.077.019.185.185,0,0,1,.115.173.175.175,0,0,1-.058.135l-.019.019c-.038.058-.077.1-.115.154a1.078,1.078,0,0,1,.23.077.9.9,0,0,0,.173.058.185.185,0,0,1,.173.154.194.194,0,0,1-.1.212.019.019,0,0,0-.019.019c.019,0,.038.019.058.019a1,1,0,0,0,.441.115.236.236,0,0,1,.192.1.173.173,0,0,1-.019.212,1.114,1.114,0,0,0-.019.615c.057.077.134.077.364.038a.529.529,0,0,1,.173-.019.2.2,0,0,1,.211.212l-.019.154c-.019.154-.019.308-.038.481a.183.183,0,0,1,.192.038.229.229,0,0,1,.077.212c-.058.212-.134.423-.211.635a1.312,1.312,0,0,0,.153-.058.216.216,0,0,1,.211.058.176.176,0,0,1,.038.212c-.038.115-.077.231-.115.365a4.179,4.179,0,0,1-.134.461.83.83,0,0,1,.1.019l.019-.019a1.731,1.731,0,0,0,.192-.173,2.472,2.472,0,0,0,.652-2.1A.867.867,0,0,0,129.881,78.054Z" transform="translate(-112.263 -66.867)"/>
      <path id="Path_1618" data-name="Path 1618" class="cls-6" d="M200.866,44.245c-.019-.4-.077-.538-.422-.692a4.258,4.258,0,0,0-1.879-.231,3.356,3.356,0,0,0-1.284.519c-.077.038-.134.077-.211.115a3.284,3.284,0,0,0-.9.808c-.134.154-.288.327-.441.481a5.819,5.819,0,0,1-1.15.788l-.288.173a3.449,3.449,0,0,0-1.093.808.592.592,0,0,1,.153-.038.812.812,0,0,1,.9.192,2.556,2.556,0,0,1,.863,1.615.992.992,0,0,1-.268.827,2.236,2.236,0,0,1-1.3.462c-.058,0-.1.019-.153.019a1.912,1.912,0,0,0-.69.269.2.2,0,0,0,.077.154A1.84,1.84,0,0,0,194,50.437a2.255,2.255,0,0,0,.882-.692c.115-.115.211-.25.345-.365a4.944,4.944,0,0,1,1.821-1.288,6.869,6.869,0,0,1,.786-.212,3.561,3.561,0,0,0,1.572-.673A4.237,4.237,0,0,0,200.866,44.245Z" transform="translate(-166.015 -41.077)"/>
      <path id="Path_1619" data-name="Path 1619" class="cls-5" d="M168,61.246a4.289,4.289,0,0,1,.652,2.577c0,.1-.019.212-.019.308a10.427,10.427,0,0,1-.192,1.577.43.43,0,0,0,.268-.115,1.063,1.063,0,0,1,.153-.115.656.656,0,0,0-.019-.192,1.687,1.687,0,0,0-.038-.308,1.509,1.509,0,0,1,.038-.961.8.8,0,0,1,.345-.365.533.533,0,0,1-.058-.25.541.541,0,0,1,.192-.481,1.483,1.483,0,0,1,1.227-.038h.019a3.677,3.677,0,0,1,1.265.519,2.06,2.06,0,0,1,.556.731h.019a2.26,2.26,0,0,1,.92-.365c.057,0,.1-.019.153-.019a2.028,2.028,0,0,0,1.074-.327.652.652,0,0,0,.153-.519A2.19,2.19,0,0,0,174,61.573c-.268-.212-.307-.192-.537-.115a2.786,2.786,0,0,1-.326.077,3.739,3.739,0,0,1-2.013-.462l-.115-.038c-.843-.346-1.016-.423-1.783-.077a.779.779,0,0,0-.211.115,1.869,1.869,0,0,1-.575.25A1.933,1.933,0,0,1,168,61.246Z" transform="translate(-146.05 -55.155)"/>
      <path id="Path_1620" data-name="Path 1620" class="cls-5" d="M111.169,136.05a2.581,2.581,0,0,0-.268-.212c-.23-.173-.441-.365-.633-.538a3.39,3.39,0,0,1-.422.308,2.547,2.547,0,0,0-.805.75c-.173.327.038.6.383.981a.888.888,0,0,0,.134.135c.441.5,1.016.327,1.859.019l.019-.019a.926.926,0,0,1,.134-.058,5,5,0,0,0,.978-.423c-.038-.019-.058-.019-.077-.038A5.258,5.258,0,0,1,111.169,136.05Z" transform="translate(-98.344 -115.383)"/>
      <path id="Path_1621" data-name="Path 1621" class="cls-7" d="M164.71,108.981a2.4,2.4,0,0,0-.364-1.481,3.36,3.36,0,0,1-.1.423,4.234,4.234,0,0,0-.173.827c-.115.692-.211,1.4-.978,1.788,0,.077.019.154.019.231s.019.154.019.212c.058-.058.115-.135.173-.192a11.274,11.274,0,0,0,1.38-1.808C164.71,109,164.71,108.981,164.71,108.981Z" transform="translate(-142.089 -92.929)"/>
      <path id="Path_1622" data-name="Path 1622" class="cls-8" d="M94.708,84.407c.019.019.019.038.038.038A4.557,4.557,0,0,0,97.488,86.1a3.747,3.747,0,0,0,2.914-.769l.038-.019c.46-.327.882-.654,1.3-1a1.658,1.658,0,0,0,.268-.25,3.129,3.129,0,0,1,.383-.327.2.2,0,0,1-.115-.135.221.221,0,0,1,.1-.231,4.646,4.646,0,0,0,.383-.269.418.418,0,0,1,.1-.058.167.167,0,0,1-.153-.115.176.176,0,0,1,.038-.212,1.485,1.485,0,0,0,.249-.615c0-.019,0-.019.019-.038l-.23.058a.216.216,0,0,1-.211-.058.175.175,0,0,1-.019-.212c.1-.212.173-.385.249-.577a.45.45,0,0,1-.153-.038.217.217,0,0,1-.057-.212,3.35,3.35,0,0,0,.1-.654.637.637,0,0,1-.671-.212l-.038-.038a1.213,1.213,0,0,1-.058-.75l-.345-.115a1.393,1.393,0,0,0-.46-.135.187.187,0,0,1-.192-.154.221.221,0,0,1,.1-.231c.019-.019.038-.019.058-.038h-.058a.209.209,0,0,1-.192-.038.185.185,0,0,1-.058-.192c0-.019,0-.019.019-.038a1.008,1.008,0,0,1,.115-.308c-.038-.019-.077-.019-.115-.038a2.105,2.105,0,0,0-.786-.135.168.168,0,0,1-.192-.1.2.2,0,0,1,.019-.231l.019-.019c-.077.019-.134.019-.211.038a6.579,6.579,0,0,1-.863.1,2.853,2.853,0,0,0-1.284.365,4.673,4.673,0,0,1-.46.192,3.773,3.773,0,0,0-.92.481,4.857,4.857,0,0,0-1.074,1.615c-.1.192-.173.385-.249.577l-.23.519a3.526,3.526,0,0,0,.058,2.615c-.077.019.019.212.1.308Z" transform="translate(-86.503 -68.778)"/>
      <path id="Path_1623" data-name="Path 1623" class="cls-5" d="M161.475,89.6a8.048,8.048,0,0,0,.958-.692c.115-.1.249-.192.364-.288a1.49,1.49,0,0,0,.556-.981l.019-.077a11.233,11.233,0,0,1,.422-1.211,6.525,6.525,0,0,0,.326-.923c.115-.365.249-.711.4-1.077.077-.212.173-.423.249-.635a9.461,9.461,0,0,0,.326-1.211c.077-.327.153-.673.249-1.019.077-.25.134-.519.192-.788a6.09,6.09,0,0,1,.4-1.346,2.278,2.278,0,0,1,.268-.423,1.809,1.809,0,0,0,.345-.692,6.839,6.839,0,0,0,.115-.9l.058-.577a2.242,2.242,0,0,1,.077-.346,1.99,1.99,0,0,0,.077-.423.779.779,0,0,0-.173-.481c-.038-.077-.1-.173-.153-.269-.038-.1-.077-.173-.115-.269a2.039,2.039,0,0,0-.556-.846,2.848,2.848,0,0,0-1.131-.442h-.019c-.479-.115-.767-.135-.882-.038-.019.019-.038.038-.038.154,0,.135.115.25.268.365h0a.852.852,0,0,0,.211.154,1.929,1.929,0,0,1,.364.308l.057.058a.686.686,0,0,1,.23.6,4.283,4.283,0,0,1-.077.827c-.019.058-.038.115-.1.135a.27.27,0,0,1-.173.019c-.652-.231-.613-.654-.594-1.019a1.182,1.182,0,0,0-.038-.577c-.077-.192-.192-.269-.288-.269s-.173.115-.211.173a1.273,1.273,0,0,0-.019.711l.058.346c.038.4.019.827.019,1.231v.442a1.558,1.558,0,0,0,.364.942c.038.058.077.135.134.212a2.009,2.009,0,0,1,.268,1.365,2.194,2.194,0,0,1-.5,1.211,1.057,1.057,0,0,1-.134.173c-.134.192-.249.365-.364.558a10.286,10.286,0,0,1-1.5,1.942,2.387,2.387,0,0,0-.364.423.116.116,0,0,1-.019.077c0,.019,0,.019-.019.019a2.529,2.529,0,0,0,.173.654,2.6,2.6,0,0,0,.307.558,2.765,2.765,0,0,1,.4.827,2.477,2.477,0,0,1-.038,1.538,3.767,3.767,0,0,1-.958,1.692c-.115.077-.249.154-.383.231A1.1,1.1,0,0,0,161.475,89.6Z" transform="translate(-140.311 -65.531)"/>
      <path id="Path_1624" data-name="Path 1624" class="cls-9" d="M179.162,80.6a1.764,1.764,0,0,1-.019.327c-.019.25-.038.385.1.481a4.816,4.816,0,0,0,.038-.481C179.277,80.735,179.277,80.735,179.162,80.6Z" transform="translate(-155.046 -71.202)"/>
      <path id="Path_1625" data-name="Path 1625" class="cls-6" d="M104.774,141.346c.058-.038.115-.077.192-.135a4.651,4.651,0,0,1,.422-.269,4.556,4.556,0,0,0-.575-.346,3.348,3.348,0,0,1-1.208.615.486.486,0,0,1-.134.038h-.019c-.728.288-1.649.635-2.3-.115-.038-.038-.077-.1-.115-.135a3.039,3.039,0,0,1-.422-.558.9.9,0,0,1-.019-.885c.019-.019.019-.038.038-.058a3.084,3.084,0,0,0-.652.288,1.981,1.981,0,0,0-.958.981,1.853,1.853,0,0,0,.1,1.25h0a2.574,2.574,0,0,0,1.169.923c.518.173,1-.135,1.514-.462a3.307,3.307,0,0,1,.978-.481c.173-.038.345-.077.5-.115A4.613,4.613,0,0,0,104.774,141.346Z" transform="translate(-90.242 -118.776)"/>
      <path id="Path_1626" data-name="Path 1626" class="cls-6" d="M112.984,105.368a3.6,3.6,0,0,0,.805.519c.115.058.249.135.383.212l.019.019c.383.212.575.327.882.231a6.072,6.072,0,0,0,1.38-.6,3.908,3.908,0,0,0,.824-1.5,2.1,2.1,0,0,0,.019-1.288,2.5,2.5,0,0,0-.364-.711,2.963,2.963,0,0,1-.537-1.423.191.191,0,0,1-.019-.154,3.438,3.438,0,0,1-.038-.442c0-.077-.019-.154-.019-.231A8.253,8.253,0,0,0,115,95.965c-.422-.577-.748-1.077-1.074-1.615-.038-.058-.1-.154-.153-.25A2.613,2.613,0,0,1,113,96.081a1.558,1.558,0,0,1-.192.173.191.191,0,0,1-.115.154l-.115.058c0,.019-.019.019-.019.038a.174.174,0,0,1-.153.077c-.077.058-.134.1-.211.154-.019.019-.038.019-.058.038.019.019.038.019.077.038a.237.237,0,0,1,.1.192.205.205,0,0,1-.134.173,2.055,2.055,0,0,0-.671.481c-.1.077-.192.173-.288.25-.422.346-.863.673-1.323,1l-.038.019a4.277,4.277,0,0,1-3.221.846,3.664,3.664,0,0,1-.939-.269,21.228,21.228,0,0,0,2.818,2.673c.1.077.173.154.268.231a5.708,5.708,0,0,0,1.208.846,7.03,7.03,0,0,1,1.61,1c.173.135.345.25.5.365C112.39,104.888,112.716,105.118,112.984,105.368Z" transform="translate(-95.693 -82.106)"/>
      <path id="Path_1627" data-name="Path 1627" class="cls-10" d="M76.347,55.295a2.119,2.119,0,0,0,.786-1.327l.019-.077a7.978,7.978,0,0,1,.4-1.135c.115-.308.249-.635.345-.961s.249-.673.383-1.019c.077-.212.173-.442.249-.654a11.73,11.73,0,0,0,.345-1.288c.077-.327.153-.654.249-.961.077-.269.153-.558.211-.846a6.264,6.264,0,0,1,.345-1.192,1.919,1.919,0,0,1,.23-.365,2.3,2.3,0,0,0,.441-.923,8.733,8.733,0,0,0,.115-.961c.019-.173.038-.365.058-.538q.029-.115.058-.288c.038-.192.077-.385.1-.558a1.7,1.7,0,0,0-.038-.327A3.622,3.622,0,0,0,81.7,41.68a2.656,2.656,0,0,0,1.131-.865c.1-.115.192-.231.307-.346a4.538,4.538,0,0,1,1.572-1.135c.249-.077.5-.135.728-.212a4.318,4.318,0,0,0,1.821-.788,4.685,4.685,0,0,0,1.706-3.442,1.808,1.808,0,0,0-.153-.692,1.079,1.079,0,0,0-.652-.519,4.8,4.8,0,0,0-2.185-.269,4.035,4.035,0,0,0-1.514.6c-.058.038-.134.077-.192.115a3.951,3.951,0,0,0-1.074.942c-.134.154-.268.308-.4.442a5.721,5.721,0,0,1-1.035.692l-.288.173a4.241,4.241,0,0,0-1.438,1.154,6.663,6.663,0,0,1-1.189-.4l-.115-.038a2.292,2.292,0,0,0-2.281-.077c-.077.038-.173.1-.268.135a1.625,1.625,0,0,1-.326.154,2.463,2.463,0,0,1-.46-.1,1.962,1.962,0,0,0-.268-.077,1.669,1.669,0,0,0-.211-.173,3.541,3.541,0,0,0-3.24-.212,7.619,7.619,0,0,1-1.112.231.34.34,0,0,0-.192.077,3.107,3.107,0,0,0-1.514.308l-.192.077a6.913,6.913,0,0,1-1.706.5,22.152,22.152,0,0,1-2.55.019.566.566,0,0,0-.192.038c-.115-.038-.23-.058-.345-.1a3.218,3.218,0,0,1,.958-.673c.115-.038.249-.058.383-.1a2.84,2.84,0,0,0,.633-.173,1.4,1.4,0,0,0,.728-.635c.038-.058.1-.115.153-.192.077-.1.173-.212.249-.327l.058-.058c.038-.038.058-.077.077-.1h.038a.7.7,0,0,0,.479.038,1.252,1.252,0,0,0,.441-.25.265.265,0,0,0,.077-.058c.058-.038.134-.077.211-.135a1.472,1.472,0,0,0,.786-.808,3.255,3.255,0,0,0-.173-1.961,2.262,2.262,0,0,0-.1-.212c-.326-.615-.843-.558-1.38-.5-.077,0-.134.019-.211.019a2.656,2.656,0,0,0-1.438.423,3.931,3.931,0,0,0-.671.711,1.347,1.347,0,0,0-.153.192,17.345,17.345,0,0,0-1.361,1.827c-.077.038-.192.1-.441.212l-.038.019c-.326.154-.613.288-.92.4-1.265.5-2.511,1.077-3.834,1.75-.4.212-.786.442-1.15.673-.268.173-.537.346-.824.5a3.3,3.3,0,0,1-.46.192,2.937,2.937,0,0,0-.671.308,3.423,3.423,0,0,0-1.783,2.327,1.185,1.185,0,0,0,.1.865c.058.1.115.173.173.269l.115.173A3.486,3.486,0,0,0,56.085,44.3a1.129,1.129,0,0,0,.326.346,1.362,1.362,0,0,0,1.38.019,2.723,2.723,0,0,1,.307-.1,2.507,2.507,0,0,0,.192.288c.422.538.92,1.019,1.4,1.519.134.135.249.25.364.385a4.056,4.056,0,0,0,.518.4,2.706,2.706,0,0,1,.441.346c.019.019.019.038.038.058a4.6,4.6,0,0,0,1.361,1.365l.019.019a19.526,19.526,0,0,0,2.32,2.461c-.038.019-.077.058-.115.077-.077.058-.173.115-.249.173a.355.355,0,0,0-.134.038c-.173.077-.326.115-.46.173a3.313,3.313,0,0,0-.882.385A2.6,2.6,0,0,0,61.663,53.6a2.339,2.339,0,0,0,.153,1.731,3.127,3.127,0,0,0,1.534,1.211,2.375,2.375,0,0,0,2.032-.538,3.147,3.147,0,0,1,.805-.4c.153-.038.326-.077.479-.115a4.674,4.674,0,0,0,1.687-.6c.058-.038.134-.1.23-.154a1.654,1.654,0,0,1,.345-.231.07.07,0,0,0,.058-.019h0c.173.135.364.269.518.385.288.212.575.423.843.635a5.235,5.235,0,0,0,.939.615c.115.058.23.135.364.192l.019.019a1.607,1.607,0,0,0,1.38.308.828.828,0,0,1,.1-.019.373.373,0,0,0,.153.019h.307a2.585,2.585,0,0,0,1.342-.231A9.612,9.612,0,0,0,76,55.66,1.593,1.593,0,0,1,76.347,55.295Zm-9.8-.481c-.173.038-.345.077-.5.115a3.306,3.306,0,0,0-.978.481c-.518.327-1,.635-1.514.462a2.574,2.574,0,0,1-1.169-.923h0a1.746,1.746,0,0,1-.1-1.25,1.908,1.908,0,0,1,.958-.981,2.338,2.338,0,0,1,.652-.288c-.019.019-.019.038-.038.058a.9.9,0,0,0,.019.885,4.24,4.24,0,0,0,.422.558c.038.038.077.1.115.135.652.75,1.572.4,2.3.115h.019a1.216,1.216,0,0,1,.134-.038,3.062,3.062,0,0,0,1.208-.615l.575.346a4.653,4.653,0,0,0-.422.269c-.077.058-.134.1-.192.135A4.107,4.107,0,0,1,66.551,54.814ZM58.577,43.488v-.269a3.746,3.746,0,0,0-.038-.462,4.41,4.41,0,0,1-.038-.481,10.4,10.4,0,0,1,.153-1.077c.058-.308.115-.615.153-.942a.193.193,0,1,0-.383-.038c-.038.308-.1.615-.153.9a7.358,7.358,0,0,0-.173,1.135,2.73,2.73,0,0,0,.038.558,3.464,3.464,0,0,1,.038.423v.269a2.839,2.839,0,0,0,0,.4,2.082,2.082,0,0,0-.594.154c-.364.135-.594.212-.824.058a2.1,2.1,0,0,1-.5-1.058c-.019-.058-.038-.135-.058-.192a5.682,5.682,0,0,1-.134-2.538v-.019c.038-.231.192-.923.422-1.058a1.794,1.794,0,0,1,.537-.1,3.569,3.569,0,0,0,.479-.077c.192-.058.383-.115.575-.192a6.068,6.068,0,0,1,1.054-.288,3.91,3.91,0,0,1,.824-.019,4.544,4.544,0,0,0,1.131-.077c.153-.038.288-.077.441-.115a2.3,2.3,0,0,1,1.284-.135c.019,0,.038.019.058.019h0a.183.183,0,0,0,.192.038c.537.135,1.073.288,1.591.442.709.192,1.457.4,2.185.577a.208.208,0,0,0,.1-.4c-.46-.115-.939-.231-1.4-.365.518,0,1.016,0,1.438-.038a7.658,7.658,0,0,0,1.859-.538l.192-.077a2.136,2.136,0,0,1,1.591-.192,4.82,4.82,0,0,1,2.013,1.461l.077.077a2.591,2.591,0,0,1,.824,1.577l.038.192A5.443,5.443,0,0,0,74.3,43.3c.652,1.019,1.323,2.211.958,3.346a4.733,4.733,0,0,0-.192.9c-.1.6-.173,1.115-.633,1.423a8.106,8.106,0,0,0-1.323-3.557c-.4-.577-.748-1.077-1.054-1.577-.326-.538-.441-.692-.537-.711-.019-.077-.019-.135-.038-.192a1.586,1.586,0,0,1-.038-.519.886.886,0,0,1,.077-.25.911.911,0,0,0,.057-.711h0c-.115-.231-.46-.385-.882-.577a1.275,1.275,0,0,1-.23-.115A11.818,11.818,0,0,1,69.35,40.1a3.58,3.58,0,0,0-3.01-.019,8.256,8.256,0,0,1-.863.231.163.163,0,0,0-.1.058,3.8,3.8,0,0,0-1.169.385c-.134.058-.288.135-.441.192a3.83,3.83,0,0,0-1.035.558,4.762,4.762,0,0,0-1.169,1.75c-.1.192-.173.4-.249.6-.077.173-.153.346-.211.5a3.9,3.9,0,0,0-.153,2.308l-.019-.019a2.014,2.014,0,0,1-.422-.327c-.134-.135-.249-.269-.383-.385-.46-.481-.939-.961-1.361-1.481A1.376,1.376,0,0,1,58.577,43.488Zm-4.428-2.1a2.852,2.852,0,0,1,1.5-1.923,1.7,1.7,0,0,1,.326-.154,4.737,4.737,0,0,0-.268.9v.019a5.967,5.967,0,0,0,.134,2.731l.058.173c.038.135.077.288.134.442a2.9,2.9,0,0,1-1.572-1.346,1.663,1.663,0,0,0-.134-.192C54.149,41.777,54.091,41.7,54.149,41.392Zm13.323-6.365c-.038.019-.058,0-.1,0a.512.512,0,0,0-.211-.038h-.019c-.153-.135-.288-.019-.4.077a.463.463,0,0,0-.115.154.232.232,0,0,0-.134.135,1.505,1.505,0,0,1-.249.346c-.077.1-.134.173-.192.25a.85.85,0,0,1-.46.4,2.116,2.116,0,0,1-.5.135,2.173,2.173,0,0,0-.479.115,5.2,5.2,0,0,0-1.629,1.25c-.019,0-.038-.019-.077-.019a2.764,2.764,0,0,0-1.5.135c-.134.038-.268.077-.422.115a3.573,3.573,0,0,1-1.016.058,4.78,4.78,0,0,0-.9.038,6.047,6.047,0,0,0-1.131.308c-.173.058-.364.115-.556.173-.058.019-.115.019-.192.038.134-.077.249-.154.383-.231.364-.231.728-.462,1.112-.654a38.138,38.138,0,0,1,3.776-1.731c.326-.135.633-.269.958-.423l.038-.019c.134-.077.249-.115.345-.173a.22.22,0,0,0,.23-.077.1.1,0,0,0,.038-.077.167.167,0,0,0,.077-.135,14.083,14.083,0,0,1,1.3-1.731,2.045,2.045,0,0,0,.173-.212,4.435,4.435,0,0,1,.575-.615,2.272,2.272,0,0,1,1.112-.288c.077,0,.153-.019.23-.019.575-.058.671-.077.824.327a2.579,2.579,0,0,1,.173,1.538c-.077.212-.268.327-.5.462a1.75,1.75,0,0,0-.249.154.508.508,0,0,0-.115.1A.791.791,0,0,1,67.472,35.027Zm9.01,2.6c.077-.038.153-.1.211-.115.767-.346.939-.269,1.783.077l.115.038a3.965,3.965,0,0,0,2.013.461,2.786,2.786,0,0,0,.326-.077c.249-.077.268-.077.537.115a2.137,2.137,0,0,1,.709,1.327.63.63,0,0,1-.153.519,1.873,1.873,0,0,1-1.074.327c-.058,0-.115.019-.153.019a2.8,2.8,0,0,0-.92.365h-.019a1.86,1.86,0,0,0-.556-.731,3.335,3.335,0,0,0-1.265-.519h-.019c-.479-.115-.958-.192-1.227.038a.594.594,0,0,0-.192.481.534.534,0,0,0,.058.25.648.648,0,0,0-.345.365,1.509,1.509,0,0,0-.038.961,1.921,1.921,0,0,1,.038.308.656.656,0,0,0,.019.192,1.064,1.064,0,0,0-.153.115.348.348,0,0,1-.268.115A11.064,11.064,0,0,0,76.1,40.68c0-.1.019-.212.019-.308a4.579,4.579,0,0,0-.652-2.577,1.885,1.885,0,0,0,.46.058A1.319,1.319,0,0,0,76.481,37.623Zm8.8.865c-.249.058-.518.135-.786.212a4.945,4.945,0,0,0-1.821,1.288c-.134.135-.23.25-.345.365a2.093,2.093,0,0,1-.882.692,1.84,1.84,0,0,1-1.227.077.15.15,0,0,1-.077-.154,1.912,1.912,0,0,1,.69-.269c.058,0,.1-.019.153-.019a2.236,2.236,0,0,0,1.3-.462,1.109,1.109,0,0,0,.268-.827,2.608,2.608,0,0,0-.863-1.615.812.812,0,0,0-.9-.192c-.038.019-.1.019-.153.038a3.679,3.679,0,0,1,1.093-.808l.288-.173a5.307,5.307,0,0,0,1.15-.788,5.232,5.232,0,0,0,.441-.481,3.544,3.544,0,0,1,.9-.808c.077-.038.134-.077.211-.115a3.691,3.691,0,0,1,1.284-.519,4.029,4.029,0,0,1,1.879.231c.345.135.4.269.422.692a4.031,4.031,0,0,1-1.476,2.923A2.961,2.961,0,0,1,85.28,38.488ZM70.52,45.43a1.727,1.727,0,0,1-.192.173l-.019.019a.828.828,0,0,1-.1-.019,4.184,4.184,0,0,0,.134-.462,2.036,2.036,0,0,1,.115-.365.176.176,0,0,0-.038-.212.216.216,0,0,0-.211-.058c-.058.019-.1.038-.153.058a4.1,4.1,0,0,0,.211-.635.192.192,0,0,0-.077-.212A.236.236,0,0,0,70,43.68a3.758,3.758,0,0,0,.038-.481l.019-.154a.2.2,0,0,0-.211-.212c-.058,0-.115.019-.173.019-.23.038-.307.038-.364-.038a1.115,1.115,0,0,1,.019-.615.211.211,0,0,0,.019-.212.168.168,0,0,0-.192-.1,1.364,1.364,0,0,1-.441-.115c-.019,0-.038-.019-.058-.019a.019.019,0,0,0,.019-.019.194.194,0,0,0,.1-.212.2.2,0,0,0-.173-.154.9.9,0,0,1-.173-.058c-.077-.019-.153-.058-.23-.077.038-.058.077-.1.115-.154l.019-.019a.208.208,0,0,0,.058-.135.168.168,0,0,0-.115-.173.115.115,0,0,0-.077-.019,3.45,3.45,0,0,1-.364-.1,2.547,2.547,0,0,0-.364-.1c.038-.038.1-.077.134-.115a.176.176,0,0,0,.038-.212.231.231,0,0,0-.1-.1,2.239,2.239,0,0,1,1.61.231c.422.269.786.481,1.15.673a1.55,1.55,0,0,0,.249.115,2.662,2.662,0,0,1,.709.4h0c.038.077-.019.231-.077.365a1.17,1.17,0,0,0-.1.346,2.236,2.236,0,0,0,.057.635,3.7,3.7,0,0,1,.058.423A2.643,2.643,0,0,1,70.52,45.43ZM74.737,49.6a1.734,1.734,0,0,0-.173.192c0-.077-.019-.154-.019-.212,0-.077-.019-.154-.019-.231a2.1,2.1,0,0,0,.978-1.788,6.342,6.342,0,0,1,.173-.827,3.361,3.361,0,0,0,.1-.423,2.4,2.4,0,0,1,.364,1.481v.019A12.48,12.48,0,0,1,74.737,49.6Zm1.649-3.461a4.009,4.009,0,0,0-.422-.635,4.859,4.859,0,0,0-.556-1.634,3.465,3.465,0,0,0,.537-.981c.058,0,.115-.019.153-.019v.615a1.807,1.807,0,0,0,.249.923c.077.115.153.25.23.365a1.694,1.694,0,0,1,.115.192,1.436,1.436,0,0,1,.192.961,1.573,1.573,0,0,1-.249.75A4.607,4.607,0,0,0,76.386,46.142Zm-1.629-8.557c.019.019.019.038.038.038a3.91,3.91,0,0,1,.92,2.731c0,.1-.019.212-.019.308a5.043,5.043,0,0,1-.748,2.807c-.1-.154-.192-.308-.268-.442a4.9,4.9,0,0,1-.671-2.115l-.038-.192a3.053,3.053,0,0,0-.92-1.788l-.077-.077a6.694,6.694,0,0,0-1.783-1.423c.211-.038.441-.1.652-.154a3.068,3.068,0,0,1,2.722.115A.91.91,0,0,0,74.756,37.585ZM61.472,44.469l.23-.519c.077-.192.153-.385.249-.577a4.5,4.5,0,0,1,1.073-1.615,3.483,3.483,0,0,1,.92-.481c.153-.058.307-.135.46-.192a2.853,2.853,0,0,1,1.284-.365,6.577,6.577,0,0,0,.863-.1c.077-.019.153-.019.211-.038l-.019.019a.2.2,0,0,0-.019.231.168.168,0,0,0,.192.1,1.991,1.991,0,0,1,.786.135c.038.019.077.019.115.038a.851.851,0,0,0-.115.308c0,.019,0,.019-.019.038a.233.233,0,0,0,.058.192.183.183,0,0,0,.192.038h.058c-.019.019-.038.019-.058.038a.206.206,0,0,0,.1.385,1.05,1.05,0,0,1,.46.135,2.422,2.422,0,0,0,.345.115,1.557,1.557,0,0,0,.058.75.041.041,0,0,0,.038.038.637.637,0,0,0,.671.212,3.348,3.348,0,0,1-.1.654.217.217,0,0,0,.058.212.149.149,0,0,0,.153.038c-.057.173-.153.365-.249.577a.207.207,0,0,0,.019.212.216.216,0,0,0,.211.058l.23-.058c0,.019,0,.019-.019.038a1.3,1.3,0,0,1-.249.615.21.21,0,0,0-.038.212c.038.058.1.115.153.115-.038.019-.058.038-.1.058a4.65,4.65,0,0,1-.383.269.208.208,0,0,0-.1.231.2.2,0,0,0,.115.135,3.131,3.131,0,0,0-.383.327c-.1.077-.173.173-.268.25-.422.346-.863.654-1.3,1l-.038.019a3.766,3.766,0,0,1-2.914.769,4.557,4.557,0,0,1-2.741-1.654c-.019-.019-.019-.038-.038-.038h0c-.077-.115-.173-.288-.173-.288A4,4,0,0,1,61.472,44.469Zm5.348,9.249a.487.487,0,0,1-.134.038h-.019c-.767.288-1.3.423-1.725-.077-.038-.038-.077-.1-.115-.135-.345-.4-.556-.673-.4-.981a2.117,2.117,0,0,1,.728-.692c.134-.1.268-.192.383-.288.192.173.4.365.613.558.077.077.173.154.249.231a6.64,6.64,0,0,0,1.246.942.145.145,0,0,0,.077.038A8.263,8.263,0,0,1,66.82,53.718Zm.958-.769a6.507,6.507,0,0,1-1.208-.846c-.1-.077-.173-.154-.268-.231A22.481,22.481,0,0,1,63.484,49.2a4.111,4.111,0,0,0,4.16-.577l.038-.019c.46-.346.9-.654,1.323-1,.1-.077.192-.173.288-.25a2.278,2.278,0,0,1,.671-.481A.213.213,0,0,0,70.1,46.7a.2.2,0,0,0-.1-.192.1.1,0,0,0-.077-.038c.019-.019.038-.038.058-.038.077-.058.134-.1.211-.154a.236.236,0,0,0,.153-.077c0-.019.019-.019.019-.038l.115-.058a.3.3,0,0,0,.115-.154c.057-.058.134-.115.192-.173a2.715,2.715,0,0,0,.767-1.981,2.244,2.244,0,0,1,.153.25c.326.519.652,1.019,1.073,1.615A8.185,8.185,0,0,1,74.1,49.7c0,.077.019.154.019.231.019.154.019.288.038.442a.2.2,0,0,0,.019.154,3.937,3.937,0,0,0,.192.788,4.943,4.943,0,0,0,.345.635,2.779,2.779,0,0,1,.364.711,2.258,2.258,0,0,1-.019,1.288,3.552,3.552,0,0,1-.824,1.5,6.073,6.073,0,0,1-1.38.6c-.307.1-.5-.019-.882-.231l-.019-.019c-.134-.077-.268-.154-.383-.212a3.6,3.6,0,0,1-.805-.519c-.288-.25-.594-.481-.882-.692-.173-.115-.345-.25-.5-.365A5.69,5.69,0,0,0,67.778,52.949Zm6.729,2.75a3.872,3.872,0,0,0,.958-1.692,2.618,2.618,0,0,0,.038-1.538,2.765,2.765,0,0,0-.4-.827,4.023,4.023,0,0,1-.307-.558,2.751,2.751,0,0,1-.173-.654l.019-.019a.116.116,0,0,0,.019-.077c.1-.135.23-.269.364-.423a11.92,11.92,0,0,0,1.5-1.942c.115-.192.249-.365.364-.558a1.354,1.354,0,0,1,.134-.173,2.343,2.343,0,0,0,.5-1.211,2.056,2.056,0,0,0-.268-1.365,1.294,1.294,0,0,0-.134-.212,1.654,1.654,0,0,1-.364-.942v-.442c0-.4.019-.808-.019-1.231a2.174,2.174,0,0,0-.058-.346,1.11,1.11,0,0,1,.019-.711c.038-.058.1-.173.211-.173.1,0,.211.1.288.269a1.183,1.183,0,0,1,.038.577.8.8,0,0,0,.594,1.019A.186.186,0,0,0,78,42.45c.058-.019.077-.077.1-.135a3.239,3.239,0,0,0,.077-.827.686.686,0,0,0-.23-.6l-.058-.058a1.928,1.928,0,0,0-.364-.308c-.077-.058-.134-.1-.211-.154h0a.673.673,0,0,1-.268-.365c0-.115.019-.135.038-.154.115-.1.4-.077.882.038h.019a3.567,3.567,0,0,1,1.131.442,2.171,2.171,0,0,1,.556.846c.038.1.077.173.115.269.058.1.1.192.153.269a.917.917,0,0,1,.173.481,1.99,1.99,0,0,1-.077.423c-.019.115-.058.231-.077.346l-.058.577a6.841,6.841,0,0,1-.115.9,1.809,1.809,0,0,1-.345.692,3.164,3.164,0,0,0-.268.423,5.215,5.215,0,0,0-.4,1.346,6.793,6.793,0,0,1-.192.788,9.863,9.863,0,0,0-.249,1.019A12.49,12.49,0,0,1,78,49.93c-.077.212-.173.423-.249.635-.134.346-.288.711-.4,1.077-.1.308-.211.615-.326.923a11.231,11.231,0,0,0-.422,1.211l-.019.077a1.351,1.351,0,0,1-.556.981c-.115.1-.23.192-.364.288a6.344,6.344,0,0,1-.958.692,1.327,1.327,0,0,1-.537.154C74.258,55.872,74.411,55.795,74.507,55.7ZM77.593,41.45c0-.1.019-.212.019-.327.115.115.115.135.115.327a2.118,2.118,0,0,1-.038.481C77.555,41.834,77.574,41.7,77.593,41.45Z" transform="translate(-53.496 -31.724)"/>
    </g>
    <g id="Group_1047" data-name="Group 1047" transform="translate(2545.06 68.734)">
      <path id="Path_1628" data-name="Path 1628" class="cls-11" d="M436.014,410.879c-.192-.038-.383-.077-.556-.115a4.633,4.633,0,0,0-.767-.038c-.613,0-1.361-.019-1.591-.346a2.015,2.015,0,0,0,.383-.269,2.475,2.475,0,0,0,.575-1.442,1.092,1.092,0,0,0-.153-.712c-.038-.038-.058-.1-.1-.115a21.227,21.227,0,0,0,2.818-.673c.824-.25,1.169-.231,1.514.385.518.942.153,2.115-.192,3.154-.038.135-.077.25-.115.385A6.891,6.891,0,0,1,436.014,410.879Z" transform="translate(-387.131 -397.486)"/>
      <path id="Path_1629" data-name="Path 1629" class="cls-5" d="M363.872,401.481a13.733,13.733,0,0,0-3.872-.019,2.979,2.979,0,0,1,.268,1.711,8.559,8.559,0,0,0-.038,1.019c0,.231,0,.481-.019.731a3.143,3.143,0,0,1-.038.423,6.046,6.046,0,0,1,1.9.25,7.747,7.747,0,0,0,1.534.25,17.629,17.629,0,0,0,2.013-.1c.652-.058,1.323-.115,2.013-.115.824.019,1.649-.038,2.454-.1a22.872,22.872,0,0,1,2.818-.1c.077,0,.173.019.249.019a.9.9,0,0,0,.882-.231,1.76,1.76,0,0,0,.364-1.615c-.134-.212-.479-.173-.978-.077a4.222,4.222,0,0,1-.671.077,18.588,18.588,0,0,1-4.121-.635c-.211-.058-.4-.1-.613-.135a15.622,15.622,0,0,1-1.9-.615A8.331,8.331,0,0,0,363.872,401.481Z" transform="translate(-328.044 -392.894)"/>
      <path id="Path_1630" data-name="Path 1630" class="cls-11" d="M198.112,429.219a6.277,6.277,0,0,0,1.9.019,10.5,10.5,0,0,1,1.112-.058c.4,0,.633-.019.92-.039.422-.038.958-.077,2.2-.077a1.955,1.955,0,0,1-.345-.692c-.192-.788.307-1.5,1.323-1.942a1.278,1.278,0,0,1,1.457.212,1.6,1.6,0,0,1,.23.154,1.676,1.676,0,0,0-.364-1.1,1.963,1.963,0,0,0-1.744-.481,2.541,2.541,0,0,0-.959.365,3,3,0,0,1-1.246.423,4.889,4.889,0,0,1-1.323-.173,2.943,2.943,0,0,0-1.629-.077,5.538,5.538,0,0,0-1.8,1.115c-.652.577-.958,1.192-.843,1.634C197.115,428.912,197.652,429.123,198.112,429.219Z" transform="translate(-196.272 -412.172)"/>
      <path id="Path_1631" data-name="Path 1631" class="cls-5" d="M301.793,415.2h-.115c-1,.615-2.4,1.711-2.492,2.577-.077.6,1.208,2.269,1.994,2.75a9,9,0,0,0,.767-.519.449.449,0,0,0-.153-.039,1.592,1.592,0,0,0-.288-.077.208.208,0,0,1-.153-.154.217.217,0,0,1,.057-.211l.345-.346c.134-.135.268-.288.422-.423-.134-.135-.268-.269-.383-.4a.21.21,0,0,1,0-.288,2.5,2.5,0,0,1,.441-.346l-.057-.115c-.057-.1-.115-.173-.153-.25a.326.326,0,0,1-.057-.192.239.239,0,0,1,.115-.154l.115-.058a1.023,1.023,0,0,1,.211-.1h0c-.23-.365-.345-.558-.709-.558a.211.211,0,0,1-.192-.115.2.2,0,0,1,.019-.231,3.514,3.514,0,0,1,.575-.654A1.11,1.11,0,0,0,301.793,415.2Z" transform="translate(-278.886 -404.094)"/>
      <path id="Path_1632" data-name="Path 1632" class="cls-5" d="M261.925,365.37a5.481,5.481,0,0,1-.882-1.25,4.977,4.977,0,0,0-.652-1,8.548,8.548,0,0,0-2.511-1.981,2.179,2.179,0,0,0-.978-.1,2.41,2.41,0,0,0-1.035.385c-.134.077-.288.154-.441.231a.176.176,0,0,1-.115.077A2.728,2.728,0,0,0,253.951,363c-.115.173-.249.365-.383.558-.422.558-.843,1.154-1.246,1.731-.211.288-.422.6-.613.885-.153.212-.307.4-.46.615-.288.4-.594.808-.863,1.211a8.391,8.391,0,0,0-.46.788,11.99,11.99,0,0,1-.882,1.384c-.173.212-.364.423-.537.615a5.25,5.25,0,0,0-.613.711c-.364.519-.153.788.173,1.25a3.684,3.684,0,0,1,.422.673,1.6,1.6,0,0,1,.1.346.958.958,0,0,0,.057.25.512.512,0,0,0,.422.327.339.339,0,0,0,.326-.154h0a.169.169,0,0,1,.019-.135.719.719,0,0,1,.115-.192c0-.038.019-.1.019-.135a.961.961,0,0,1,.613-.9.266.266,0,0,1,.173,0,.2.2,0,0,1,.115.135c.077.231-.1.5-.4.923v.019a.833.833,0,0,0,.537-.423c.058-.1.134-.212.192-.308a8.606,8.606,0,0,0,.537-.9,1.037,1.037,0,0,0,.1-.769c-.134-1.135.46-2.481,1.8-4a11.917,11.917,0,0,1,1.783-1.673l.058-.038c.173-.115.326-.25.5-.365.019-.019.038-.019.057-.038a1.909,1.909,0,0,1-.172-1.288,2.7,2.7,0,0,0,.019-.788.222.222,0,1,1,.441-.058,3.5,3.5,0,0,1-.019.9c-.058.519-.115.885.345,1.25a7.238,7.238,0,0,1,1.112,1.211,8.134,8.134,0,0,0,.843.981.175.175,0,0,1,.058.135,3.8,3.8,0,0,1,.709.231,6.183,6.183,0,0,0,3.163.385c.211-.019,2.013-.4,2.76-.577-.019,0-.019-.019-.038-.038a7.4,7.4,0,0,0-1.61-1.384A8.748,8.748,0,0,1,261.925,365.37Z" transform="translate(-237.273 -360.34)"/>
      <path id="Path_1633" data-name="Path 1633" class="cls-6" d="M345,399.577c.038.25.057.558.077.942v.192a2.482,2.482,0,0,0,.173,1.135,3.875,3.875,0,0,1,.863.711l.038.038a2.753,2.753,0,0,1,.728,1.788h.077a.816.816,0,0,0,.307,0h.115a4.8,4.8,0,0,0,.288-2.1,9.583,9.583,0,0,1,.038-1.077,2.262,2.262,0,0,0-.882-2.211,5.753,5.753,0,0,0-.613.212A5.55,5.55,0,0,1,345,399.577Z" transform="translate(-315.92 -391.01)"/>
      <path id="Path_1634" data-name="Path 1634" class="cls-5" d="M239.178,437.317c.326.231.652.462.978.654a2.636,2.636,0,0,0,1.227.308c.153.019.307.019.479.038a4.878,4.878,0,0,1,.767.192,2.944,2.944,0,0,0,.326.1c-.038-.192-.1-.4-.153-.615a6.948,6.948,0,0,1-.288-1.673v-.25a9.378,9.378,0,0,1,.1-1.731,8.218,8.218,0,0,0-2.971-.327H239.6a3.8,3.8,0,0,1-1.84-.25h0a6.173,6.173,0,0,1-.556-.327c-.383-.25-.556-.385-1.054-.173-.307.135-1.284.615-1.074,1.442.211.865,1.131,1.192,2.013,1.519a9.768,9.768,0,0,1,1,.4A8.068,8.068,0,0,1,239.178,437.317Z" transform="translate(-227.044 -418.597)"/>
      <path id="Path_1635" data-name="Path 1635" class="cls-8" d="M320.006,413.942a2.372,2.372,0,0,0-.613-1.75l-.038-.038a6.716,6.716,0,0,0-3.911-1.615,3.745,3.745,0,0,0-1.629.115c-.1.039-.575.288-.863.462h0c.115.019.211.058.307.077a.233.233,0,0,1,.153.192.221.221,0,0,1-.115.212,2.085,2.085,0,0,0-.633.519,1.422,1.422,0,0,1,.69.692,2.5,2.5,0,0,0,.192.289.237.237,0,0,1,.019.25.193.193,0,0,1-.211.1.612.612,0,0,0-.268.019c.019.038.038.058.057.1a1.4,1.4,0,0,0,.172.25.325.325,0,0,1,.058.192.3.3,0,0,1-.115.154,2.179,2.179,0,0,0-.383.25,3.458,3.458,0,0,0,.383.365.244.244,0,0,1,.077.173.238.238,0,0,1-.077.154,4.874,4.874,0,0,0-.556.538l-.1.1c.153.038.326.1.479.135a.208.208,0,0,1,.153.154.218.218,0,0,1-.057.212,5.409,5.409,0,0,1-.882.692,4.258,4.258,0,0,1,.518.365,2.909,2.909,0,0,0,.556.385,4.5,4.5,0,0,0,1.764.385,4.126,4.126,0,0,0,2.914-.692,5.453,5.453,0,0,0,1.955-3.423Z" transform="translate(-289.488 -400.298)"/>
      <path id="Path_1636" data-name="Path 1636" class="cls-6" d="M277.165,440.915c.748.615,2.089.385,3.259.173a10.188,10.188,0,0,1,1.591-.192,4.575,4.575,0,0,1,.863.077,1.979,1.979,0,0,0,1.227-.154.708.708,0,0,1-.211-.1,2.03,2.03,0,0,1-.441-.365c-.23-.231-.383-.365-.594-.308a.22.22,0,0,1-.23-.077c-1.169-1.4-2.856-3.461-3.259-5.673a5.856,5.856,0,0,1-.959.231c-.633.115-1.687.327-1.84.577a5.751,5.751,0,0,0-.173,1.9v.269a6.325,6.325,0,0,0,.268,1.558l.173.692a3.676,3.676,0,0,1,.058.615A.829.829,0,0,0,277.165,440.915Z" transform="translate(-260.468 -419.522)"/>
      <path id="Path_1637" data-name="Path 1637" class="cls-5" d="M323.576,463.738c.211.173.211.173.479.115l.23-.038a3.733,3.733,0,0,0,1.38-.423,3.708,3.708,0,0,1,1.917-.423,8.757,8.757,0,0,0,4.083-.654,4.435,4.435,0,0,1,1.419-.385c.805-.135,1.553-.25,1.917-.961a.918.918,0,0,0,.058-.711,3.58,3.58,0,0,0-1.764-1.577c-.134-.058-.288-.135-.422-.192a10.922,10.922,0,0,0-3.048-1.1,1.5,1.5,0,0,0-.268-.038,1.952,1.952,0,0,1-1.572-.884h-.019a4.385,4.385,0,0,1-1.936,0,4.854,4.854,0,0,0-1.572-.058,4.2,4.2,0,0,0-2.262,1.481.573.573,0,0,0-.1.288l.019.019.268.269a4.191,4.191,0,0,0,2.2,1.5,7.847,7.847,0,0,0,2.185-.192,3.689,3.689,0,0,1,2.262.461,5.56,5.56,0,0,0,1.419.461.228.228,0,0,1,.192.231v.019a.248.248,0,0,1-.249.192,5.744,5.744,0,0,1-1.534-.5h-.019a2.623,2.623,0,0,1-.843.231c-.077.019-.153.019-.23.038a5.924,5.924,0,0,0-.9.269,2.324,2.324,0,0,1-2.243.038l-.058-.038a.937.937,0,0,0-.537-.212h-.1a2.285,2.285,0,0,0-.364,0,.5.5,0,0,0-.173.1,1.2,1.2,0,0,1-.23.173.768.768,0,0,1-.288.058.516.516,0,0,0-.288.1.76.76,0,0,0-.307.577C322.273,462.411,322.713,463.007,323.576,463.738Z" transform="translate(-297.41 -437.345)"/>
      <path id="Path_1638" data-name="Path 1638" class="cls-11" d="M304.765,406.838a4.619,4.619,0,0,0-.1-1.711,6.778,6.778,0,0,1-1.323,1.5,4.644,4.644,0,0,1-3.221.788,5.2,5.2,0,0,1-1.936-.423,2.693,2.693,0,0,1-.633-.442,4.149,4.149,0,0,0-.556-.385c-.057-.019-.115-.038-.192-.058h-.019a.194.194,0,0,1-.134-.077c-.978-.538-2.339-2.4-2.243-3.192.153-1.327,2.415-2.769,3.182-3.173a.373.373,0,0,1,.153-.019.067.067,0,0,0,.038-.019,7.8,7.8,0,0,1,.958-.5,4.611,4.611,0,0,1,1.8-.115,8.993,8.993,0,0,1,2.78.75,4.283,4.283,0,0,1-.058-.846v-.192a3.739,3.739,0,0,0-.1-1.019c-.019-.019-.019-.038-.019-.077h0a2.7,2.7,0,0,0-.441-.827c0,.019-.019.058-.019.077-.057.1-.077.115-1.629.462-.69.154-1.514.308-1.668.327a6.553,6.553,0,0,1-3.374-.423c-.767-.327-1.15-.4-1.649.327a2.4,2.4,0,0,0-.211,1.615c0,.115.019.231.019.346a7.99,7.99,0,0,1-.192,1.923,10.162,10.162,0,0,0-.192,1.692c.038,2.346,1.879,4.634,3.163,6.192a1.079,1.079,0,0,1,.863.423,1.27,1.27,0,0,0,.364.289,2.072,2.072,0,0,0,.575.154,1.18,1.18,0,0,1,.173-.6,4.5,4.5,0,0,1,2.55-1.692,5.688,5.688,0,0,1,1.706.058,4.9,4.9,0,0,0,1.572.058A8.247,8.247,0,0,1,304.765,406.838Z" transform="translate(-274.535 -389.233)"/>
      <path id="Path_1639" data-name="Path 1639" class="cls-10" d="M212.872,357.457a3.173,3.173,0,0,0-1.3.462,3.525,3.525,0,0,1-.728.327.4.4,0,0,0-.268.192,3.816,3.816,0,0,0-1.131,1.288c-.115.173-.23.346-.364.519-.422.577-.843,1.173-1.246,1.75-.211.288-.4.6-.613.885-.153.212-.288.4-.441.615a14.9,14.9,0,0,0-.882,1.269c-.173.269-.326.558-.479.827a11.529,11.529,0,0,1-.824,1.308,6.516,6.516,0,0,1-.5.558,7.236,7.236,0,0,0-.69.808,1.694,1.694,0,0,0-.307.827,1.494,1.494,0,0,0,.326.961,3.028,3.028,0,0,0-1.668-.211,3.333,3.333,0,0,0-1.208.423,2.5,2.5,0,0,1-.978.346,4.574,4.574,0,0,1-1.131-.154,3.636,3.636,0,0,0-1.994-.077,6.125,6.125,0,0,0-2.051,1.269,2.923,2.923,0,0,0-1.093,1.865,1.728,1.728,0,0,0,.038.442c.115.423.479,1,1.61,1.231a7.071,7.071,0,0,0,2.109.038,9.687,9.687,0,0,1,1.054-.058c.422,0,.69-.019.978-.038a23.824,23.824,0,0,1,2.55-.058,6.234,6.234,0,0,0,1.457.673,6.748,6.748,0,0,1,.9.365,11.414,11.414,0,0,1,1.016.654,11.114,11.114,0,0,0,1.054.692,3.379,3.379,0,0,0,1.5.385c.134.019.288.019.441.038a5.67,5.67,0,0,1,.652.173,2.306,2.306,0,0,0,.345.1,1.547,1.547,0,0,0,.537,1.25c1,.788,2.473.538,3.8.308a7.267,7.267,0,0,1,1.476-.173,6.3,6.3,0,0,1,.767.058,3.147,3.147,0,0,0,2.128-.442h.058a8.256,8.256,0,0,0,1.514,1.288h-.038a.9.9,0,0,0-.46.269l-.038.038a.826.826,0,0,1-.1.019,1.159,1.159,0,0,0-.652.25,1.388,1.388,0,0,0-.537,1.019v.058c0,.673.5,1.442,1.534,2.307a.922.922,0,0,0,1.016.269l.211-.038a4.051,4.051,0,0,0,1.61-.519,3.175,3.175,0,0,1,1.572-.327,9.291,9.291,0,0,0,4.409-.731,4.089,4.089,0,0,1,1.208-.327,2.855,2.855,0,0,0,2.4-1.327,1.611,1.611,0,0,0,.1-1.231,3.958,3.958,0,0,0-2.128-1.961c-.134-.058-.268-.135-.422-.192a12.373,12.373,0,0,0-3.22-1.154,1.473,1.473,0,0,0-.288-.038c-.69-.115-.748-.115-1.265-.769l-.077-.077v-.538c0-.1.019-.212.019-.308,0-.115.019-.212.019-.327a4.048,4.048,0,0,0-.249-1.884,4.419,4.419,0,0,0,.46-1.365h.4a.464.464,0,0,0,.422-.212,2.081,2.081,0,0,0,.288-.731,5.955,5.955,0,0,1,1.629.231,8.644,8.644,0,0,0,1.668.269,14.9,14.9,0,0,0,2.09-.115c.633-.058,1.284-.115,1.936-.115.863.019,1.706-.038,2.53-.1a26.114,26.114,0,0,1,2.741-.1.718.718,0,0,1,.211.019h.019c.1,0,.192.019.288.019.4.654,1.419.673,2.166.673a3.306,3.306,0,0,1,.671.038,3.4,3.4,0,0,1,.537.115,4.575,4.575,0,0,0,2.262.115.425.425,0,0,0,.288-.308c.038-.154.1-.308.153-.481a8.159,8.159,0,0,0,.479-2.1,2.884,2.884,0,0,0-.326-1.6c-.613-1.115-1.476-.942-2.3-.692a17.679,17.679,0,0,1-3.24.731.5.5,0,0,0-.249.115,3.864,3.864,0,0,0-.5.077,3.193,3.193,0,0,1-.556.077A17.6,17.6,0,0,1,234,366.86h-.038c-.192-.038-.383-.1-.575-.135a12.362,12.362,0,0,1-1.8-.6,12.369,12.369,0,0,0-2.4-.731,14.9,14.9,0,0,0-4.141-.019,2.23,2.23,0,0,0-.556-.481c-.019-.019-.038-.019-.038-.038a.574.574,0,0,0-.192-.077.421.421,0,0,0-.268.038l-.69.231a9.225,9.225,0,0,1-.958.308,5.98,5.98,0,0,0-.633-1.019.446.446,0,0,0-.537-.154.266.266,0,0,1-.057-.077.835.835,0,0,0-.115-.135.409.409,0,0,0-.345-.173,13.113,13.113,0,0,0-1.112-.846,10.937,10.937,0,0,1-1.188-.923,5.074,5.074,0,0,1-.767-1.1,7.38,7.38,0,0,0-.728-1.115,9.155,9.155,0,0,0-2.741-2.154A2.122,2.122,0,0,0,212.872,357.457Zm29.31,13.384c-.192-.038-.383-.077-.556-.115a4.63,4.63,0,0,0-.767-.038c-.613,0-1.361-.019-1.591-.346a2.015,2.015,0,0,0,.383-.269,2.475,2.475,0,0,0,.575-1.442,1.092,1.092,0,0,0-.153-.712c-.038-.038-.058-.1-.1-.115a21.238,21.238,0,0,0,2.818-.673c.824-.25,1.169-.231,1.514.385.518.942.153,2.115-.192,3.154-.038.135-.077.25-.115.385A6.886,6.886,0,0,1,242.183,370.84Zm-8.895-3.5c.211.039.4.1.613.135a18.585,18.585,0,0,0,4.122.635,4.221,4.221,0,0,0,.671-.077c.518-.1.863-.135.978.077a1.709,1.709,0,0,1-.364,1.615c-.288.288-.479.269-.882.231-.077,0-.153-.019-.249-.019a22.73,22.73,0,0,0-2.818.1c-.805.058-1.649.115-2.454.1a13.976,13.976,0,0,0-2.013.115,17.628,17.628,0,0,1-2.013.1,7.74,7.74,0,0,1-1.534-.25,6.664,6.664,0,0,0-1.9-.25c.019-.135.019-.269.038-.423.019-.25.019-.5.019-.731a8.4,8.4,0,0,1,.038-1.019,2.978,2.978,0,0,0-.268-1.711,14.488,14.488,0,0,1,3.872.019,10.587,10.587,0,0,1,2.262.692A9.11,9.11,0,0,0,233.288,367.341ZM218.47,381.474a.515.515,0,0,1,.288-.1.944.944,0,0,0,.288-.058.557.557,0,0,0,.23-.173c.057-.058.1-.1.173-.1a1.157,1.157,0,0,1,.364,0h.1a.991.991,0,0,1,.537.212l.058.038a2.322,2.322,0,0,0,2.243-.038,4.861,4.861,0,0,1,.9-.269c.077-.019.153-.019.23-.039a2.211,2.211,0,0,0,.843-.231h.019a5.743,5.743,0,0,0,1.534.5.217.217,0,0,0,.249-.192v-.019a.228.228,0,0,0-.192-.231,6.121,6.121,0,0,1-1.419-.461,3.828,3.828,0,0,0-2.262-.462,8.656,8.656,0,0,1-2.185.192,4.191,4.191,0,0,1-2.2-1.5,3.553,3.553,0,0,0-.268-.269l-.019-.019a2.533,2.533,0,0,1,.1-.288,4.194,4.194,0,0,1,2.262-1.481,4.853,4.853,0,0,1,1.572.058,4.383,4.383,0,0,0,1.936,0h.019a2,2,0,0,0,1.572.885c.077.019.173.019.268.038a12.291,12.291,0,0,1,3.048,1.1c.134.058.268.135.422.192a3.58,3.58,0,0,1,1.764,1.577.842.842,0,0,1-.058.712c-.364.711-1.112.827-1.917.961a4.3,4.3,0,0,0-1.419.385,8.758,8.758,0,0,1-4.083.654,3.708,3.708,0,0,0-1.917.423,3.625,3.625,0,0,1-1.38.423l-.23.038c-.268.038-.268.038-.479-.115-.863-.731-1.284-1.327-1.284-1.788A.789.789,0,0,1,218.47,381.474Zm-23.617-9.365a5.233,5.233,0,0,1,1.8-1.115,2.943,2.943,0,0,1,1.629.077,4.311,4.311,0,0,0,1.323.173,3,3,0,0,0,1.246-.423,2.808,2.808,0,0,1,.959-.365,1.945,1.945,0,0,1,1.744.481,1.49,1.49,0,0,1,.364,1.1c-.077-.058-.153-.1-.23-.154a1.311,1.311,0,0,0-1.457-.211c-1.016.442-1.514,1.173-1.323,1.942a1.683,1.683,0,0,0,.345.692,17.526,17.526,0,0,0-2.2.077c-.288.019-.518.038-.92.038-.383,0-.748.038-1.112.058a6.272,6.272,0,0,1-1.9-.019c-.441-.1-1-.308-1.112-.75C193.894,373.3,194.22,372.686,194.853,372.11Zm11.118-.423h0a1.632,1.632,0,0,0,1.208-.788c.057-.1.134-.192.192-.308.192-.308.4-.635.575-.961a1.326,1.326,0,0,0,.192-.654,2.373,2.373,0,0,0-.038-.5c-.115-.942.441-2.115,1.629-3.48a11.427,11.427,0,0,1,1.668-1.577l.057-.038c.134-.115.288-.212.441-.327a7.6,7.6,0,0,1,.9,1.019c.153.192.307.4.479.615a1.972,1.972,0,0,0-.69.692,2.5,2.5,0,0,0-.364,1.192,6.24,6.24,0,0,0,.019.846c0,.115.019.212.019.327v.423a8.989,8.989,0,0,1-.192,1.365,12.491,12.491,0,0,0-.192,1.481v.327a1.274,1.274,0,0,0,.019.269,7.355,7.355,0,0,1-.786.173,4.966,4.966,0,0,0-2.147.711,9.085,9.085,0,0,0-3.067-.327h-.038a4.442,4.442,0,0,1-1.246-.077v-.115a1.2,1.2,0,0,0,.422.135A1,1,0,0,0,205.971,371.686Zm-4.62,1.865c-.211-.827.767-1.308,1.074-1.442.5-.212.671-.1,1.054.173a6.169,6.169,0,0,0,.556.327h0a3.767,3.767,0,0,0,1.84.25h.038a8.607,8.607,0,0,1,2.971.327,9.377,9.377,0,0,0-.1,1.731v.25a6.122,6.122,0,0,0,.288,1.673c.058.212.115.423.153.615a2.937,2.937,0,0,1-.326-.1,4.407,4.407,0,0,0-.767-.192,4.361,4.361,0,0,0-.479-.038,2.826,2.826,0,0,1-1.227-.308,7.884,7.884,0,0,1-.978-.654,10.68,10.68,0,0,0-1.093-.712,5.991,5.991,0,0,0-1-.4C202.482,374.725,201.562,374.4,201.351,373.552Zm8.3,3.865c-.038-.231-.115-.461-.173-.692a6.322,6.322,0,0,1-.268-1.558V374.9a6.378,6.378,0,0,1,.173-1.9,5.314,5.314,0,0,1,1.84-.577,5.859,5.859,0,0,0,.958-.231c.4,2.211,2.09,4.269,3.259,5.673a.246.246,0,0,0,.23.077c.211-.058.345.058.594.308a2.031,2.031,0,0,0,.441.365,2.26,2.26,0,0,0,.211.1,1.849,1.849,0,0,1-1.227.154,4.568,4.568,0,0,0-.863-.077,10.467,10.467,0,0,0-1.591.192c-1.169.212-2.511.423-3.259-.173a.859.859,0,0,1-.288-.788A2.255,2.255,0,0,0,209.652,377.417Zm12.288-1.25a5.106,5.106,0,0,0-1.706-.058,4.536,4.536,0,0,0-2.55,1.692,1.236,1.236,0,0,0-.173.6,1.9,1.9,0,0,1-.575-.154,3.934,3.934,0,0,1-.364-.288,1.079,1.079,0,0,0-.863-.423c-1.284-1.538-3.125-3.846-3.163-6.192a10.171,10.171,0,0,1,.192-1.692,8.084,8.084,0,0,0,.192-1.923c0-.115-.019-.231-.019-.346a2.677,2.677,0,0,1,.211-1.615c.479-.712.863-.654,1.649-.327a6.552,6.552,0,0,0,3.374.423c.153-.019.978-.173,1.668-.327,1.553-.327,1.553-.346,1.629-.461a.116.116,0,0,0,.019-.077,3.536,3.536,0,0,1,.441.827h0c0,.019.019.058.019.077a3.737,3.737,0,0,1,.1,1.019v.192a4.284,4.284,0,0,0,.058.846,8.864,8.864,0,0,0-2.78-.75,4.61,4.61,0,0,0-1.8.115,9.727,9.727,0,0,0-.958.5.067.067,0,0,0-.038.019.227.227,0,0,0-.153.019c-.767.4-3.029,1.827-3.182,3.173-.1.788,1.284,2.634,2.243,3.192a.309.309,0,0,0,.134.077h.019a.73.73,0,0,0,.192.058,2.906,2.906,0,0,1,.556.385,6.313,6.313,0,0,0,.633.442,4.7,4.7,0,0,0,1.936.423,4.644,4.644,0,0,0,3.22-.788,7.245,7.245,0,0,0,1.323-1.5,4.6,4.6,0,0,1,.1,1.711c-.019.385-.038.769-.019,1.173A4.272,4.272,0,0,1,221.939,376.167Zm-6.019-6.9a.243.243,0,0,0-.019.231.211.211,0,0,0,.192.115c.364,0,.5.192.709.558h0a.709.709,0,0,0-.211.1l-.115.058a.167.167,0,0,0-.115.154.185.185,0,0,0,.058.192.791.791,0,0,1,.153.25l.057.115a3.89,3.89,0,0,0-.441.346.21.21,0,0,0,0,.288c.115.135.249.269.383.4-.153.135-.288.288-.422.423l-.345.346a.217.217,0,0,0-.058.212.208.208,0,0,0,.153.154c.1.019.192.058.288.077.058.019.1.019.153.038a5.977,5.977,0,0,1-.767.519c-.786-.461-2.051-2.154-1.994-2.75.1-.846,1.5-1.961,2.492-2.577h.115c.1.019.173.058.268.077A7.484,7.484,0,0,0,215.92,369.264Zm5.9,5.25a4.355,4.355,0,0,1-2.914.692,4.655,4.655,0,0,1-1.764-.385,2.906,2.906,0,0,1-.556-.385,4.267,4.267,0,0,0-.518-.365,7.785,7.785,0,0,0,.882-.692.218.218,0,0,0,.058-.212.208.208,0,0,0-.153-.154,4.44,4.44,0,0,1-.479-.135l.1-.1a7.231,7.231,0,0,1,.556-.538.175.175,0,0,0,.077-.154.235.235,0,0,0-.077-.173c-.134-.115-.268-.25-.383-.365a2.169,2.169,0,0,1,.383-.25.3.3,0,0,0,.115-.154.2.2,0,0,0-.058-.192,1.4,1.4,0,0,1-.173-.25c-.019-.038-.038-.058-.057-.1a.409.409,0,0,1,.268-.019.181.181,0,0,0,.211-.1.237.237,0,0,0-.019-.25,2.507,2.507,0,0,1-.192-.288,1.506,1.506,0,0,0-.69-.692,1.877,1.877,0,0,1,.633-.519.194.194,0,0,0,.115-.212.2.2,0,0,0-.153-.192,1.784,1.784,0,0,0-.307-.077h0c.288-.154.767-.423.863-.461a4.51,4.51,0,0,1,1.629-.115,6.67,6.67,0,0,1,3.911,1.615l.038.038a2.372,2.372,0,0,1,.613,1.75h0A5.133,5.133,0,0,1,221.824,374.513Zm3.278-6.846a9.575,9.575,0,0,0-.038,1.077,5.052,5.052,0,0,1-.288,2.1h-.115a1.633,1.633,0,0,1-.307,0h-.077a2.834,2.834,0,0,0-.728-1.788l-.038-.038a4.364,4.364,0,0,0-.863-.712,3.131,3.131,0,0,1-.173-1.134v-.192a4.445,4.445,0,0,0-.077-.942,7.622,7.622,0,0,0,1.227-.365,5.765,5.765,0,0,1,.613-.212A2.274,2.274,0,0,1,225.1,367.668Zm-4.275-2.827c0,.019.019.019.038.038-.728.173-2.55.558-2.76.577a6.4,6.4,0,0,1-3.163-.385,3.793,3.793,0,0,0-.709-.231.175.175,0,0,0-.058-.135,8.136,8.136,0,0,1-.843-.981,5.449,5.449,0,0,0-1.112-1.211c-.46-.365-.4-.731-.345-1.25a2.819,2.819,0,0,0,.019-.9.222.222,0,1,0-.441.058,3.585,3.585,0,0,1-.019.788,1.816,1.816,0,0,0,.173,1.288c-.019.019-.038.019-.058.038-.173.115-.345.25-.5.365l-.058.038a11,11,0,0,0-1.783,1.673c-1.342,1.519-1.936,2.865-1.8,4a1.051,1.051,0,0,1-.1.769,8.616,8.616,0,0,1-.537.9c-.058.1-.134.212-.192.308a.833.833,0,0,1-.537.423v-.019c.288-.423.479-.673.4-.923a.258.258,0,0,0-.115-.135.266.266,0,0,0-.173,0,.979.979,0,0,0-.613.9c0,.038-.019.1-.019.135a1.7,1.7,0,0,1-.115.192.328.328,0,0,0-.019.135h0a.339.339,0,0,1-.326.154.56.56,0,0,1-.422-.327.956.956,0,0,1-.058-.25,1.353,1.353,0,0,0-.1-.346,3.342,3.342,0,0,0-.422-.673c-.326-.442-.537-.711-.173-1.25a5.255,5.255,0,0,1,.613-.711,5.6,5.6,0,0,0,.537-.615,11.989,11.989,0,0,0,.882-1.384c.153-.269.307-.538.46-.788a13.776,13.776,0,0,1,.863-1.211c.153-.212.307-.4.46-.615.211-.288.422-.6.613-.885.4-.577.805-1.173,1.246-1.731.134-.192.268-.365.383-.558a2.578,2.578,0,0,1,1.361-1.269.4.4,0,0,0,.115-.077c.153-.077.307-.154.441-.231a2.687,2.687,0,0,1,1.035-.385,2.179,2.179,0,0,1,.978.1,8.548,8.548,0,0,1,2.511,1.981,4.98,4.98,0,0,1,.652,1,5.092,5.092,0,0,0,.882,1.25,12.008,12.008,0,0,0,1.265,1A6.628,6.628,0,0,1,220.828,364.841Zm1.955,15.71c-.077.038-.172.058-.249.1-.633.231-1.131.4-1.61.135a13.127,13.127,0,0,0,1.859-.231Z" transform="translate(-193.3 -357.447)"/>
    </g>
    <path id="Path_1705" data-name="Path 1705" class="cls-12" d="M144.8,235.942v.577c.077,13.114,11.751,23.71,26.032,23.633a1.476,1.476,0,1,0-.019-2.942C158.3,257.287,148.059,248,148,236.5V236a1.542,1.542,0,0,0-1.572-1.5h-.038A1.564,1.564,0,0,0,144.8,235.942Z" transform="translate(2390.962 -189.407)"/>
  </g>
</svg>
