<svg xmlns="http://www.w3.org/2000/svg" xmlns:xlink="http://www.w3.org/1999/xlink" viewBox="0 0 80 120">
  <defs>
    <style>
      .cls-1 {
        clip-path: url(#clip-Test_Ended_Successfuly);
      }

      .cls-2 {
        fill: #43ba8a;
      }

      .cls-3, .cls-4, .cls-6 {
        fill: none;
      }

      .cls-3, .cls-4 {
        stroke: #333a4d;
        stroke-miterlimit: 10;
        stroke-width: 4px;
      }

      .cls-3 {
        stroke-linecap: round;
      }

      .cls-5 {
        stroke: none;
      }

      .cls-7 {
        fill: #fff;
      }
    </style>
    <clipPath id="clip-Test_Ended_Successfuly">
      <rect width="80" height="120"/>
    </clipPath>
  </defs>
  <g id="Test_Ended_Successfuly" data-name="Test Ended Successfuly" class="cls-1">
    <rect class="cls-7" width="80" height="120"/>
    <ellipse id="Ellipse_1" data-name="Ellipse 1" class="cls-2" cx="6.14" cy="6.163" rx="6.14" ry="6.163" transform="translate(40.722 107.674)"/>
    <ellipse id="Ellipse_2" data-name="Ellipse 2" class="cls-2" cx="15.079" cy="15.136" rx="15.079" ry="15.136" transform="translate(31.783 68.885)"/>
    <ellipse id="Ellipse_3" data-name="Ellipse 3" class="cls-2" cx="4.876" cy="4.894" rx="4.876" ry="4.894" transform="translate(59.955 1)"/>
    <ellipse id="Ellipse_4" data-name="Ellipse 4" class="cls-2" cx="7.494" cy="7.523" rx="7.494" ry="7.523" transform="translate(10.835 12.148)"/>
    <ellipse id="Ellipse_5" data-name="Ellipse 5" class="cls-2" cx="8.668" cy="8.701" rx="8.668" ry="8.701" transform="translate(58.691 92.813)"/>
    <ellipse id="Ellipse_6" data-name="Ellipse 6" class="cls-2" cx="37.562" cy="37.704" rx="37.562" ry="37.704" transform="translate(5 13.689)"/>
    <path id="Path_1" data-name="Path 1" class="cls-3" d="M15.9,63.6h0c14,22.205,34.4,22.568,48.578.816l.542-.816" transform="translate(-3.349 -5.953)"/>
    <g id="Ellipse_7" data-name="Ellipse 7" class="cls-4" transform="translate(0 13.054)">
      <circle class="cls-5" cx="36" cy="36" r="36"/>
      <circle class="cls-6" cx="36" cy="36" r="34"/>
    </g>
  </g>
</svg>
