<svg xmlns="http://www.w3.org/2000/svg" xmlns:xlink="http://www.w3.org/1999/xlink" viewBox="1332 0 147 128">
  <defs>
    <style>
      .cls-1 {
        clip-path: url(#clip-choose_a_json);
      }

      .cls-2 {
        fill: #212224;
      }

      .cls-3 {
        fill: #6153a3;
      }

      .cls-4 {
        fill: #6fc7b3;
      }

      .cls-5 {
        fill: #4f478d;
      }

      .cls-6 {
        opacity: 0.3;
      }

      .cls-7 {
        fill: #fff;
      }

      .cls-8 {
        fill: #e8e8e8;
      }

      .cls-13, .cls-18, .cls-9 {
        fill: #bebec0;
      }

      .cls-10 {
        fill: #86cae0;
      }

      .cls-11 {
        fill: #68aab9;
      }

      .cls-12 {
        fill: #3a3a3c;
      }

      .cls-13 {
        opacity: 0.49;
      }

      .cls-14 {
        fill: #603917;
      }

      .cls-15 {
        fill: #4d2e16;
      }

      .cls-16 {
        fill: #e92537;
      }

      .cls-17 {
        fill: #c1202e;
      }

      .cls-18 {
        opacity: 0.15;
      }

      .cls-19 {
        fill: #f4be7e;
      }

      .cls-20 {
        fill: #faa74e;
      }
    </style>
    <clipPath id="clip-choose_a_json">
      <rect x="1332" width="147" height="128"/>
    </clipPath>
  </defs>
  <g id="choose_a_json" data-name="choose a json" class="cls-1">
    <rect class="cls-7" x="1332" width="147" height="128"/>
    <g id="Group_1043" data-name="Group 1043" transform="translate(1332 0)">
      <path id="Path_1640" data-name="Path 1640" class="cls-2" d="M151.4,156.492a14.07,14.07,0,0,0,.648-2.654,7.819,7.819,0,0,0-.921-4.457,11.491,11.491,0,0,0-5.865-4.8c-5.046-2.076-10.706-1.905-16.059-2.348-.75-.068-1.671-.238-1.909-.953s.375-1.4.955-1.905c3.341-2.79,7.365-4.627,11.32-6.431,7.978-3.641,19.571-13.814,11.729-23-7.228-8.438-20.935-9.663-31.232-11.024a170.829,170.829,0,0,0-41.051-.374,50.565,50.565,0,0,0-18.31,5.546c-6.478,3.436-18.037,12.181-16.161,20.823.58,2.654,2.694,4.729,4.978,6.261,5.694,3.879,12.718,5.444,18.582,9.05a12.118,12.118,0,0,1,4.092,3.675,5.342,5.342,0,0,1-2.319,8.064,13.241,13.241,0,0,1-5.66.953c-4.842.034-9.649-.749-14.457-.442S39.9,154.315,36.8,157.989c6.99-.476,14.15-.1,21.174-.1h92.434C150.783,157.921,151.124,157.275,151.4,156.492Z" transform="translate(-24.253 -64.32)"/>
      <path id="Path_1641" data-name="Path 1641" class="cls-3" d="M140.354,275.8H26.542a20.8,20.8,0,0,0-4.637,8.37C14.165,309.348,117.919,310.709,140.354,275.8Z" transform="translate(-14.165 -181.961)"/>
      <g id="Group_1052" data-name="Group 1052" transform="translate(0 92.376)">
        <path id="Path_1642" data-name="Path 1642" class="cls-4" d="M0,272.861c11.286-.578,22.606-.851,33.891-1.055,5.66-.136,11.286-.17,16.946-.238l16.946-.068,16.946.068,8.456.1,4.228.034,4.228.068c11.286.2,22.606.51,33.891,1.055-11.286.578-22.606.851-33.891,1.055l-4.228.068-4.228.034-8.456.1-16.946.068-16.946-.068c-5.66-.068-11.286-.1-16.946-.238C22.606,273.746,11.286,273.439,0,272.861Z" transform="translate(0 -271.5)"/>
      </g>
      <path id="Path_1643" data-name="Path 1643" class="cls-4" d="M353.376,145.538a1.787,1.787,0,0,1,.136,2.11c-.75,1.225-1.5,3.164,1.6,2.79,4.432-.544,19.605-2.654,12.616-5.92s-.784,0,1.807-4.9c2.625-4.9-8.66,5.512-16.673,2.654s-20.969,2.892-10.979,4.423C350.75,148.09,351.33,143.191,353.376,145.538Z" transform="translate(-222.925 -91.235)"/>
      <ellipse id="Ellipse_56" data-name="Ellipse 56" class="cls-3" cx="13.263" cy="13.236" rx="13.263" ry="13.236" transform="translate(12.65 35.726)"/>
      <path id="Path_1644" data-name="Path 1644" class="cls-5" d="M58.069,130.011A13.25,13.25,0,1,1,46.715,106.5a13.239,13.239,0,0,0,7.706,24.021A12.946,12.946,0,0,0,58.069,130.011Z" transform="translate(-24.45 -70.264)"/>
      <path id="Path_1645" data-name="Path 1645" class="cls-5" d="M58.814,121.437a5.2,5.2,0,0,1-.546.749c-1.057,1.191-2.455,1.633-3.171,1.021-.682-.612-.375-2.075.682-3.232a3.884,3.884,0,0,1,.375-.374c-.58.987-.682,2.007-.136,2.518C56.632,122.662,57.826,122.356,58.814,121.437Z" transform="translate(-36.072 -78.907)"/>
      <path id="Path_1646" data-name="Path 1646" class="cls-5" d="M99.324,149.859c-.511,1.089-1.534,1.7-2.284,1.361-.716-.306-.955-1.327-.58-2.348a1.425,1.425,0,0,0,.75,1.327c.75.34,1.773-.272,2.284-1.361.034-.068.068-.17.1-.238A2.557,2.557,0,0,1,99.324,149.859Z" transform="translate(-63.455 -98.04)"/>
      <path id="Path_1647" data-name="Path 1647" class="cls-5" d="M90.476,120.219a5.892,5.892,0,0,0-.852-1.021c-1.5-1.5-3.444-1.973-4.3-1.089a2.076,2.076,0,0,0-.239,2.178c-.818-1.259-.989-2.552-.307-3.232.852-.885,2.8-.374,4.3,1.089A5.448,5.448,0,0,1,90.476,120.219Z" transform="translate(-55.596 -76.94)"/>
      <path id="Path_1648" data-name="Path 1648" class="cls-5" d="M66.756,139.444a2.414,2.414,0,0,1-.273.612c-.443.715-1.159,1.089-1.568.851-.409-.272-.409-1.055.034-1.769a1.44,1.44,0,0,1,.17-.238c-.136.51-.068.987.239,1.157C65.733,140.261,66.313,140.023,66.756,139.444Z" transform="translate(-42.582 -91.64)"/>
      <path id="Path_1649" data-name="Path 1649" class="cls-4" d="M90.773,163.051s2.557-3.13-.682-2.722-14.32,1.939-9.206,4.321.58,0-1.33,3.573,6.308-4.015,12.172-1.939,15.309-2.11,8.013-3.232S92.819,166.555,90.773,163.051Z" transform="translate(-52.245 -105.754)"/>
      <g id="Group_1053" data-name="Group 1053" class="cls-6" transform="translate(45.723 49.812)">
        <path id="Path_1650" data-name="Path 1650" class="cls-7" d="M141.464,150.629a1.432,1.432,0,1,1-1.432-1.429,1.439,1.439,0,0,1,1.432,1.429Zm0,0" transform="translate(-137.066 -148.247)"/>
        <path id="Path_1651" data-name="Path 1651" class="cls-7" d="M136.677,168.638a.239.239,0,1,1-.239-.238.233.233,0,0,1,.239.238Zm0,0" transform="translate(-135.484 -160.915)"/>
        <path id="Path_1652" data-name="Path 1652" class="cls-7" d="M169.587,147.591a1.193,1.193,0,1,1-1.193-1.191,1.185,1.185,0,0,1,1.193,1.191Zm0,0" transform="translate(-155.914 -146.4)"/>
        <path id="Path_1653" data-name="Path 1653" class="cls-7" d="M194.582,147.532a.341.341,0,1,1-.341-.34.321.321,0,0,1,.341.34Zm0,0" transform="translate(-173.511 -146.919)"/>
        <path id="Path_1654" data-name="Path 1654" class="cls-7" d="M199.509,169.353a.952.952,0,0,1-.955.953.931.931,0,0,1-.955-.953.952.952,0,0,1,.955-.953.931.931,0,0,1,.955.953Zm0,0" transform="translate(-175.949 -160.915)"/>
        <path id="Path_1655" data-name="Path 1655" class="cls-7" d="M220.859,168.278a.58.58,0,1,1-.58-.578.6.6,0,0,1,.58.578Zm0,0" transform="translate(-190.514 -160.453)"/>
        <path id="Path_1656" data-name="Path 1656" class="cls-7" d="M224.909,147.753a.955.955,0,0,1-1.909,0,.955.955,0,0,1,1.909,0Zm0,0" transform="translate(-192.689 -146.664)"/>
        <path id="Path_1657" data-name="Path 1657" class="cls-7" d="M175.382,199.132a.341.341,0,1,1-.341-.34.321.321,0,0,1,.341.34Zm0,0" transform="translate(-160.857 -180.963)"/>
        <path id="Path_1658" data-name="Path 1658" class="cls-7" d="M136.009,190.653a.952.952,0,0,1-.955.953.931.931,0,0,1-.955-.953.952.952,0,0,1,.955-.953.931.931,0,0,1,.955.953Zm0,0" transform="translate(-134.1 -174.967)"/>
        <path id="Path_1659" data-name="Path 1659" class="cls-7" d="M198.777,190.238a.239.239,0,1,1-.239-.238.233.233,0,0,1,.239.238Zm0,0" transform="translate(-176.41 -175.165)"/>
        <path id="Path_1660" data-name="Path 1660" class="cls-7" d="M231.959,190.978a.58.58,0,1,1-.58-.578.574.574,0,0,1,.58.578Zm0,0" transform="translate(-197.829 -175.429)"/>
        <path id="Path_1661" data-name="Path 1661" class="cls-7" d="M189.155,206.576a.477.477,0,1,1-.477-.476.466.466,0,0,1,.477.476Zm0,0" transform="translate(-169.754 -185.787)"/>
      </g>
      <g id="Group_1055" data-name="Group 1055" transform="translate(61.304 6.975)">
        <path id="Path_1662" data-name="Path 1662" class="cls-8" d="M232.649,49.081c0,15.787-11.934,29.942-25.913,29.942-14.32,0-26.936-14.154-26.936-29.942S190.574,20.5,206.395,20.5,232.649,33.293,232.649,49.081Z" transform="translate(-179.8 -20.5)"/>
        <g id="Group_1054" data-name="Group 1054" transform="translate(0 0.034)">
          <path id="Path_1663" data-name="Path 1663" class="cls-9" d="M286.624,49.344c0-14.9-9.308-27.117-23.628-28.444,5.83,4.457,11.149,10.718,12.752,19.258,2.966,15.923-1.227,28.785-14.048,39.094C275.27,78.605,286.624,64.758,286.624,49.344Z" transform="translate(-233.775 -20.798)"/>
          <path id="Path_1664" data-name="Path 1664" class="cls-7" d="M185.6,54.59c-4.671-20.074,13.979-31.2,19.469-33.99-15.1.68-25.265,13.2-25.265,28.547,0,14.324,10.365,27.288,22.981,29.567C195.348,72.93,188.017,64.9,185.6,54.59Z" transform="translate(-179.8 -20.6)"/>
          <path id="Path_1665" data-name="Path 1665" class="cls-2" d="M202.1,113.245a3.91,3.91,0,0,1,.443-2.552,7.556,7.556,0,0,1,7.637-4.389c4.16.476,4.705,4.049,4.637,6.329a3.122,3.122,0,0,1-1.7,2.688C210.012,116.919,203.125,119.709,202.1,113.245Z" transform="translate(-194.465 -77.111)"/>
          <path id="Path_1666" data-name="Path 1666" class="cls-2" d="M287.708,113.245a3.91,3.91,0,0,0-.443-2.552,7.556,7.556,0,0,0-7.638-4.389c-4.16.476-4.705,4.049-4.637,6.329a3.122,3.122,0,0,0,1.7,2.688C279.8,116.919,286.685,119.709,287.708,113.245Z" transform="translate(-242.53 -77.111)"/>
          <ellipse id="Ellipse_57" data-name="Ellipse 57" class="cls-2" cx="1.943" cy="1.939" rx="1.943" ry="1.939" transform="translate(18.412 19.632)"/>
          <ellipse id="Ellipse_58" data-name="Ellipse 58" class="cls-2" cx="1.943" cy="1.939" rx="1.943" ry="1.939" transform="translate(32.05 19.632)"/>
          <ellipse id="Ellipse_59" data-name="Ellipse 59" class="cls-2" cx="1.943" cy="1.939" rx="1.943" ry="1.939" transform="translate(18.412 46.171)"/>
          <ellipse id="Ellipse_60" data-name="Ellipse 60" class="cls-2" cx="1.943" cy="1.939" rx="1.943" ry="1.939" transform="translate(32.05 46.171)"/>
          <ellipse id="Ellipse_61" data-name="Ellipse 61" class="cls-2" cx="1.943" cy="1.939" rx="1.943" ry="1.939" transform="translate(20.458 11.806)"/>
          <ellipse id="Ellipse_62" data-name="Ellipse 62" class="cls-2" cx="1.943" cy="1.939" rx="1.943" ry="1.939" transform="translate(29.663 11.806)"/>
        </g>
      </g>
      <path id="Path_1667" data-name="Path 1667" class="cls-2" d="M187.137,276.9a6.986,6.986,0,0,1,2.762,2.28c.1.136.2.238.273.34l.375.442c.614.715,1.534,1.8,2.148,2.45a.119.119,0,0,1,.068.034h0c.546.544,6.035,5.41,6.683,5.886.955.749,1.193,1.531.682,2.314-.034.034-2.625,3.811-3.546,3.709-1.193-.136-7.194-5.614-7.944-7.553a1.172,1.172,0,0,1-.1-.442.646.646,0,0,1,.17-.442c.307-.34,1.432-1.463,2.353-2.348a.614.614,0,0,0-.341-.476l-.068-.034a11,11,0,0,1-3.069-2.518,5.177,5.177,0,0,1-.75-1.4c-.17-.408-.239-.578-.409-.578a.929.929,0,0,1-.921-.919.853.853,0,0,1,.409-.749A1.25,1.25,0,0,1,187.137,276.9Z" transform="translate(-122.252 -182.579)"/>
      <path id="Path_1668" data-name="Path 1668" class="cls-10" d="M207.626,308.153A25.272,25.272,0,0,1,202,302.675c.477-.51,1.364-1.361,1.739-1.735l.375-.34c1.5,1.361,4.842,4.287,5.319,4.661a1.167,1.167,0,0,1,.307.306A17.886,17.886,0,0,1,207.626,308.153Z" transform="translate(-133.126 -198.322)"/>
      <path id="Path_1669" data-name="Path 1669" class="cls-11" d="M212.035,305.261c-.477-.374-3.819-3.3-5.319-4.661l-.375.34-.341.34a47.346,47.346,0,0,0,5.626,5.274c.239-.306.477-.646.716-.987Z" transform="translate(-135.762 -198.322)"/>
      <path id="Path_1670" data-name="Path 1670" class="cls-2" d="M244.024,307.128a.942.942,0,0,1-.614-.715,4.705,4.705,0,0,0-1.466-2.586,1.993,1.993,0,0,0,1.057-1.8v-1.361a1.98,1.98,0,0,0-.546-1.395s1.3-18.475,1.3-18.509v-.136a1.615,1.615,0,0,0-.239-.783,1.983,1.983,0,0,0-.375-.51h0c0-.034-.034-.034-.068-.034a1.424,1.424,0,0,0-2.182-.1,4.99,4.99,0,0,1-1.671,1.361,13.386,13.386,0,0,1-5.762.987c-2.489,0-5.387-.238-7.5-1.667a2.6,2.6,0,0,1-.375-.272,5.088,5.088,0,0,1-.443-.374,1.91,1.91,0,0,0-2.8.408,1.417,1.417,0,0,0-.273.612,1.855,1.855,0,0,0-.034.612v.17l.716,8.846h0l.2,2.688.511,6.635a1.958,1.958,0,0,0-.716,1.565v1.361a1.925,1.925,0,0,0,1.091,1.8,4.8,4.8,0,0,0-1.466,2.62.842.842,0,0,1-.511.646A1.916,1.916,0,0,0,220.6,309v.953a1.94,1.94,0,0,0,1.943,1.939h9.138a1.874,1.874,0,0,0,1.262-.476,1.874,1.874,0,0,0,1.262.476h9.138a1.941,1.941,0,0,0,1.943-1.939V309A1.909,1.909,0,0,0,244.024,307.128Zm-10.5-.034a2,2,0,0,0-.58.34,1.632,1.632,0,0,0-.58-.34.942.942,0,0,1-.614-.715,4.706,4.706,0,0,0-1.466-2.586,1.993,1.993,0,0,0,1.057-1.8V300.63a1.993,1.993,0,0,0-1.057-1.8L229.26,287.36l7.331.1-1.125,11.4a1.951,1.951,0,0,0-1.023,1.769v1.361a1.925,1.925,0,0,0,1.091,1.8,4.8,4.8,0,0,0-1.466,2.62A.878.878,0,0,1,233.522,307.094Z" transform="translate(-145.384 -183.892)"/>
      <g id="Group_1056" data-name="Group 1056" transform="translate(78.284 96.527)">
        <path id="Path_1671" data-name="Path 1671" class="cls-12" d="M234.476,302.005l-1.193-13.031h4.739v-2.552c-4.705-.238-7.058-1.7-8.115-2.722h-.068a.233.233,0,0,0-.239.238l1.432,18.067h3.444Z" transform="translate(-229.6 -283.7)"/>
      </g>
      <path id="Path_1672" data-name="Path 1672" class="cls-12" d="M236.785,342.5h-5.046a.243.243,0,0,0-.239.272v1.361a.263.263,0,0,0,.239.272h5.046a.243.243,0,0,0,.239-.272v-1.361C236.989,342.6,236.887,342.5,236.785,342.5Z" transform="translate(-152.568 -225.966)"/>
      <path id="Path_1673" data-name="Path 1673" class="cls-12" d="M270.885,344.305a.243.243,0,0,0,.239-.272v-1.361a.263.263,0,0,0-.239-.272h-5.046a.243.243,0,0,0-.239.272v1.361a.263.263,0,0,0,.239.272Z" transform="translate(-175.041 -225.9)"/>
      <g id="Group_1057" data-name="Group 1057" transform="translate(88.343 96.561)">
        <path id="Path_1674" data-name="Path 1674" class="cls-12" d="M263.567,289.108l-1.023,12.929h3.614l1.262-18.1a.2.2,0,0,0-.034-.136c-1.057,1.293-3.341,2.62-8.285,2.654v2.62h4.467Z" transform="translate(-259.1 -283.8)"/>
      </g>
      <path id="Path_1675" data-name="Path 1675" class="cls-8" d="M269.176,366.8h-9.138a.233.233,0,0,0-.239.238v.953a.233.233,0,0,0,.239.238h9.138a.233.233,0,0,0,.239-.238v-.953A.233.233,0,0,0,269.176,366.8Z" transform="translate(-171.219 -241.998)"/>
      <path id="Path_1676" data-name="Path 1676" class="cls-8" d="M234.976,366.8h-9.138a.233.233,0,0,0-.239.238v.953a.233.233,0,0,0,.239.238h9.138a.233.233,0,0,0,.239-.238v-.953A.233.233,0,0,0,234.976,366.8Z" transform="translate(-148.68 -241.998)"/>
      <path id="Path_1677" data-name="Path 1677" class="cls-8" d="M235.434,208.953l6.274-.749.784-.1-.239-.783c-.068-.238-1.7-5.75-5.421-5.852-.921-.034-3.171-.034-6.171-.068h-.989l.068.749.034.238c0,.17.034.306.034.476a4.442,4.442,0,1,1-8.865,0,2.242,2.242,0,0,1,.034-.476l.034-.238.068-.749h-.989c-3,0-4.91.034-5.694.068-3.785.2-5.421,5.41-5.489,5.648l-.068.238-.239.783.818.1,5.694.612a.271.271,0,0,1,.239.306L213.714,227.5c-.2,1.361.307,1.735,1.262,1.905a2.766,2.766,0,0,1,.921.272l1.159.51a16.48,16.48,0,0,0,7.672,1.531,15.765,15.765,0,0,0,7.467-1.463l1.534-.68a5.732,5.732,0,0,1,.818-.272,1.612,1.612,0,0,0,1.432-2.041l-.75-18.067A.292.292,0,0,1,235.434,208.953Z" transform="translate(-137.476 -132.875)"/>
      <path id="Path_1678" data-name="Path 1678" class="cls-13" d="M228.039,267.329a16.48,16.48,0,0,0,7.672,1.531,15.765,15.765,0,0,0,7.467-1.463l1.534-.68a5.738,5.738,0,0,1,.818-.272,1.612,1.612,0,0,0,1.432-2.041l-.273-6.7a45.27,45.27,0,0,1-20.389,8.88,4.856,4.856,0,0,1,.546.17Z" transform="translate(-149.141 -170.019)"/>
      <path id="Path_1679" data-name="Path 1679" class="cls-8" d="M294.3,223.277l-4.228.442a.53.53,0,0,0-.477.578l.239,2.075a.191.191,0,0,0,.2.17l4.569-.476a1.44,1.44,0,0,0,1.262-1.565A1.415,1.415,0,0,0,294.3,223.277Z" transform="translate(-190.851 -147.301)"/>
      <g id="Group_1058" data-name="Group 1058" transform="translate(78.625 120.038)">
        <path id="Path_1680" data-name="Path 1680" class="cls-14" d="M233.669,352.8a3.053,3.053,0,0,0-3.069,3.062h6.137A3.074,3.074,0,0,0,233.669,352.8Z" transform="translate(-230.6 -352.8)"/>
        <path id="Path_1681" data-name="Path 1681" class="cls-15" d="M241.609,355.862H242.7a3.06,3.06,0,0,0-3-3.062A5.381,5.381,0,0,1,241.609,355.862Z" transform="translate(-236.597 -352.8)"/>
      </g>
      <g id="Group_1059" data-name="Group 1059" transform="translate(90.32 120.038)">
        <path id="Path_1682" data-name="Path 1682" class="cls-14" d="M267.969,352.8a3.053,3.053,0,0,0-3.069,3.062h6.137A3.053,3.053,0,0,0,267.969,352.8Z" transform="translate(-264.9 -352.8)"/>
        <path id="Path_1683" data-name="Path 1683" class="cls-15" d="M276.009,355.862H277.1a3.06,3.06,0,0,0-3-3.062A5.761,5.761,0,0,1,276.009,355.862Z" transform="translate(-270.963 -352.8)"/>
      </g>
      <g id="Group_1060" data-name="Group 1060" transform="translate(68.669 105.995)">
        <path id="Path_1684" data-name="Path 1684" class="cls-2" d="M206,313.388a12.289,12.289,0,0,1-1.227-1.735.256.256,0,0,0-.443,0c-.375.612-.818,1.191-1.227,1.735-.887,1.123-1.7,2.178-1.7,3.4a3.171,3.171,0,0,0,6.342,0A6.174,6.174,0,0,0,206,313.388Z" transform="translate(-201.4 -311.525)"/>
        <path id="Path_1685" data-name="Path 1685" class="cls-16" d="M208.227,324.068A1.221,1.221,0,0,1,207,322.844a4.552,4.552,0,0,1,1.227-2.144,4.712,4.712,0,0,1,1.227,2.144A1.221,1.221,0,0,1,208.227,324.068Z" transform="translate(-205.091 -317.578)"/>
        <path id="Path_1686" data-name="Path 1686" class="cls-17" d="M211.168,322.844a4.552,4.552,0,0,0-1.227-2.144c-.1.136-.239.306-.341.442a4.165,4.165,0,0,1,.887,2.007,1.744,1.744,0,0,1-.2.851A1.175,1.175,0,0,0,211.168,322.844Z" transform="translate(-206.804 -317.578)"/>
      </g>
      <g id="Group_1061" data-name="Group 1061" transform="translate(81.83 80.842)">
        <path id="Path_1687" data-name="Path 1687" class="cls-17" d="M242.353,242.259c0,.306-.17.442-.477.442h-1.432c-.307,0-.443-.136-.443-.442v-1.225h.75v1.055h.852V237.7h.75Z" transform="translate(-240 -237.666)"/>
        <path id="Path_1688" data-name="Path 1688" class="cls-17" d="M251.087,242.193c0,.306-.136.442-.443.442h-1.5c-.307,0-.443-.136-.443-.442V241h.75v1.021h.921v-.987l-1.5-1.429a.563.563,0,0,1-.17-.408v-1.123c0-.306.136-.476.443-.476h1.5c.307,0,.443.136.443.442v1.123h-.75v-.953h-.921v.919l1.5,1.429a.563.563,0,0,1,.17.408Z" transform="translate(-245.734 -237.6)"/>
        <path id="Path_1689" data-name="Path 1689" class="cls-17" d="M260.023,242.193c0,.306-.136.442-.443.442h-1.637c-.307,0-.443-.136-.443-.442v-4.117c0-.306.136-.476.443-.476h1.637c.307,0,.443.17.443.476Zm-.75-.2v-3.743H258.25v3.743Z" transform="translate(-251.533 -237.6)"/>
        <path id="Path_1690" data-name="Path 1690" class="cls-17" d="M269.257,242.636h-.648l-1.193-3.164a1.665,1.665,0,0,1,.034.374v2.79h-.75V237.6h.648l1.193,3.1a1.665,1.665,0,0,1-.034-.374V237.6h.75Z" transform="translate(-257.596 -237.6)"/>
      </g>
      <path id="Path_1691" data-name="Path 1691" class="cls-2" d="M226.352,105.34A4.541,4.541,0,0,1,222.7,103.5l-.068-.1-.1-.034a2.783,2.783,0,0,1-2.25-2.552,2.816,2.816,0,0,1,.75-2.041,2,2,0,0,1,.614-.476l.2-.1-4.6-17.489a.073.073,0,0,0-.068-.068c-.068,0-.068.034-.068.1l.58,13.542a2.452,2.452,0,0,1-1.057,2.62,8.78,8.78,0,0,1-1.5.749l-.273.136-.068.034-1.534.68a16.659,16.659,0,0,1-3.853,1.225,17.425,17.425,0,0,1-2.864.272c-.375,0-.75.034-1.159.034h-.511A16.55,16.55,0,0,1,197.3,98.4l-1.159-.51a7.517,7.517,0,0,1-.716-.306c-.239-.1-.477-.2-.682-.306-1.125-.544-1.671-1.123-1.4-2.79l1.193-13.848L189.9,98.263l.2.1a2.938,2.938,0,0,1,.614.476,2.816,2.816,0,0,1,.75,2.041,2.984,2.984,0,0,1-.341,1.191,2.719,2.719,0,0,1-1.193,1.123,2.95,2.95,0,0,1-.716.238l-.1.034-.1.136-.034.068A4.895,4.895,0,0,1,187.313,105a4.617,4.617,0,0,1-1.909.442h-.341a4.489,4.489,0,0,1-4.16-4.083,4.556,4.556,0,0,1,2.08-4.253l.2-.1.1-.068.511-2.041,3.989-15.549-.068-.068a2.628,2.628,0,0,1-.852-2.007,2.481,2.481,0,0,1,1.364-2.075l.341-1.157c.068-.238,1.909-6.192,6.444-6.431.818-.034,2.762-.068,5.762-.068h.614v-2.28C188.983,62.4,179.3,49.438,179.3,35.692a31.57,31.57,0,0,1,3.682-15.039l-.068-.238a21.6,21.6,0,0,1-1.057-8.54,6.424,6.424,0,0,1,2.557-4.729A6.246,6.246,0,0,1,188.2,5.886a9.163,9.163,0,0,1,4.467,1.327,52.264,52.264,0,0,1,13.127-6.056h0l.136-.034.375-.1a6.157,6.157,0,0,1,.648-.17l.239-.068c.17-.034.307-.068.477-.1l.239-.068c.2-.034.375-.068.546-.1l.2-.034c.239-.034.443-.1.682-.136l.2-.034a2.656,2.656,0,0,1,.546-.068l.2-.034.716-.1h.068c.2-.034.443-.034.648-.068h.17c.2,0,.409-.034.648-.034h.921a3.923,3.923,0,0,1,.648.034h.136c.511.034.989.1,1.466.17l.136.034c.2.034.443.1.648.136h.068c.273.068.511.136.75.2l.1.034.614.2.136.068a6.65,6.65,0,0,1,.682.306l.068.034a10.773,10.773,0,0,1,4.194,4.185c.068.1.1.238.17.34a6.376,6.376,0,0,1,3.41,1.225,3.648,3.648,0,0,1,.546.476,6.67,6.67,0,0,1,2.012,4.253,21.643,21.643,0,0,1-.75,7.587l-.068.272a32.021,32.021,0,0,1,4.092,15.957c0,14.188-9.615,27.186-21.89,29.7v2.144h.716c2.9,0,5.217.034,6.205.068,3.614.1,5.489,3.845,6.035,6.056l.443,1.8a2.489,2.489,0,0,1,.068,3.811l-.068.068,4.5,17.625.1.068a4.531,4.531,0,0,1,2.25,4.355,4.578,4.578,0,0,1-4.364,4.117ZM195.837,75.126a1.169,1.169,0,0,1,1.023,1.259l-1.637,18.339c-.068.442-.068.68.034.783a1.72,1.72,0,0,0,.511.17,7.168,7.168,0,0,1,1.125.306l.239.1.921.408a15.31,15.31,0,0,0,7.331,1.463,15.562,15.562,0,0,0,7.126-1.361l1.534-.68a7.263,7.263,0,0,1,.921-.306c.409-.1.648-.17.75-.374a1.207,1.207,0,0,0,.068-.749l-.273-6.737-.477-11.33a1.173,1.173,0,0,1,.921-1.191l6.069-.715c-.341-.987-1.841-4.934-4.535-5-.921-.034-3.239-.034-6.171-.068h0v.034a3.106,3.106,0,0,1,.034.544,5.722,5.722,0,0,1-.921,3.164,5.1,5.1,0,0,1-3.069,2.246,5.643,5.643,0,0,1-1.3.17,5.407,5.407,0,0,1-1.3-.17,5.339,5.339,0,0,1-3.205-2.45,5.645,5.645,0,0,1-.818-2.994,3.108,3.108,0,0,1,.034-.544V69.41h0c-3.137,0-4.91.034-5.66.068-3.035.136-4.535,4.525-4.705,5.036v.034Zm7.944-12.419a17.741,17.741,0,0,0,2.625.2,18.645,18.645,0,0,0,2.694-.2,2.365,2.365,0,0,1-.17-.851,2.121,2.121,0,0,1,4.228-.238,24.143,24.143,0,0,0,9.479-6.839,29.921,29.921,0,0,0,7.092-19.224,32.006,32.006,0,0,0-.784-7.009L224.1,31.03a1.432,1.432,0,0,1-.75.17,1.642,1.642,0,0,1-1.466-.885L219.7,26.1a1.635,1.635,0,0,1,.716-2.212l5.626-2.892a23.689,23.689,0,0,0-2.83-3.947,22.075,22.075,0,0,0-13.229-7.213v3.573a1.635,1.635,0,0,1-1.637,1.633h-4.773a1.635,1.635,0,0,1-1.637-1.633V9.867a22.578,22.578,0,0,0-13.161,7.179,22.847,22.847,0,0,0-2.83,3.845l5.762,2.96a1.733,1.733,0,0,1,.818.953,1.628,1.628,0,0,1-.1,1.259l-2.182,4.219a1.642,1.642,0,0,1-1.466.885,1.861,1.861,0,0,1-.75-.17l-5.08-2.62a31.044,31.044,0,0,0-.852,7.145,29.293,29.293,0,0,0,7.433,19.19,25.1,25.1,0,0,0,10.229,7.009,2.115,2.115,0,0,1,4.228.1A1.881,1.881,0,0,1,203.781,62.707Z" transform="translate(-118.166 0)"/>
      <path id="Path_1692" data-name="Path 1692" class="cls-2" d="M228.8,97.434l-.17-.1-4.535-17.795.136-.136a2.292,2.292,0,0,0-.1-3.539l-.443-1.871c-.511-2.144-2.319-5.818-5.83-5.886-.955-.034-3.205-.034-6.205-.068h-.921V65.519c12.172-2.382,21.89-15.311,21.89-29.533a31.874,31.874,0,0,0-4.092-15.923l.1-.34a21.991,21.991,0,0,0,.75-7.519,6.342,6.342,0,0,0-1.943-4.151,3.44,3.44,0,0,0-.546-.442,5.83,5.83,0,0,0-3.41-1.191c-.068-.136-.136-.306-.2-.442a10.768,10.768,0,0,0-4.092-4.117l-.068-.034a6.647,6.647,0,0,0-.682-.306l-.2-.1-.614-.2-.1-.034c-.239-.068-.477-.136-.75-.2h-.068c-.2-.034-.409-.1-.648-.136L215.91.8c-.477-.068-.955-.136-1.466-.17h-.136c-.2,0-.409-.034-.648-.034h-.921a3.713,3.713,0,0,0-.614.034h-.17a3.783,3.783,0,0,0-.648.068h-.068l-.716.1-.2.034a2.655,2.655,0,0,1-.546.068l-.2.034a4.838,4.838,0,0,0-.682.136h-.136c-.17.034-.341.068-.546.1l-.239.068c-.17.034-.307.068-.477.1l-.239.068c-.2.068-.409.1-.648.17l-.375.1h0a61.362,61.362,0,0,0-13.4,5.988,9.233,9.233,0,0,0-4.467-1.361,5.9,5.9,0,0,0-3.648,1.225,6.326,6.326,0,0,0-2.455,4.593,21.707,21.707,0,0,0,1.023,8.438l.1.34a31.142,31.142,0,0,0-3.682,15c0,13.984,9.888,26.675,22.094,29.4v2.654h-.818c-3,0-4.944.034-5.728.068-4.364.2-6.205,6.022-6.274,6.295L188.6,75.59a2.229,2.229,0,0,0-1.33,1.973,2.467,2.467,0,0,0,.784,1.871l.136.136-3.955,15.617h0l-.546,2.144-.17.1a.746.746,0,0,0-.17.1,4.326,4.326,0,0,0,2.046,7.962h.341a4.279,4.279,0,0,0,1.841-.408,4.394,4.394,0,0,0,1.6-1.259c.034-.034.034-.068.068-.1l.1-.136.171-.034a2.114,2.114,0,0,0,.648-.238,2.514,2.514,0,0,0,1.091-1.055,2.544,2.544,0,0,0,.341-1.123,2.48,2.48,0,0,0-.716-1.905,2.382,2.382,0,0,0-.58-.442l-.307-.17L194.7,80.762a.226.226,0,0,1,.17-.136.161.161,0,0,1,.17.17L193.85,94.78c-.273,1.6.239,2.11,1.262,2.586.409.2.887.374,1.432.612l.341.17.818.374a16.752,16.752,0,0,0,7.5,1.6h1.637a16.009,16.009,0,0,0,6.649-1.5l1.534-.68c.034,0,.034,0,.068-.034a12.423,12.423,0,0,0,1.773-.851,2.167,2.167,0,0,0,.955-2.45l-.58-13.542a.263.263,0,0,1,.239-.272h.034a.3.3,0,0,1,.273.2l4.637,17.625-.307.17a3.72,3.72,0,0,0-.58.442,2.554,2.554,0,0,0,1.364,4.287l.17.034.1.136a4.4,4.4,0,0,0,3.478,1.769h.17a4.33,4.33,0,0,0,4.16-3.913A4.394,4.394,0,0,0,228.8,97.434ZM200.192,62.252v.136a25.626,25.626,0,0,1-10.57-7.145,29.275,29.275,0,0,1-7.5-19.292,31.12,31.12,0,0,1,.886-7.417l5.319,2.756a1.427,1.427,0,0,0,1.943-.612l2.182-4.219a1.421,1.421,0,0,0-.614-1.939l-5.967-3.062a23.344,23.344,0,0,1,2.966-4.049,23.04,23.04,0,0,1,13.5-7.281V13.87a1.475,1.475,0,0,0,1.466,1.463h4.773a1.475,1.475,0,0,0,1.466-1.463V9.991a22.013,22.013,0,0,1,13.57,7.315,24.143,24.143,0,0,1,2.966,4.151l-5.8,2.994a1.421,1.421,0,0,0-.614,1.939l2.182,4.219a1.427,1.427,0,0,0,1.943.612l5.08-2.62a31.775,31.775,0,0,1,.852,7.281A30.039,30.039,0,0,1,223.1,55.209a23.988,23.988,0,0,1-9.82,7.009v-.034a1.94,1.94,0,0,0-1.943-1.939,1.919,1.919,0,0,0-1.943,1.939,1.857,1.857,0,0,0,.273.987,17.57,17.57,0,0,1-3,.272,17.045,17.045,0,0,1-2.932-.238,2.1,2.1,0,0,0,.307-1.021,1.941,1.941,0,0,0-1.943-1.939A1.971,1.971,0,0,0,200.192,62.252Zm16.059,13.542a.987.987,0,0,0-.784.987l.477,11.364.273,6.737a1.6,1.6,0,0,1-.1.885c-.239.408-.886.374-1.739.749l-1.534.68a19.138,19.138,0,0,1-14.593-.1l-.921-.408-.239-.1c-.818-.374-1.432-.272-1.7-.51-.136-.136-.17-.408-.1-.919l1.637-18.339a1,1,0,0,0-.852-1.055l-5.694-.612.068-.272c0-.034,1.568-5,4.876-5.172.784-.034,2.694-.068,5.66-.068h.239l-.034.238c0,.17-.034.374-.034.544a5.916,5.916,0,0,0,.784,2.892A5.063,5.063,0,0,0,205,75.658a4.99,4.99,0,0,0,5.489-2.178,5.393,5.393,0,0,0,.887-3.062,3.106,3.106,0,0,0-.034-.544l-.034-.238h.239c3,0,5.251.034,6.171.068,3.239.1,4.773,5.376,4.773,5.376Z" transform="translate(-118.43 -0.396)"/>
      <path id="Path_1693" data-name="Path 1693" class="cls-18" d="M195.34,24.175A20.121,20.121,0,0,1,195,18.8a4.648,4.648,0,0,1,1.807-3.4,4.483,4.483,0,0,1,2.694-.885,7.159,7.159,0,0,1,3.58,1.123l.716.408.716-.408a56.6,56.6,0,0,1,12.547-5.614l.341-.1c.2-.068.409-.1.614-.17l.2-.068c.136-.034.273-.068.443-.1l.239-.068c.17-.034.341-.068.477-.1l.17-.034.614-.1.2-.034c.17-.034.307-.034.477-.068l.2-.034a3.785,3.785,0,0,1,.648-.068h.068a3.514,3.514,0,0,1,.58-.034h.17c.17,0,.375-.034.546-.034h.818a3.126,3.126,0,0,1,.58.034h.136c.409.034.852.068,1.262.136l.136.034c.17.034.375.068.546.1h.068a4.129,4.129,0,0,1,.614.17l.068.034c.17.068.341.1.511.17l.136.034c.2.068.375.17.546.238l-.1.068a8.817,8.817,0,0,1,3.341,3.334c.068.1.1.238.17.34l.341.783.852.034a4.336,4.336,0,0,1,2.489.885,1.786,1.786,0,0,1,.375.34A4.628,4.628,0,0,1,237.38,18.8a19.3,19.3,0,0,1-.17,4.457,25.063,25.063,0,0,0-20.526-10.207A25.476,25.476,0,0,0,195.34,24.175Z" transform="translate(-128.478 -5.938)"/>
      <path id="Path_1694" data-name="Path 1694" class="cls-19" d="M299.726,254.892h0a.8.8,0,0,0,.614-.953L295.6,235.906l3.648-.306,4.569,17.761a2.893,2.893,0,1,1-3.478,3.777h-.511a1.161,1.161,0,0,1-1.193-1.055A1.082,1.082,0,0,1,299.726,254.892Z" transform="translate(-194.812 -155.438)"/>
      <path id="Path_1695" data-name="Path 1695" class="cls-19" d="M194.78,254.892h0a.8.8,0,0,1-.614-.953l4.739-18.033-3.648-.306-4.569,17.761a2.893,2.893,0,1,0,3.478,3.777h.511a1.161,1.161,0,0,0,1.193-1.055A1.082,1.082,0,0,0,194.78,254.892Z" transform="translate(-124.27 -155.438)"/>
      <g id="Group_1062" data-name="Group 1062" transform="translate(68.468 80.366)">
        <path id="Path_1696" data-name="Path 1696" class="cls-20" d="M202.853,255.288h0a.8.8,0,0,1-.614-.953l4.739-18.033-1.023-.1-5.114,19.5a.885.885,0,0,0,.682,1.089h0a1.28,1.28,0,0,1,1.159.749h.1a1.161,1.161,0,0,0,1.193-1.055A1.128,1.128,0,0,0,202.853,255.288Z" transform="translate(-200.811 -236.2)"/>
      </g>
      <g id="Group_1063" data-name="Group 1063" transform="translate(100.788 80.366)">
        <path id="Path_1697" data-name="Path 1697" class="cls-20" d="M299.726,255.288h0a.8.8,0,0,0,.614-.953L295.6,236.3l1.023-.1,5.114,19.5a.885.885,0,0,1-.682,1.089h0a1.281,1.281,0,0,0-1.159.749h-.1a1.161,1.161,0,0,1-1.193-1.055A1.128,1.128,0,0,1,299.726,255.288Z" transform="translate(-295.6 -236.2)"/>
      </g>
      <path id="Path_1698" data-name="Path 1698" class="cls-8" d="M208.157,223.277l4.228.442a.53.53,0,0,1,.477.578l-.239,2.075a.191.191,0,0,1-.2.17l-4.569-.476a1.44,1.44,0,0,1-1.262-1.565A1.4,1.4,0,0,1,208.157,223.277Z" transform="translate(-136.147 -147.301)"/>
      <path id="Path_1699" data-name="Path 1699" class="cls-8" d="M295.766,224.548a1.441,1.441,0,0,0-1.568-1.259l-3.512.374-.716.068a.53.53,0,0,0-.477.578l.239,2.076a.191.191,0,0,0,.2.17l1.33-.136,3.239-.34A1.362,1.362,0,0,0,295.766,224.548Z" transform="translate(-190.785 -147.312)"/>
      <path id="Path_1700" data-name="Path 1700" class="cls-9" d="M290.07,224.4a.53.53,0,0,0-.477.578l.239,2.076a.191.191,0,0,0,.2.17l1.33-.136-.58-2.79Z" transform="translate(-190.851 -147.983)"/>
      <path id="Path_1701" data-name="Path 1701" class="cls-9" d="M221.1,224.4a.53.53,0,0,1,.477.578l-.239,2.076a.191.191,0,0,1-.2.17l-1.33-.136.58-2.79Z" transform="translate(-144.857 -147.983)"/>
      <g id="Group_1064" data-name="Group 1064" transform="translate(84.967 65.218)">
        <path id="Path_1702" data-name="Path 1702" class="cls-19" d="M252.03,200.3h0a2.82,2.82,0,0,1-2.83-2.824v-5.58c0-.136.1-.2.239-.2l.921.2a7.9,7.9,0,0,0,3.341,0l.921-.2a.192.192,0,0,1,.239.2v5.58A2.82,2.82,0,0,1,252.03,200.3Z" transform="translate(-249.2 -191.681)"/>
        <path id="Path_1703" data-name="Path 1703" class="cls-20" d="M261.78,197.484V191.9c0-.136-.1-.2-.239-.2l-.921.2a8.585,8.585,0,0,1-.921.136v8.166A2.848,2.848,0,0,0,261.78,197.484Z" transform="translate(-256.12 -191.693)"/>
      </g>
    </g>
  </g>
</svg>
