<svg xmlns="http://www.w3.org/2000/svg" xmlns:xlink="http://www.w3.org/1999/xlink" viewBox="2320 0 88 88">
  <defs>
    <style>
      .cls-1 {
        clip-path: url(#clip-Note);
      }

      .cls-2 {
        fill: #43ba8a;
      }

      .cls-3 {
        fill: #ff5050;
      }

      .cls-4 {
        fill: #f9bda0;
      }

      .cls-5 {
        fill: #fff;
      }

      .cls-6 {
        fill: #333a4d;
      }

      .cls-7 {
        fill: none;
      }
    </style>
    <clipPath id="clip-Note">
      <rect x="2320" width="88" height="88"/>
    </clipPath>
  </defs>
  <g id="Note" class="cls-1">
    <rect class="cls-5" x="2320" width="88" height="88"/>
    <g id="Group_1069" data-name="Group 1069" transform="translate(2320)">
      <g id="Group_900" data-name="Group 900" transform="translate(1.719 1.719)">
        <path id="Path_1441" data-name="Path 1441" class="cls-2" d="M29.938,333.9h-16.5A3.448,3.448,0,0,1,10,330.459V302.438A3.448,3.448,0,0,1,13.438,299h16.5a3.448,3.448,0,0,1,3.437,3.438v28.021A3.448,3.448,0,0,1,29.938,333.9Z" transform="translate(-10 -249.318)"/>
        <path id="Path_1442" data-name="Path 1442" class="cls-3" d="M256,10V94.579h42.281V10Z" transform="translate(-213.719 -10)"/>
        <path id="Path_1443" data-name="Path 1443" class="cls-4" d="M197.425,281.153h-5.38a4.115,4.115,0,0,0,4.125-4.126h0a4.116,4.116,0,0,0-4.125-4.126H158.255l-2.647-7.7L146,274.792v25.271l4.744,4.143a6.961,6.961,0,0,0,4.555,1.7h32.484a4.185,4.185,0,0,0,4.211-4.212,4.12,4.12,0,0,0-4.125-4.04h5.775a4.185,4.185,0,0,0,4.211-4.212,4.12,4.12,0,0,0-4.125-4.04h3.678a4.115,4.115,0,0,0,4.125-4.126h0A4.1,4.1,0,0,0,197.425,281.153Z" transform="translate(-122.625 -221.329)"/>
        <path id="Path_1444" data-name="Path 1444" class="cls-5" d="M153.8,51.01l8.7,32.474.1-.1,2.114,8.252h6.652V46.3Z" transform="translate(-129.084 -40.06)"/>
        <path id="Path_1445" data-name="Path 1445" class="cls-6" d="M69.719,452a1.807,1.807,0,0,0-1.22.5,1.7,1.7,0,0,0-.5,1.221,1.808,1.808,0,0,0,.5,1.221,1.7,1.7,0,0,0,1.22.5,1.807,1.807,0,0,0,1.22-.5,1.7,1.7,0,0,0,.5-1.221,1.776,1.776,0,0,0-.5-1.221A1.807,1.807,0,0,0,69.719,452Z" transform="translate(-58.031 -376.016)"/>
      </g>
      <path id="Path_1446" data-name="Path 1446" class="cls-7" d="M196.167,312.873H183.019a1.719,1.719,0,0,1,0-3.438h19.009a2.407,2.407,0,0,0,0-4.813H183a1.719,1.719,0,0,1,0-3.438h22.688a2.407,2.407,0,0,0,0-4.813H183a1.719,1.719,0,0,1,0-3.438h17.308a2.407,2.407,0,0,0,0-4.813H166.519a1.713,1.713,0,0,1-1.667-1.289l-1.358-5.329L156,289V312.77l4.142,3.627a5.23,5.23,0,0,0,3.438,1.289h32.57a2.407,2.407,0,0,0,.017-4.813Z" transform="translate(-129.188 -233.108)"/>
      <path id="Path_1447" data-name="Path 1447" class="cls-7" d="M38.219,309H31.687v19.8a1.719,1.719,0,1,1-3.437,0V309H21.719A1.724,1.724,0,0,0,20,310.719V338.74a1.724,1.724,0,0,0,1.719,1.719h16.5a1.724,1.724,0,0,0,1.719-1.719V310.719A1.724,1.724,0,0,0,38.219,309Z" transform="translate(-16.563 -255.88)"/>
      <path id="Path_1448" data-name="Path 1448" class="cls-7" d="M179.6,100.678l.155-35V59.3L166,62.979l10.141,37.7Z" transform="translate(-137.469 -49.106)"/>
      <path id="Path_1449" data-name="Path 1449" class="cls-6" d="M87.5.5a1.807,1.807,0,0,0-1.22-.5H44a1.724,1.724,0,0,0-1.719,1.719V6.636L25.987,11a1.723,1.723,0,0,0-1.22,2.1L33.206,44.61l-7.3,7.306a5.157,5.157,0,0,0-4.262-2.252H5.156A5.172,5.172,0,0,0,0,54.822V82.843A5.172,5.172,0,0,0,5.156,88h16.5a5.145,5.145,0,0,0,5-3.92L28.7,85.868A8.652,8.652,0,0,0,34.392,88H86.281A1.724,1.724,0,0,0,88,86.281V1.719A1.776,1.776,0,0,0,87.5.5ZM23.375,82.86a1.724,1.724,0,0,1-1.719,1.719H5.156A1.724,1.724,0,0,1,3.438,82.86V54.839A1.724,1.724,0,0,1,5.156,53.12h6.531v19.8a1.719,1.719,0,1,0,3.437,0V53.12h6.531a1.724,1.724,0,0,1,1.719,1.719Zm5.156-68.987,13.75-3.679v6.378l-.155,35H38.672ZM66.98,84.579H34.392a5.3,5.3,0,0,1-3.438-1.289l-4.142-3.61V55.887l7.511-7.512L35.681,53.7a1.713,1.713,0,0,0,1.667,1.289H71.139a2.407,2.407,0,0,1,0,4.813H53.814a1.719,1.719,0,0,0,0,3.438h14.85v.017H76.6a.837.837,0,0,1,.206.017,2.412,2.412,0,0,1,2.1,2.39,2.367,2.367,0,0,1-.808,1.788,6.976,6.976,0,0,1-.7.447,2.506,2.506,0,0,1-.894.172H53.814a1.719,1.719,0,0,0,0,3.438H72.823a2.407,2.407,0,0,1,0,4.813H53.814a1.719,1.719,0,0,0,0,3.438H66.963a2.407,2.407,0,0,1,.017,4.813Zm17.583,0H72.291a5.875,5.875,0,0,0,0-4.813h.533a5.862,5.862,0,0,0,5.844-5.845,5.8,5.8,0,0,0-.619-2.613,5.833,5.833,0,0,0,4.108-7.1v-.017a1.112,1.112,0,0,0-.069-.223c0-.017-.017-.034-.017-.069-.017-.069-.052-.138-.069-.189,0-.017-.017-.034-.017-.052a5.715,5.715,0,0,0-.791-1.461l-.017-.017A5.775,5.775,0,0,0,77.894,60l-.137-.034a5.969,5.969,0,0,0-1.255-.138H76.45a5.925,5.925,0,0,0,.516-2.407,5.861,5.861,0,0,0-5.844-5.845h-25.4V3.438H84.563Z"/>
      <ellipse id="Ellipse_34" data-name="Ellipse 34" class="cls-5" cx="3.111" cy="3.112" rx="3.111" ry="3.112" transform="translate(62.03 38.508)"/>
      <path id="Path_1450" data-name="Path 1450" class="cls-5" d="M367.215,56.846l-1.6,22.4a1.491,1.491,0,0,1-2.973,0l-1.581-22.4a3.075,3.075,0,1,1,6.136-.43A3.6,3.6,0,0,1,367.215,56.846Z" transform="translate(-298.998 -44.348)"/>
    </g>
  </g>
</svg>
